<svg width="171" height="33" viewBox="0 0 171 33" fill="none" xmlns="http://www.w3.org/2000/svg">
<path d="M30.8909 10.1897C29.9567 9.11655 28.6948 8.57996 27.1051 8.57996C26.2419 8.56302 25.3881 8.76495 24.6209 9.16753C23.9443 9.52384 23.3617 10.04 22.922 10.6726V8.70231H18.077V16.2279C18.077 17.0274 17.8722 17.6568 17.4626 18.1162C17.0531 18.5755 16.4957 18.8046 15.7906 18.8035C15.4817 18.8168 15.1736 18.7623 14.8873 18.6436C14.601 18.525 14.3431 18.3451 14.1313 18.1162C13.7091 17.6568 13.498 17.0274 13.498 16.2279V8.70231H8.70837V16.8525C8.70837 18.7026 9.17124 20.1654 10.097 21.2407C11.0227 22.316 12.2893 22.8526 13.897 22.8504C14.7602 22.8673 15.6139 22.6653 16.3812 22.2629C17.0655 21.9048 17.649 21.3758 18.077 20.7256V22.7249H22.922V14.7582C22.9608 14.2231 23.1685 13.7149 23.5141 13.3094C23.9237 12.8523 24.4895 12.6231 25.2115 12.6221C25.5187 12.6087 25.8252 12.6633 26.1097 12.7819C26.3943 12.9006 26.6502 13.0806 26.8597 13.3094C27.2682 13.7687 27.473 14.3982 27.474 15.1977V22.7233H32.3V14.5522C32.3 12.7203 31.8303 11.2661 30.8909 10.1897Z" fill="white"/>
<path d="M40.6236 5.18018V27.1662H38.9849V5.18018H40.6236Z" fill="white"/>
<path d="M54.1389 13.5799C54.1389 11.8735 52.991 10.5101 50.5748 10.5101H47.2625V20.9461H48.6083V16.6787H50.2281L52.6728 20.9461H54.2783L51.6943 16.5805C53.4185 16.1845 54.1389 14.9128 54.1389 13.5799ZM48.6083 15.5856V11.6337H50.5812C52.1138 11.6337 52.7614 12.3967 52.7614 13.5799C52.7614 14.763 52.0917 15.5856 50.5748 15.5856H48.6083Z" fill="white"/>
<path d="M59.7059 12.606C57.3499 12.606 55.7144 14.2383 55.7144 16.8284C55.7144 19.4185 57.4085 21.0878 59.7059 21.0878C61.7088 21.0878 63.004 19.9191 63.4173 18.4221H61.9733C61.6788 19.3058 60.914 19.9352 59.7059 19.9352C58.3364 19.9352 57.1869 19.0209 57.0839 17.3596H63.5344C63.5646 17.086 63.5794 16.8108 63.5788 16.5354C63.5788 14.2834 62.0477 12.606 59.7059 12.606ZM57.0982 16.2457C57.2454 14.6359 58.3364 13.7602 59.6474 13.7602C61.0312 13.7602 62.2092 14.6424 62.1949 16.2457H57.0982Z" fill="white"/>
<path d="M66.4066 14.8983C66.4066 14.2383 66.9956 13.7602 67.982 13.7602C69.0571 13.7602 69.6762 14.359 69.7347 15.1816H71.0742C70.9856 13.5719 69.8076 12.606 68.0263 12.606C66.2451 12.606 65.0655 13.6395 65.0655 14.8983C65.0655 17.9568 69.8377 16.8896 69.8377 18.715C69.8377 19.3895 69.2487 19.9288 68.1878 19.9288C67.0542 19.9288 66.3622 19.33 66.2878 18.5364H64.904C64.9927 20.0334 66.3179 21.0814 68.2021 21.0814C69.9849 21.0814 71.1487 20.064 71.1487 18.715C71.0917 15.7756 66.4066 16.8445 66.4066 14.8983Z" fill="white"/>
<path d="M76.5225 12.606C74.1665 12.606 72.5325 14.2383 72.5325 16.8284C72.5325 19.4185 74.2251 21.0878 76.5225 21.0878C78.5254 21.0878 79.8222 19.9191 80.2338 18.4221H78.7914C78.4969 19.3058 77.7306 19.9352 76.5225 19.9352C75.1529 19.9352 74.005 19.0209 73.9021 17.3596H80.3526C80.382 17.0859 80.3968 16.8108 80.3969 16.5354C80.3969 14.2834 78.8643 12.606 76.5225 12.606ZM73.9164 16.2457C74.0636 14.6359 75.1529 13.7602 76.4639 13.7602C77.8478 13.7602 79.0273 14.6424 79.0115 16.2457H73.9164Z" fill="white"/>
<path d="M83.5035 14.0741V12.7412H82.1624V20.951H83.5035V16.4839C83.5035 14.5828 84.4757 13.9984 85.7566 13.9984H86.1096V12.5915C84.8287 12.5915 83.9595 13.1613 83.5035 14.0741Z" fill="white"/>
<path d="M90.6601 19.6889L88.141 12.7412H86.6985L89.8652 20.9461H91.4264L94.5915 12.7412H93.1633L90.6601 19.6889Z" fill="white"/>
<path d="M99.408 12.606C97.0504 12.606 95.4164 14.2383 95.4164 16.8284C95.4164 19.4185 97.1106 21.0878 99.408 21.0878C101.411 21.0878 102.706 19.9191 103.119 18.4221H101.675C101.381 19.3058 100.614 19.9352 99.408 19.9352C98.0384 19.9352 96.8889 19.0209 96.786 17.3596H103.233C103.263 17.086 103.278 16.8108 103.278 16.5354C103.281 14.2834 101.75 12.606 99.408 12.606ZM96.8002 16.2457C96.9475 14.6359 98.0384 13.7602 99.3478 13.7602C100.733 13.7602 101.911 14.6424 101.897 16.2457H96.8002Z" fill="white"/>
<path d="M106.992 10.4956H104.929V20.9461H110.379V19.2849H106.992V10.4956Z" fill="white"/>
<path d="M115.252 12.5175C112.838 12.5175 111.159 14.1787 111.159 16.7994C111.159 19.4201 112.882 21.0878 115.252 21.0878C117.271 21.0878 118.625 19.8756 119.068 18.3512H116.85C116.586 18.905 116.099 19.3541 115.216 19.3541C114.184 19.3541 113.36 18.6651 113.256 17.4369H119.222C119.262 17.1706 119.282 16.9014 119.28 16.632C119.274 14.1481 117.61 12.5175 115.252 12.5175ZM113.265 16.0203C113.424 14.8822 114.207 14.2383 115.194 14.2383C116.255 14.2383 117.108 14.9273 117.138 16.0203H113.265Z" fill="white"/>
<path d="M125.297 12.5319C124.25 12.5319 123.367 12.981 122.837 13.6845V12.651H120.778V20.9461H122.837V16.3648C122.837 15.0319 123.559 14.3139 124.678 14.3139C125.767 14.3139 126.489 15.0319 126.489 16.3648V20.9461H128.548V16.0798C128.551 13.7891 127.197 12.5319 125.297 12.5319Z" fill="white"/>
<path d="M136.385 13.8053C135.826 13.0262 134.802 12.5175 133.72 12.5175C131.629 12.5175 129.979 14.1787 129.979 16.7688C129.979 19.3589 131.629 21.0878 133.705 21.0878C134.987 21.0878 135.899 20.489 136.385 19.726V20.9526H138.477V9.86621H136.385V13.8053ZM134.235 19.2398C133.127 19.2398 132.085 18.3416 132.085 16.7688C132.085 15.1961 133.131 14.3542 134.235 14.3542C135.369 14.3542 136.401 15.2219 136.401 16.7946C136.401 18.3673 135.375 19.2398 134.235 19.2398Z" fill="white"/>
<path d="M141.539 11.6642C142.239 11.6642 142.806 11.1143 142.806 10.436C142.806 9.75767 142.239 9.20776 141.539 9.20776C140.839 9.20776 140.272 9.75767 140.272 10.436C140.272 11.1143 140.839 11.6642 141.539 11.6642Z" fill="white"/>
<path d="M142.555 12.6511H140.494V20.9461H142.555V12.6511Z" fill="white"/>
<path d="M162.292 17.5238V12.6511H160.214V13.8342C159.728 13.1163 158.8 12.5175 157.523 12.5175C155.445 12.5175 153.797 14.1787 153.797 16.7688C153.797 19.3589 155.441 21.0878 157.518 21.0878C158.042 21.1007 158.561 20.9833 159.03 20.746C159.499 20.5087 159.904 20.1585 160.21 19.7259C160.21 21.6206 158.902 22.6364 157.401 22.6364C155.361 22.6364 154.456 21.2584 154.456 21.2584C154.662 23.1612 155.954 24.3282 158.256 24.3282C158.452 24.3279 158.648 24.3166 158.843 24.2944C158.272 24.7903 157.572 25.1091 156.828 25.2132C156.084 25.3173 155.326 25.2022 154.644 24.8817C153.962 24.5612 153.384 24.0486 152.98 23.4047C152.576 22.7609 152.361 22.0127 152.363 21.2488V20.2346V16.0798C152.363 13.7892 151.007 12.5384 149.107 12.5384C148.639 12.5242 148.173 12.6201 147.747 12.8186C147.321 13.0171 146.945 13.3129 146.65 13.6829V12.6511H144.592V20.9461H146.65V16.3648C146.65 15.0319 147.372 14.3139 148.49 14.3139C149.581 14.3139 150.303 15.0319 150.303 16.3648V20.2282V21.2488C150.303 22.8652 150.934 24.4153 152.058 25.5583C153.183 26.7012 154.707 27.3433 156.297 27.3433C157.887 27.3433 159.412 26.7012 160.536 25.5583C161.66 24.4153 162.292 22.8652 162.292 21.2488V17.5302V17.5238ZM158.048 19.2398C156.94 19.2398 155.898 18.3416 155.898 16.7688C155.898 15.1961 156.943 14.3542 158.048 14.3542C159.182 14.3542 160.213 15.2218 160.213 16.7946C160.213 18.3673 159.182 19.2398 158.048 19.2398Z" fill="white"/>
</svg>
