<svg width="46" height="32" viewBox="0 0 46 32" fill="none" xmlns="http://www.w3.org/2000/svg" color="white">
<path d="M35.3275 1.80571C34.2188 0.602638 32.7211 0.00110386 30.8344 0.00110386C29.8098 -0.0178895 28.7965 0.208485 27.8859 0.659784C27.0829 1.05923 26.3914 1.63786 25.8695 2.34709V0.138254H20.1192V8.57477C20.1192 9.47106 19.8762 10.1767 19.3901 10.6916C18.904 11.2065 18.2425 11.4633 17.4056 11.4621C17.039 11.477 16.6733 11.4159 16.3335 11.2829C15.9937 11.1499 15.6877 10.9483 15.4362 10.6916C14.9351 10.1767 14.6846 9.47106 14.6846 8.57477V0.138254H9V9.27496C9 11.3491 9.54935 12.9888 10.6481 14.1943C11.7468 15.3998 13.2501 16.0013 15.1581 15.9989C16.1826 16.0178 17.1959 15.7914 18.1066 15.3402C18.9187 14.9388 19.6112 14.3458 20.1192 13.6168V15.8582H25.8695V6.92717C25.9156 6.32724 26.1621 5.75762 26.5723 5.30303C27.0584 4.79052 27.7299 4.53367 28.5868 4.53246C28.9515 4.51752 29.3153 4.57867 29.653 4.7117C29.9907 4.84472 30.2944 5.04646 30.5431 5.30303C31.0279 5.81794 31.271 6.52354 31.2722 7.41983V15.8563H37V6.69618C37 4.64254 36.4425 3.01239 35.3275 1.80571Z" fill="currentColor"/>
<path d="M0 21C0 19.8954 0.895431 19 2 19H44C45.1046 19 46 19.8954 46 21V30C46 31.1046 45.1046 32 44 32H2C0.89543 32 0 31.1046 0 30V21Z" fill="#DA914E"/>
<path d="M6.33 27.68H8.57V29H4.62V21.98H6.33V27.68Z" fill="white"/>
<path d="M11.0956 23.35V24.77H13.3856V26.09H11.0956V27.63H13.6856V29H9.38562V21.98H13.6856V23.35H11.0956Z" fill="white"/>
<path d="M19.4558 24.2C19.3291 23.9667 19.1458 23.79 18.9058 23.67C18.6724 23.5434 18.3958 23.48 18.0758 23.48C17.5224 23.48 17.0791 23.6634 16.7458 24.03C16.4124 24.39 16.2458 24.8734 16.2458 25.48C16.2458 26.1267 16.4191 26.6334 16.7658 27C17.1191 27.36 17.6024 27.54 18.2158 27.54C18.6358 27.54 18.9891 27.4334 19.2758 27.22C19.5691 27.0067 19.7824 26.7 19.9158 26.3H17.7458V25.04H21.4658V26.63C21.3391 27.0567 21.1224 27.4534 20.8158 27.82C20.5158 28.1867 20.1324 28.4834 19.6658 28.71C19.1991 28.9367 18.6724 29.05 18.0858 29.05C17.3924 29.05 16.7724 28.9 16.2258 28.6C15.6858 28.2934 15.2624 27.87 14.9558 27.33C14.6558 26.79 14.5058 26.1734 14.5058 25.48C14.5058 24.7867 14.6558 24.17 14.9558 23.63C15.2624 23.0834 15.6858 22.66 16.2258 22.36C16.7658 22.0534 17.3824 21.9 18.0758 21.9C18.9158 21.9 19.6224 22.1034 20.1958 22.51C20.7758 22.9167 21.1591 23.48 21.3458 24.2H19.4558Z" fill="white"/>
<path d="M26.783 27.76H24.163L23.743 29H21.953L24.493 21.98H26.473L29.013 29H27.203L26.783 27.76ZM26.343 26.44L25.473 23.87L24.613 26.44H26.343Z" fill="white"/>
<path d="M29.496 25.48C29.496 24.7867 29.646 24.17 29.946 23.63C30.246 23.0834 30.6627 22.66 31.196 22.36C31.736 22.0534 32.346 21.9 33.026 21.9C33.8593 21.9 34.5727 22.12 35.166 22.56C35.7593 23 36.156 23.6 36.356 24.36H34.476C34.336 24.0667 34.136 23.8434 33.876 23.69C33.6227 23.5367 33.3327 23.46 33.006 23.46C32.4793 23.46 32.0527 23.6434 31.726 24.01C31.3993 24.3767 31.236 24.8667 31.236 25.48C31.236 26.0934 31.3993 26.5834 31.726 26.95C32.0527 27.3167 32.4793 27.5 33.006 27.5C33.3327 27.5 33.6227 27.4234 33.876 27.27C34.136 27.1167 34.336 26.8934 34.476 26.6H36.356C36.156 27.36 35.7593 27.96 35.166 28.4C34.5727 28.8334 33.8593 29.05 33.026 29.05C32.346 29.05 31.736 28.9 31.196 28.6C30.6627 28.2934 30.246 27.87 29.946 27.33C29.646 26.79 29.496 26.1734 29.496 25.48Z" fill="white"/>
<path d="M43.4232 21.98L40.9932 26.68V29H39.2832V26.68L36.8532 21.98H38.7932L40.1532 24.92L41.5032 21.98H43.4232Z" fill="white"/>
</svg>
