<svg width="112" height="113" viewBox="0 0 112 113" fill="none" xmlns="http://www.w3.org/2000/svg">
<circle cx="56" cy="56.4263" r="56" fill="url(#paint0_linear)"/>
<path d="M68.9246 85.0004C67.7382 83.6785 66.1364 83.0181 64.1179 83.0181C62.9316 83.0181 61.8798 83.2595 60.964 83.741C60.0644 84.214 59.3465 84.8298 58.8084 85.5899V83.172H58.7791H52.6604H52.6579V92.4232C52.6579 93.4075 52.3975 94.1805 51.878 94.7445C51.3572 95.3086 50.6497 95.5899 49.7554 95.5899C48.8815 95.5899 48.1791 95.3086 47.6481 94.7445C47.1172 94.1805 46.8517 93.4075 46.8517 92.4232V83.172H40.7646V93.1924C40.7646 95.4662 41.3528 97.2646 42.5277 98.5866C43.704 99.9073 45.3121 100.569 47.3508 100.569C48.5373 100.569 49.589 100.328 50.5049 99.8461C51.4195 99.3658 52.1384 98.7355 52.6579 97.9563V100.415H52.6604H58.7791H58.8084V90.6179C58.8895 89.8892 59.14 89.2978 59.5603 88.8425C60.0799 88.2797 60.7976 87.9971 61.7134 87.9971C62.5873 87.9971 63.2847 88.2797 63.8055 88.8425C64.325 89.4066 64.5855 90.1795 64.5855 91.1638V100.415H70.7042V90.3646C70.7042 88.1109 70.111 86.3224 68.9246 85.0004Z" fill="white"/>
<path fill-rule="evenodd" clip-rule="evenodd" d="M94.8839 81.3385C99.4978 74.1514 102.174 65.6014 102.174 56.4264C102.174 30.9244 81.5003 10.251 55.9983 10.251C30.4964 10.251 9.82291 30.9244 9.82291 56.4264C9.82291 65.6817 12.5459 74.301 17.2344 81.5269C26.8676 76.7357 40.7799 73.7266 56.2506 73.7266C71.5175 73.7266 85.2668 76.6569 94.8839 81.3385Z" fill="white"/>
<path d="M66.0735 38.9347C65.3508 38.5218 64.4217 38.5218 63.5957 38.9347L57.8143 42.3416L53.8912 44.5097L48.213 47.9166C47.4903 48.3296 46.5612 48.3296 45.7352 47.9166L41.2959 45.2324C40.5733 44.8194 40.0571 43.9935 40.0571 43.0643V37.9023C40.0571 37.0764 40.47 36.2505 41.2959 35.7343L45.7352 33.1533C46.4579 32.7403 47.3871 32.7403 48.213 33.1533L52.6523 35.8375C53.375 36.2505 53.8912 37.0764 53.8912 38.0056V41.4125L57.8143 39.1412V35.6311C57.8143 34.8051 57.4014 33.9792 56.5754 33.463L48.3162 28.6107C47.5936 28.1978 46.6644 28.1978 45.8385 28.6107L37.3728 33.5663C36.5469 33.9792 36.1339 34.8051 36.1339 35.6311V45.3356C36.1339 46.1615 36.5469 46.9874 37.3728 47.5036L45.7352 52.3559C46.4579 52.7689 47.3871 52.7689 48.213 52.3559L53.8912 49.0522L57.8143 46.781L63.4925 43.4773C64.2152 43.0643 65.1443 43.0643 65.9703 43.4773L70.4096 46.0583C71.1323 46.4712 71.6484 47.2972 71.6484 48.2263V53.3883C71.6484 54.2142 71.2355 55.0401 70.4096 55.5563L66.0735 58.1373C65.3508 58.5503 64.4217 58.5503 63.5957 58.1373L59.1564 55.5563C58.4337 55.1434 57.9175 54.3175 57.9175 53.3883V50.0846L53.9944 52.3559V55.7628C53.9944 56.5887 54.4074 57.4147 55.2333 57.9309L63.5957 62.7831C64.3184 63.1961 65.2476 63.1961 66.0735 62.7831L74.4359 57.9309C75.1586 57.5179 75.6748 56.692 75.6748 55.7628V45.955C75.6748 45.1291 75.2618 44.3032 74.4359 43.787L66.0735 38.9347Z" fill="#2C2C2C"/>
<defs>
<linearGradient id="paint0_linear" x1="27.0968" y1="0.426269" x2="112.154" y2="20.1289" gradientUnits="userSpaceOnUse">
<stop stop-color="#2E73FF"/>
<stop offset="0.894147" stop-color="#184CE8"/>
</linearGradient>
</defs>
</svg>
