<svg width="109" height="109" viewBox="0 0 109 109" fill="none" xmlns="http://www.w3.org/2000/svg">
<circle cx="54.2426" cy="54.2426" r="54.2426" fill="url(#paint0_linear)"/>
<path d="M66.7616 81.9201C65.6124 80.6396 64.0609 80 62.1058 80C60.9567 80 59.9379 80.2338 59.0508 80.7002C58.1794 81.1584 57.4841 81.7548 56.9629 82.4911V80.149H56.9345H51.0078H51.0054V89.11C51.0054 90.0633 50.7532 90.812 50.25 91.3584C49.7456 91.9047 49.0602 92.1773 48.194 92.1773C47.3475 92.1773 46.6671 91.9047 46.1528 91.3584C45.6385 90.812 45.3814 90.0633 45.3814 89.11V80.149H39.4854V89.855C39.4854 92.0574 40.055 93.7994 41.1931 95.0799C42.3325 96.3592 43.8901 97 45.8649 97C47.0141 97 48.0328 96.7662 48.92 96.2998C49.8058 95.8346 50.5022 95.2241 51.0054 94.4693V96.851H51.0078H56.9345H56.9629V87.3612C57.0415 86.6555 57.2841 86.0826 57.6912 85.6416C58.1945 85.0965 58.8896 84.8227 59.7767 84.8227C60.6232 84.8227 61.2987 85.0965 61.8032 85.6416C62.3064 86.188 62.5587 86.9367 62.5587 87.89V96.851H68.4854V87.116C68.4854 84.9329 67.9108 83.2006 66.7616 81.9201Z" fill="white"/>
<path fill-rule="evenodd" clip-rule="evenodd" d="M91.9062 78.373C96.3754 71.4114 98.9674 63.1298 98.9674 54.2427C98.9674 29.541 78.9427 9.51636 54.241 9.51636C29.5393 9.51636 9.51465 29.541 9.51465 54.2427C9.51465 63.2076 12.1522 71.5564 16.6936 78.5555C26.0244 73.9146 39.5001 71 54.4854 71C69.2732 71 82.591 73.8384 91.9062 78.373Z" fill="white"/>
<g clip-path="url(#clip0)">
<path fill-rule="evenodd" clip-rule="evenodd" d="M73.8893 49.2545L66.1753 60.0072C64.9621 61.7148 62.6081 62.537 59.5478 62.2853C55.6002 61.9593 50.3669 59.8732 45.3509 56.2751C40.335 52.6752 36.6773 48.3872 35.0838 44.7565C33.8705 41.9425 33.8885 39.4581 35.1198 37.7487L42.8158 26.996C44.0472 25.2884 46.4011 24.4663 49.4433 24.718C53.3909 25.0439 58.6423 27.1318 63.6582 30.7299C68.6742 34.328 72.332 38.616 73.9074 42.2467C75.1387 45.0607 75.1026 47.5469 73.8893 49.2545ZM44.8802 28.4736C45.677 27.369 47.2704 27.083 49.2442 27.2459C52.8477 27.5429 57.5921 29.5058 62.1735 32.7906C66.7549 36.0736 70.1411 39.9434 71.5897 43.2572C72.3684 45.0734 72.6217 46.6741 71.8249 47.7787L72.8573 48.5158L71.8249 47.7787L64.1109 58.5314C63.3323 59.6341 61.7388 59.9221 59.765 59.7573C56.1614 59.4621 51.399 57.4974 46.8176 54.2144C42.2363 50.9296 38.85 47.0599 37.4194 43.7479C36.6227 41.9298 36.3875 40.329 37.1842 39.2263L44.8802 28.4736Z" fill="white"/>
<path fill-rule="evenodd" clip-rule="evenodd" d="M43.8645 27.9957C46.3816 24.4827 54.9104 26.2863 62.9142 32.0193C70.918 37.7542 75.3727 45.2636 72.8556 48.7766L65.1597 59.5293C62.6426 63.0422 54.0954 61.2387 46.0916 55.5038C38.0878 49.769 33.6335 42.2613 36.1505 38.7483L43.8645 27.9957Z" fill="white"/>
<path fill-rule="evenodd" clip-rule="evenodd" d="M43.3093 27.3454C44.429 25.7778 46.5937 25.0874 49.393 25.3113C53.256 25.6286 58.3693 27.7 63.296 31.2084C68.2041 34.7355 71.806 38.9345 73.3363 42.4803C74.456 45.0556 74.4931 47.3322 73.3734 48.8998L65.6849 59.6492C64.5652 61.2168 62.3818 61.9072 59.6012 61.6832C55.7382 61.3473 50.6062 59.2947 45.6981 55.7676C40.7714 52.2591 37.1882 48.0601 35.6393 44.5143C34.5196 41.939 34.4824 39.6623 35.6021 38.0947L43.3093 27.3454ZM72.3098 48.1348V48.1162C73.2056 46.8845 73.0189 45.0556 72.1418 43.0028C70.6675 39.625 67.2152 35.6499 62.5124 32.2908C57.8283 28.9316 52.9574 26.9349 49.2811 26.6363C47.0416 26.4496 45.269 26.8603 44.3732 28.1106L44.3357 28.1852C43.4959 29.4355 43.6827 31.2084 44.5598 33.2239C46.0341 36.6203 49.4866 40.5953 54.1707 43.9544C58.8548 47.3136 63.7253 49.3106 67.4016 49.6091C69.6037 49.7771 71.3393 49.3852 72.2537 48.2095L72.3098 48.1162V48.1348ZM60.3291 35.3328C62.6805 37.0124 64.4158 39.0092 65.1436 40.7074C65.5728 41.6591 65.6847 42.499 65.2555 43.0775C64.845 43.656 64.0053 43.824 62.9789 43.7307C61.1314 43.5814 58.7054 42.5736 56.354 40.894C54.0026 39.2144 52.2669 37.2362 51.5391 35.538C51.1285 34.5863 51.0166 33.7464 51.4272 33.1679C51.8377 32.5894 52.6777 32.4215 53.7227 32.4962C55.5516 32.6641 57.9964 33.6532 60.3291 35.3328Z" fill="#2C2C2C"/>
<path d="M42.5375 31.191C42.7427 36.0991 47.5762 40.7831 51.2899 43.9556C56.4593 48.3599 64.7827 51.6631 69.4295 50.9167" stroke="white" stroke-width="0.0130199" stroke-linecap="round" stroke-linejoin="round" stroke-dasharray="0.03 0.03 0.33 0.33"/>
</g>
<defs>
<linearGradient id="paint0_linear" x1="26.2464" y1="-5.59633e-07" x2="108.634" y2="19.0844" gradientUnits="userSpaceOnUse">
<stop stop-color="#2E73FF"/>
<stop offset="0.894147" stop-color="#184CE8"/>
</linearGradient>
<clipPath id="clip0">
<rect width="43" height="43" fill="white" transform="translate(33 22)"/>
</clipPath>
</defs>
</svg>
