<svg width="163" height="111" viewBox="0 0 163 111" fill="none" xmlns="http://www.w3.org/2000/svg">
<path d="M138.109 28.4743C114.662 20.1113 90.8383 27.5035 74.6771 43.6111C58.516 59.7188 24.6024 32.4931 6.61298 48.5736C-5.66025 59.5507 -0.0399475 87.7635 16.7927 99.988C39.6688 116.6 109.245 108.172 124.295 105.346C141.635 102.087 154.309 92.2053 159.461 80.2141C171.87 51.3125 148.469 32.1677 138.109 28.4743Z" fill="#1E3886"/>
<path d="M79.2039 14H80.7412C80.7412 10.5961 83.5412 7.74119 87 7.74119V6.25883C83.5961 6.25883 80.7412 3.45883 80.7412 0H79.2588C79.2588 3.40393 76.4588 6.25883 73 6.25883V7.74119C76.4039 7.74119 79.2039 10.5412 79.2039 14Z" fill="#1E3886"/>
<path d="M148.475 34.9014H149.336C149.336 32.9803 150.904 31.369 152.841 31.369V30.5324C150.935 30.5324 149.336 28.9521 149.336 27H148.506C148.506 28.9211 146.937 30.5324 145 30.5324V31.369C146.907 31.369 148.475 32.9493 148.475 34.9014Z" fill="#1E3886"/>
<path d="M26.4748 78.9014H27.3358C27.3358 76.9803 28.9041 75.369 30.8413 75.369V74.5324C28.9348 74.5324 27.3358 72.9521 27.3358 71H26.5055C26.5055 72.9211 24.9373 74.5324 23 74.5324V75.369C24.9065 75.369 26.4748 76.9493 26.4748 78.9014Z" fill="#13296B"/>
<path d="M126.964 100.008C79.8561 108.897 34.4295 95.7313 48.7092 96.0259C67.5249 96.4141 78.7854 100.591 126.964 100.008Z" fill="#13296B"/>
<path d="M4.21349 60.1841C4.19743 50.0501 20.3713 44.3728 18.15 46.8816C15.223 50.1873 10.5333 51.4225 4.21349 60.1841Z" fill="#13296B"/>
<path d="M30.4597 25H31.5403C31.5403 22.5442 33.5442 20.5403 36 20.5403V19.4597C33.5442 19.4597 31.5403 17.4558 31.5403 15H30.4597C30.4597 17.4558 28.4558 19.4597 26 19.4597V20.5403C28.4558 20.5403 30.4597 22.5442 30.4597 25Z" fill="#1E3886"/>
<rect x="30.7002" y="31" width="99.9" height="52" rx="26" fill="#00D395"/>
<rect x="83.0723" y="35.4829" width="43.2" height="43.0345" rx="21.5172" fill="white"/>
</svg>
