<svg width="146" height="146" viewBox="0 0 146 146" fill="none" xmlns="http://www.w3.org/2000/svg">
<circle cx="73" cy="73" r="73" fill="url(#paint0_linear_678:809)"/>
<path fill-rule="evenodd" clip-rule="evenodd" d="M72.8462 32.8461C51.7744 32.8461 34.6923 49.9282 34.6923 71C34.6923 92.0718 51.7744 109.154 72.8462 109.154C93.9179 109.154 111 92.0718 111 71C111 49.9282 93.9179 32.8461 72.8462 32.8461ZM31 71C31 47.889 49.7352 29.1538 72.8462 29.1538C95.9571 29.1538 114.692 47.889 114.692 71C114.692 94.111 95.9571 112.846 72.8462 112.846C49.7352 112.846 31 94.111 31 71Z" fill="#00D395"/>
<path fill-rule="evenodd" clip-rule="evenodd" d="M71.695 53.6945C72.416 52.9736 73.5849 52.9736 74.3059 53.6945L90.3059 69.6945C91.0268 70.4155 91.0268 71.5844 90.3059 72.3054C89.5849 73.0264 88.416 73.0264 87.695 72.3054L73.0004 57.6108L58.3059 72.3054C57.5849 73.0264 56.416 73.0264 55.695 72.3054C54.9741 71.5844 54.9741 70.4155 55.695 69.6945L71.695 53.6945Z" fill="#00D395"/>
<path fill-rule="evenodd" clip-rule="evenodd" d="M73.0005 53.1538C74.0201 53.1538 74.8466 53.9804 74.8466 55V87C74.8466 88.0196 74.0201 88.8461 73.0005 88.8461C71.9808 88.8461 71.1543 88.0196 71.1543 87V55C71.1543 53.9804 71.9808 53.1538 73.0005 53.1538Z" fill="#00D395"/>
<defs>
<linearGradient id="paint0_linear_678:809" x1="73" y1="0" x2="73" y2="146" gradientUnits="userSpaceOnUse">
<stop stop-color="#00D395" stop-opacity="0.16"/>
<stop offset="1" stop-color="#00D395" stop-opacity="0"/>
</linearGradient>
</defs>
</svg>
