<svg width="20" height="8" viewBox="0 0 20 8" fill="none" xmlns="http://www.w3.org/2000/svg">
<path fill-rule="evenodd" clip-rule="evenodd" d="M4.33403 1.30248C4.6185 1.00452 4.6185 0.52143 4.33403 0.22347C4.04955 -0.07449 3.58833 -0.07449 3.30386 0.22347L0.213355 3.4605C-0.0711182 3.75846 -0.0711183 4.24154 0.213355 4.5395L3.30386 7.77653C3.58833 8.07449 4.04955 8.07449 4.33403 7.77653C4.6185 7.47857 4.6185 6.99548 4.33403 6.69752L2.4871 4.76303H7.93974C8.34204 4.76303 8.66818 4.42144 8.66817 4.00006C8.66817 3.57868 8.34204 3.23708 7.93974 3.23708H2.48699L4.33403 1.30248ZM16.6961 0.22347C16.4117 -0.07449 15.9504 -0.07449 15.666 0.22347C15.3815 0.52143 15.3815 1.00452 15.666 1.30248L17.513 3.23708H12.0603C11.658 3.23708 11.3318 3.57868 11.3318 4.00006C11.3318 4.42144 11.658 4.76303 12.0603 4.76303H17.5129L15.666 6.69752C15.3815 6.99548 15.3815 7.47857 15.666 7.77653C15.9504 8.07449 16.4117 8.07449 16.6961 7.77653L19.7866 4.5395C20.0711 4.24154 20.0711 3.75846 19.7866 3.4605L16.6961 0.22347Z" fill="currentColor"/>
</svg>
