<svg width="18" height="18" viewBox="0 0 18 18" fill="none" xmlns="http://www.w3.org/2000/svg">
<path fill-rule="evenodd" clip-rule="evenodd" d="M9.00005 2.19223C5.24026 2.19223 2.19235 5.24014 2.19235 8.99993C2.19235 12.7597 5.24026 15.8076 9.00005 15.8076C12.7598 15.8076 15.8077 12.7597 15.8077 8.99993C15.8077 5.24014 12.7598 2.19223 9.00005 2.19223ZM0.807739 8.99993C0.807739 4.47544 4.47556 0.807617 9.00005 0.807617C13.5245 0.807617 17.1924 4.47544 17.1924 8.99993C17.1924 13.5244 13.5245 17.1922 9.00005 17.1922C4.47556 17.1922 0.807739 13.5244 0.807739 8.99993ZM8.99999 5.30762C9.38234 5.30762 9.6923 5.61757 9.6923 5.99993V8.99992C9.6923 9.38228 9.38234 9.69223 8.99999 9.69223C8.61764 9.69223 8.30768 9.38228 8.30768 8.99992V5.99993C8.30768 5.61757 8.61764 5.30762 8.99999 5.30762ZM8.99999 11.3077C8.61764 11.3077 8.30768 11.6176 8.30768 12C8.30768 12.3823 8.61764 12.6923 8.99999 12.6923H9.00749C9.38984 12.6923 9.6998 12.3823 9.6998 12C9.6998 11.6176 9.38984 11.3077 9.00749 11.3077H8.99999Z" fill="currentColor"/>
</svg>
