<svg width="48" height="48" viewBox="0 0 48 48" fill="none" xmlns="http://www.w3.org/2000/svg">
<path d="M10.4 0C4.6562 0 0 4.6562 0 10.4C0.0066 16.141 4.659 20.7934 10.4 20.8C16.1438 20.8 20.8 16.1438 20.8 10.4C20.8 4.6562 16.1438 0 10.4 0ZM10.4 19.2C5.5399 19.2 1.6 15.2601 1.6 10.4C1.6057 5.5423 5.5423 1.6057 10.4 1.6C15.2601 1.6 19.2 5.5399 19.2 10.4C19.2 15.2601 15.2601 19.2 10.4 19.2Z" fill="currentColor"/>
<path d="M16 10.3999C15.9965 13.4912 13.4913 15.9964 10.4 15.9999V17.5999C14.3746 17.5955 17.5956 14.3745 17.6 10.3999H16Z" fill="currentColor"/>
<path d="M39.2 3.19995C34.3399 3.19995 30.4 7.13985 30.4 12C30.4 16.8601 34.3399 20.7999 39.2 20.7999C44.0601 20.7999 48 16.8601 48 12C47.9943 7.14225 44.0577 3.20565 39.2 3.19995ZM39.2 19.2C35.2236 19.2 32 15.9764 32 12C32 8.02345 35.2236 4.79995 39.2 4.79995C43.1765 4.79995 46.4 8.02345 46.4 12C46.3956 15.9746 43.1746 19.1955 39.2 19.2Z" fill="currentColor"/>
<path d="M33.6 11.9999H35.2C35.2026 9.7919 36.992 8.0025 39.2 7.9999V6.3999C36.1087 6.4034 33.6035 8.9086 33.6 11.9999Z" fill="currentColor"/>
<path d="M17.6 30.3999C12.7399 30.3999 8.79999 34.3398 8.79999 39.1999C8.79999 44.06 12.7399 47.9999 17.6 47.9999C22.4601 47.9999 26.4 44.06 26.4 39.1999C26.3943 34.3422 22.4577 30.4056 17.6 30.3999ZM17.6 46.3999C13.6236 46.3999 10.4 43.1763 10.4 39.1999C10.4 35.2234 13.6236 31.9999 17.6 31.9999C21.5765 31.9999 24.8 35.2234 24.8 39.1999C24.7956 43.1745 21.5746 46.3955 17.6 46.3999Z" fill="currentColor"/>
<path d="M13.6 39.2H12C12.0035 42.2913 14.5087 44.7964 17.6 44.7999V43.1999C15.392 43.1974 13.6026 41.408 13.6 39.2Z" fill="currentColor"/>
<path d="M24 19.2C21.349 19.2 19.2 21.349 19.2 24C19.2 26.651 21.349 28.8 24 28.8C26.651 28.8 28.8 26.651 28.8 24C28.7974 21.3501 26.6499 19.2026 24 19.2ZM24 27.2C22.2327 27.2 20.8 25.7673 20.8 24C20.8 22.2327 22.2327 20.8 24 20.8C25.7673 20.8 27.2 22.2327 27.2 24C27.2 25.7673 25.7673 27.2 24 27.2Z" fill="currentColor"/>
<path d="M40 27.2C37.349 27.2 35.2 29.349 35.2 32C35.2 34.651 37.349 36.7999 40 36.7999C42.651 36.7999 44.8 34.651 44.8 32C44.7974 29.3501 42.6499 27.2026 40 27.2ZM40 35.2C38.2327 35.2 36.8 33.7673 36.8 32C36.8 30.2327 38.2327 28.8 40 28.8C41.7673 28.8 43.2 30.2327 43.2 32C43.2 33.7673 41.7673 35.2 40 35.2Z" fill="currentColor"/>
<path d="M4.80002 24.8C3.47452 24.8 2.40002 25.8745 2.40002 27.2C2.40002 28.5255 3.47452 29.6 4.80002 29.6C6.12552 29.6 7.20002 28.5255 7.20002 27.2C7.20002 25.8745 6.12552 24.8 4.80002 24.8ZM4.80002 28C4.35822 28 4.00002 27.6418 4.00002 27.2C4.00002 26.7582 4.35822 26.4 4.80002 26.4C5.24182 26.4 5.60002 26.7582 5.60002 27.2C5.60002 27.6418 5.24182 28 4.80002 28Z" fill="currentColor"/>
<path d="M24 2.3999C22.6745 2.3999 21.6 3.4744 21.6 4.7999C21.6 6.1254 22.6745 7.1999 24 7.1999C25.3255 7.1999 26.4 6.1254 26.4 4.7999C26.4 3.4744 25.3255 2.3999 24 2.3999ZM24 5.5999C23.5582 5.5999 23.2 5.2417 23.2 4.7999C23.2 4.3581 23.5582 3.9999 24 3.9999C24.4418 3.9999 24.8 4.3581 24.8 4.7999C24.8 5.2417 24.4418 5.5999 24 5.5999Z" fill="currentColor"/>
<path d="M34.4 40.8C33.0745 40.8 32 41.8745 32 43.2C32 44.5255 33.0745 45.6 34.4 45.6C35.7255 45.6 36.8 44.5255 36.8 43.2C36.8 41.8745 35.7255 40.8 34.4 40.8ZM34.4 44C33.9582 44 33.6 43.6418 33.6 43.2C33.6 42.7582 33.9582 42.4 34.4 42.4C34.8418 42.4 35.2 42.7582 35.2 43.2C35.2 43.6418 34.8418 44 34.4 44Z" fill="currentColor"/>
</svg>
