<svg width="6" height="10" viewBox="0 0 6 10" fill="none" xmlns="http://www.w3.org/2000/svg">
<path d="M5.84192 5.38411L1.44001 9.83902C1.3896 9.89006 1.32975 9.93054 1.26387 9.95816C1.19799 9.98578 1.12738 10 1.05607 10C0.984761 10 0.91416 9.98578 0.848282 9.95816C0.782404 9.93054 0.722554 9.89006 0.672139 9.83902L0.15956 9.32027C0.0580126 9.21727 0.000985226 9.0777 0.000985232 8.9322C0.000985238 8.78669 0.0580126 8.64713 0.15956 8.54413L3.64488 5L0.158575 1.45587C0.0570278 1.35287 4.23802e-07 1.21331 4.30162e-07 1.0678C4.36522e-07 0.922298 0.0570278 0.782735 0.158576 0.679731L0.671154 0.160982C0.721569 0.109945 0.78142 0.06946 0.847297 0.0418383C0.913175 0.0142167 0.983791 -2.19265e-07 1.0551 -2.16148e-07C1.12641 -2.13032e-07 1.19701 0.0142167 1.26289 0.0418384C1.32876 0.06946 1.38863 0.109945 1.43904 0.160982L5.84094 4.61589C5.89137 4.66691 5.93137 4.72749 5.95866 4.79416C5.98595 4.86083 6 4.93229 6 5.00446C6 5.07662 5.98595 5.14808 5.95866 5.21475C5.93137 5.28142 5.89137 5.342 5.84094 5.39302L5.84192 5.38411Z" fill="#84ADFE"/>
</svg>
