<svg width="10" height="16" viewBox="0 0 10 16" fill="none" xmlns="http://www.w3.org/2000/svg">
<path d="M9.10467 8.55488L2.74636 14.9897C2.67354 15.0635 2.58709 15.1219 2.49193 15.1618C2.39677 15.2017 2.29477 15.2223 2.19177 15.2223C2.08877 15.2223 1.98679 15.2017 1.89164 15.1618C1.79648 15.1219 1.71003 15.0635 1.63721 14.9897L0.896817 14.2404C0.750136 14.0917 0.667763 13.8901 0.667763 13.6799C0.667763 13.4697 0.750136 13.2681 0.896817 13.1193L5.93117 8.00006L0.895394 2.88076C0.748713 2.73198 0.666341 2.53039 0.666341 2.32021C0.666341 2.11004 0.748713 1.90845 0.895394 1.75967L1.63579 1.01036C1.70861 0.936642 1.79506 0.878163 1.89021 0.838265C1.98537 0.798367 2.08737 0.777832 2.19037 0.777832C2.29337 0.777832 2.39535 0.798367 2.49051 0.838265C2.58567 0.878163 2.67214 0.936642 2.74496 1.01036L9.10325 7.44523C9.1761 7.51893 9.23387 7.60642 9.2733 7.70273C9.31272 7.79903 9.33301 7.90225 9.33301 8.00649C9.33301 8.11073 9.31272 8.21395 9.2733 8.31025C9.23387 8.40656 9.1761 8.49405 9.10325 8.56775L9.10467 8.55488Z" fill="white"/>
</svg>
