<svg width="86" height="86" viewBox="0 0 86 86" fill="none" xmlns="http://www.w3.org/2000/svg">
<circle cx="43" cy="43" r="43" fill="url(#paint0_linear_885_519)"/>
<path fill-rule="evenodd" clip-rule="evenodd" d="M24 34.5762V55.4237C24.1327 55.6954 24.2554 55.9772 24.3786 56.26C24.6473 56.877 24.9183 57.4993 25.3004 58.0339C26.3813 59.4745 27.9689 60.0169 29.7422 60.0169H56.4098C59.112 60.0169 61.2062 58.3559 61.848 55.7288C61.8689 55.6658 61.9028 55.6094 61.9375 55.5514C61.9589 55.5157 61.9807 55.4794 62 55.4406V37.305C61.6116 36.1186 61.2062 34.9321 60.1591 34.1694C59.6299 33.7769 59.0537 33.4551 58.4411 33.113C58.1544 32.953 57.8597 32.7884 57.5582 32.6101C57.544 32.4246 57.5364 32.2204 57.5284 32.0042C57.5079 31.4502 57.4844 30.8177 57.3387 30.2203C56.5618 27.0338 53.792 25.5084 50.2116 26.1355C43.3716 27.3389 36.5147 28.5423 29.6578 29.644C26.6853 30.1186 24.7093 31.5762 24 34.5762ZM56.3422 57.2881H43H42.9985C38.6079 57.2881 34.2173 57.2881 29.8436 57.305C27.7831 57.305 26.7191 56.2372 26.7191 54.1864V38.5932C26.7191 36.5762 27.8169 35.4576 29.8436 35.4576H56.3422C58.1493 35.4576 59.2978 36.6101 59.2978 38.4067V54.3389C59.2978 56.1525 58.1493 57.2881 56.3422 57.2881ZM28.56 32.6949C28.5558 32.6821 28.5516 32.6694 28.5431 32.661C28.9682 32.5822 29.3882 32.5009 29.8061 32.42C30.4674 32.292 31.1234 32.165 31.7858 32.0508C38.2036 30.966 44.6213 29.8813 51.0391 28.7796C53.64 28.3389 55.2107 29.9321 54.7716 32.7288H28.5769C28.5684 32.7203 28.5642 32.7076 28.56 32.6949ZM52.5245 43.678C50.9707 43.6611 49.8223 44.8306 49.8223 46.3899C49.8223 47.8984 50.9876 49.0679 52.4907 49.0679C53.9769 49.0848 55.2436 47.8136 55.2267 46.3391C55.2098 44.8814 53.9938 43.695 52.5245 43.678Z" fill="#3377FF"/>
<defs>
<linearGradient id="paint0_linear_885_519" x1="43" y1="0" x2="43" y2="86" gradientUnits="userSpaceOnUse">
<stop stop-color="#407BFF" stop-opacity="0.29"/>
<stop offset="1" stop-color="#407BFF" stop-opacity="0"/>
</linearGradient>
</defs>
</svg>
