<svg width="16" height="16" viewBox="0 0 16 16" fill="none" xmlns="http://www.w3.org/2000/svg">
<path fill-rule="evenodd" clip-rule="evenodd" d="M2.40011 1.60007C2.18793 1.60007 1.98444 1.68436 1.8344 1.8344C1.68436 1.98444 1.60007 2.18793 1.60007 2.40011V13.6006C1.60007 13.8128 1.68436 14.0163 1.8344 14.1663C1.98444 14.3164 2.18793 14.4007 2.40011 14.4007H5.60026C6.04211 14.4007 6.4003 14.7589 6.4003 15.2007C6.4003 15.6426 6.04211 16.0007 5.60026 16.0007H2.40011C1.76356 16.0007 1.15308 15.7479 0.702976 15.2978C0.252868 14.8477 0 14.2372 0 13.6006V2.40011C0 1.76356 0.252868 1.15308 0.702976 0.702976C1.15308 0.252868 1.76356 0 2.40011 0H5.60026C6.04211 0 6.4003 0.358189 6.4003 0.800037C6.4003 1.24189 6.04211 1.60007 5.60026 1.60007H2.40011Z" fill="currentColor"/>
<path fill-rule="evenodd" clip-rule="evenodd" d="M11.7656 3.43415C11.4532 3.12172 10.9466 3.12172 10.6342 3.43415C10.3218 3.74659 10.3218 4.25314 10.6342 4.56558L13.2686 7.20001H5.59984C5.15799 7.20001 4.7998 7.5582 4.7998 8.00005C4.7998 8.4419 5.15799 8.80009 5.59984 8.80009H13.2687L10.6342 11.4345C10.3218 11.747 10.3218 12.2535 10.6342 12.5659C10.9466 12.8784 11.4532 12.8784 11.7656 12.5659L15.7559 8.57566C15.9066 8.43017 16.0003 8.22605 16.0003 8.00005C16.0003 7.77401 15.9066 7.56986 15.7558 7.42436L11.7656 3.43415Z" fill="currentColor"/>
</svg>
