<svg width="146" height="146" viewBox="0 0 146 146" fill="none" xmlns="http://www.w3.org/2000/svg">
<circle cx="73" cy="73" r="73" fill="url(#paint0_linear_596:2387)"/>
<path d="M90.5174 105.039C80.2867 105.039 71.9629 96.8168 71.9629 86.7117C71.9629 76.6065 80.2867 68.3848 90.5174 68.3848C100.748 68.3848 109.072 76.6065 109.072 86.7117C109.072 96.8168 100.748 105.039 90.5174 105.039ZM90.5174 71.2043C81.8624 71.2043 74.8174 78.16 74.8174 86.7117C74.8174 95.2633 81.8624 102.219 90.5174 102.219C99.1724 102.219 106.217 95.2633 106.217 86.7117C106.217 78.16 99.1724 71.2043 90.5174 71.2043Z" fill="#FF5252"/>
<path d="M84.4631 94.103C84.0978 94.103 83.7324 93.9648 83.4526 93.6914C82.896 93.1415 82.896 92.2478 83.4526 91.6979L95.5616 79.7375C96.1182 79.1877 97.0231 79.1877 97.5797 79.7375C98.1364 80.2874 98.1364 81.1811 97.5797 81.7309L85.4708 93.6914C85.1939 93.9648 84.8285 94.103 84.4631 94.103Z" fill="#FF5252"/>
<path d="M96.5721 94.103C96.2067 94.103 95.8413 93.9648 95.5616 93.6914L83.4526 81.7309C82.896 81.1811 82.896 80.2874 83.4526 79.7375C84.0093 79.1877 84.9142 79.1877 85.4708 79.7375L97.5797 91.6979C98.1364 92.2478 98.1364 93.1415 97.5797 93.6914C97.3028 93.9648 96.9375 94.103 96.5721 94.103Z" fill="#FF5252"/>
<path d="M67.6816 96.5805H47.6998C43.7634 96.5805 40.5635 93.417 40.5635 89.5317V52.8779C40.5635 48.9926 43.7634 45.8291 47.6998 45.8291H101.936C105.872 45.8291 109.072 48.9926 109.072 52.8779V69.7951C109.072 70.5732 108.433 71.2048 107.645 71.2048C106.857 71.2048 106.218 70.5732 106.218 69.7951V52.8779C106.218 50.5462 104.297 48.6486 101.936 48.6486H47.6998C45.3391 48.6486 43.418 50.5462 43.418 52.8779V89.5317C43.418 91.8635 45.3391 93.761 47.6998 93.761H67.6816C68.4694 93.761 69.1088 94.3926 69.1088 95.1708C69.1088 95.949 68.4694 96.5805 67.6816 96.5805Z" fill="#FF5252"/>
<path d="M61.9725 82.4829H41.9907C41.2029 82.4829 40.5635 81.8513 40.5635 81.0732V61.3365C40.5635 60.5583 41.2029 59.9268 41.9907 59.9268H61.9725C65.9089 59.9268 69.1089 63.0903 69.1089 66.9756V75.4341C69.1089 79.3194 65.9089 82.4829 61.9725 82.4829ZM43.418 79.6634H61.9725C64.3332 79.6634 66.2543 77.7659 66.2543 75.4341V66.9756C66.2543 64.6438 64.3332 62.7463 61.9725 62.7463H43.418V79.6634Z" fill="#FF5252"/>
<path d="M54.836 76.8445C51.6875 76.8445 49.127 74.3154 49.127 71.2055C49.127 68.0955 51.6875 65.5664 54.836 65.5664C57.9846 65.5664 60.5451 68.0955 60.5451 71.2055C60.5451 74.3154 57.9846 76.8445 54.836 76.8445ZM54.836 68.3859C53.2603 68.3859 51.9815 69.6519 51.9815 71.2055C51.9815 72.759 53.2603 74.025 54.836 74.025C56.4117 74.025 57.6906 72.759 57.6906 71.2055C57.6906 69.6519 56.4117 68.3859 54.836 68.3859Z" fill="#FF5252"/>
<defs>
<linearGradient id="paint0_linear_596:2387" x1="73" y1="0" x2="73" y2="146" gradientUnits="userSpaceOnUse">
<stop stop-color="#EB2828" stop-opacity="0.2"/>
<stop offset="1" stop-color="#EB2828" stop-opacity="0"/>
</linearGradient>
</defs>
</svg>
