<svg width="26" height="24" viewBox="0 0 26 24" fill="none" xmlns="http://www.w3.org/2000/svg">
  <path fill-rule="evenodd" clip-rule="evenodd" d="M6.03855 18.5687H11.5365C11.7532 18.5687 11.9292 18.3927 11.9292 18.1759C11.9292 17.9592 11.7532 17.7832 11.5365 17.7832H6.03855C5.38901 17.7832 4.86043 17.2546 4.86043 16.6051V14.6417H9.96564C11.0487 14.6417 11.9292 13.7605 11.9292 12.6782V10.3219C11.9292 9.23963 11.0487 8.3584 9.96564 8.3584H4.86043V6.39469C4.86043 5.74515 5.38901 5.21657 6.03855 5.21657H20.9615C21.611 5.21657 22.1396 5.74515 22.1396 6.39469V11.1072C22.1396 11.324 22.3155 11.4999 22.5323 11.4999C22.7491 11.4999 22.925 11.324 22.925 11.1072V6.39469C22.925 5.31239 22.0446 4.43115 20.9615 4.43115H6.03855C4.95546 4.43115 4.07501 5.31239 4.07501 6.39469V8.75111V14.249V16.6051C4.07501 17.6874 4.95546 18.5687 6.03855 18.5687ZM12.7145 15.8196C12.7145 18.6345 15.0048 20.9248 17.8198 20.9248C20.6347 20.9248 22.925 18.6345 22.925 15.8196C22.925 13.0046 20.6347 10.7144 17.8198 10.7144C15.0048 10.7144 12.7145 13.0046 12.7145 15.8196ZM13.5 15.8196C13.5 13.4374 15.4384 11.4998 17.8198 11.4998C20.2011 11.4998 22.1395 13.4374 22.1395 15.8196C22.1395 18.2017 20.2011 20.1393 17.8198 20.1393C15.4384 20.1393 13.5 18.2017 13.5 15.8196ZM15.8759 17.7636C15.9529 17.8398 16.0534 17.8783 16.154 17.8783C16.2545 17.8783 16.355 17.8398 16.4312 17.7636L17.8194 16.3754L19.2077 17.7636C19.2846 17.8398 19.3852 17.8783 19.4857 17.8783C19.5862 17.8783 19.6868 17.8398 19.7629 17.7636C19.9161 17.6104 19.9161 17.3615 19.7629 17.2083L18.3747 15.8201L19.7629 14.4319C19.9161 14.2787 19.9161 14.0297 19.7629 13.8766C19.6098 13.7234 19.3608 13.7234 19.2077 13.8766L17.8194 15.2648L16.4312 13.8766C16.278 13.7234 16.0291 13.7234 15.8759 13.8766C15.7228 14.0297 15.7228 14.2787 15.8759 14.4319L17.2641 15.8201L15.8759 17.2083C15.7228 17.3615 15.7228 17.6104 15.8759 17.7636ZM4.86043 13.8563H9.96564C10.6152 13.8563 11.1438 13.3277 11.1438 12.6782V10.3219C11.1438 9.6724 10.6152 9.14381 9.96564 9.14381H4.86043V13.8563ZM6.43127 11.5C6.43127 12.3663 7.13579 13.0709 8.00211 13.0709C8.86842 13.0709 9.57294 12.3663 9.57294 11.5C9.57294 10.6337 8.86842 9.9292 8.00211 9.9292C7.13579 9.9292 6.43127 10.6337 6.43127 11.5ZM7.21669 11.5C7.21669 11.0673 7.56856 10.7146 8.00211 10.7146C8.43566 10.7146 8.78752 11.0673 8.78752 11.5C8.78752 11.9328 8.43566 12.2854 8.00211 12.2854C7.56856 12.2854 7.21669 11.9328 7.21669 11.5Z" fill="#EA2525" />
</svg>
