<svg width="13" height="13" viewBox="0 0 13 13" fill="none" xmlns="http://www.w3.org/2000/svg">
<path fill-rule="evenodd" clip-rule="evenodd" d="M12.35 0H8.45C8.09101 0 7.8 0.291015 7.8 0.65C7.8 1.00899 8.09101 1.3 8.45 1.3H10.7808L4.74038 7.34038C4.48654 7.59422 4.48654 8.00578 4.74038 8.25962C4.99422 8.51346 5.40578 8.51346 5.65962 8.25962L11.7 2.21924V4.55C11.7 4.90898 11.991 5.2 12.35 5.2C12.709 5.2 13 4.90898 13 4.55V0.650637C13 0.648424 13 0.646212 13 0.643999C13 0.645997 13 0.647998 13 0.65M1.95 3.25C1.77761 3.25 1.61228 3.31848 1.49038 3.44038C1.36848 3.56228 1.3 3.72761 1.3 3.9V11.05C1.3 11.2224 1.36848 11.3877 1.49038 11.5096C1.61228 11.6315 1.77761 11.7 1.95 11.7H9.1C9.27239 11.7 9.43772 11.6315 9.55962 11.5096C9.68152 11.3877 9.75 11.2224 9.75 11.05V7.15C9.75 6.79102 10.041 6.5 10.4 6.5C10.759 6.5 11.05 6.79102 11.05 7.15V11.05C11.05 11.5672 10.8446 12.0632 10.4789 12.4289C10.1132 12.7946 9.61717 13 9.1 13H1.95C1.43283 13 0.936837 12.7946 0.571142 12.4289C0.205446 12.0632 0 11.5672 0 11.05V3.9C0 3.38283 0.205446 2.88684 0.571142 2.52114C0.936838 2.15545 1.43283 1.95 1.95 1.95H5.85C6.20899 1.95 6.5 2.24101 6.5 2.6C6.5 2.95898 6.20899 3.25 5.85 3.25H1.95Z" fill="white"/>
</svg>
