<svg width="134" height="137" viewBox="0 0 134 137" fill="none" xmlns="http://www.w3.org/2000/svg">
<g clip-path="url(#clip0)">
<path fill-rule="evenodd" clip-rule="evenodd" d="M124.569 78.2221C125.501 86.9299 121.51 94.42 113.654 98.121C93.6699 107.552 102.382 111.268 91.4372 122.871C74.4392 140.877 64.933 112.064 45.2226 120.812C33.1446 126.175 9.50362 118.274 16.016 100.24C23.4476 79.6835 12.2588 76.8712 12.628 59.6615C13.0449 39.6672 26.8507 38.4142 35.4 33.7239C44.4716 28.7472 44.9789 11.8463 59.7869 10.1515C71.5308 8.81317 73.0453 22.927 98.271 17.9755C112.303 15.226 126.064 29.7566 122.193 43.3256C116.183 64.4146 123.092 64.4573 124.569 78.2221Z" fill="#2B418C"/>
<path d="M97.829 8.94378C96.538 8.9488 95.3727 9.48111 94.5188 10.3223C93.6448 11.171 93.1098 12.3486 93.1048 13.6492C93.1023 14.4226 92.4694 15.0453 91.6883 15.0428C90.9072 15.0403 90.2693 14.4125 90.2718 13.6392C90.2768 12.341 89.7494 11.1584 88.8804 10.3047C88.0215 9.43843 86.8335 8.90863 85.52 8.90612C84.7389 8.90361 84.1085 8.27588 84.111 7.50252C84.1135 6.72916 84.7489 6.09642 85.5275 6.09893C86.8385 6.10395 88.034 5.58168 88.898 4.72295C89.772 3.87175 90.3069 2.69414 90.312 1.396C90.3145 0.622642 90.9574 -6.19316e-05 91.7385 0.00244897C92.5196 0.00495988 93.1475 0.632686 93.145 1.40604C93.1399 2.70418 93.6674 3.88682 94.5363 4.74304C95.3852 5.58921 96.5456 6.12655 97.8365 6.14161C97.8566 6.14161 97.8767 6.14161 97.8968 6.14161C98.6779 6.14412 99.3057 6.77938 99.3032 7.55274C99.3007 8.3261 98.6678 8.9488 97.8867 8.94629C97.8691 8.94378 97.849 8.94378 97.829 8.94378Z" fill="#374D9A"/>
<path d="M114.199 114.603C113.307 114.61 112.486 114.974 111.893 115.557C111.291 116.159 110.906 116.98 110.904 117.884C110.901 118.419 110.459 118.854 109.919 118.851C109.379 118.851 108.94 118.412 108.942 117.877C108.945 116.975 108.568 116.149 107.968 115.544C107.37 114.947 106.529 114.578 105.617 114.575C105.077 114.573 104.638 114.136 104.64 113.591C104.643 113.056 105.085 112.619 105.625 112.622C106.536 112.624 107.38 112.25 107.983 111.657C108.586 111.065 108.97 110.244 108.973 109.33C108.973 108.795 109.415 108.361 109.957 108.363C110.5 108.366 110.937 108.802 110.937 109.337C110.934 110.249 111.311 111.075 111.908 111.67C112.499 112.257 113.317 112.637 114.209 112.649C114.229 112.649 114.239 112.649 114.259 112.649C114.799 112.652 115.239 113.089 115.239 113.623C115.236 114.168 114.794 114.603 114.254 114.6C114.229 114.603 114.219 114.603 114.199 114.603Z" fill="#374D9A"/>
<path d="M33.4836 25.0335C32.582 25.0411 31.7707 25.4052 31.1655 25.9877C30.5627 26.5903 30.1885 27.4114 30.186 28.3153C30.1835 28.8501 29.7414 29.2845 29.1914 29.2845C28.6489 29.282 28.2119 28.8451 28.2144 28.3103C28.2169 27.4064 27.8402 26.5828 27.24 25.9776C26.6397 25.38 25.8109 25.0109 24.8992 25.0084C24.3492 25.0059 23.9097 24.569 23.9097 24.0242C23.9122 23.4893 24.3542 23.055 24.9042 23.055C25.8159 23.0575 26.6472 22.6833 27.25 22.0908C27.8528 21.4982 28.237 20.6771 28.2395 19.7732C28.2421 19.2283 28.6841 18.7939 29.2241 18.7939C29.7741 18.7965 30.2136 19.2334 30.2136 19.7782C30.2111 20.6796 30.5778 21.5032 31.178 22.1008C31.7783 22.6884 32.587 23.0675 33.4886 23.0801C33.4987 23.0801 33.5188 23.0801 33.5288 23.0801C34.0688 23.0826 34.5184 23.5195 34.5184 24.0568C34.5158 24.6017 34.0638 25.0361 33.5238 25.0335C33.5137 25.0361 33.4937 25.0335 33.4836 25.0335Z" fill="#374D9A"/>
<path d="M11.4826 89.1345C10.4002 89.1496 9.42822 89.584 8.71494 90.2845C7.98158 91.0052 7.52699 91.9844 7.52448 93.0767C7.52197 93.722 6.99957 94.2442 6.33904 94.2417C5.68856 94.2392 5.15862 93.7119 5.16114 93.0691C5.16365 91.9794 4.71659 90.9951 3.9983 90.2695C3.28 89.5539 2.28041 89.1044 1.1879 89.0994C0.527368 89.0969 -0.00256367 88.5696 -5.21448e-05 87.9268C0.00245938 87.2815 0.534903 86.7592 1.19543 86.7617C2.28795 86.7642 3.29005 86.3223 4.01337 85.6117C4.73669 84.8911 5.19127 83.9093 5.19379 82.8196C5.1963 82.1768 5.72874 81.652 6.37923 81.6545C7.03976 81.6571 7.55964 82.1843 7.55713 82.8297C7.55462 83.9194 8.00167 84.9037 8.73001 85.6293C9.43826 86.3349 10.4077 86.7743 11.4902 86.7994C11.5103 86.7994 11.5203 86.7994 11.5404 86.7994C12.1909 86.8019 12.7208 87.3292 12.7183 87.972C12.7158 88.6173 12.1834 89.1396 11.5329 89.1371C11.5153 89.1345 11.5053 89.1345 11.4826 89.1345Z" fill="#374D9A"/>
<path d="M64.7446 131.556C63.5918 131.571 62.5495 132.036 61.786 132.787C61.0124 133.547 60.5377 134.597 60.5352 135.757C60.5327 136.453 59.9601 137.005 59.2694 137.003C58.5687 137 58.0086 136.443 58.0111 135.75C58.0162 134.59 57.539 133.537 56.7705 132.772C56.0019 132.006 54.932 131.526 53.7692 131.521C53.0685 131.519 52.5084 130.961 52.5109 130.268C52.5134 129.585 53.076 129.02 53.7767 129.023C54.937 129.028 56.012 128.553 56.7855 127.792C57.5591 127.032 58.0438 125.982 58.0488 124.822C58.0513 124.137 58.6139 123.574 59.3146 123.577C60.0053 123.579 60.5754 124.147 60.5729 124.83C60.5679 125.99 61.0375 127.042 61.8061 127.808C62.5645 128.563 63.6043 129.043 64.7571 129.058C64.7772 129.058 64.7973 129.058 64.8174 129.058C65.5081 129.06 66.0782 129.618 66.0757 130.311C66.0731 131.004 65.5005 131.559 64.8098 131.556C64.7847 131.556 64.7646 131.556 64.7446 131.556Z" fill="#374D9A"/>
<path d="M133.096 53.1181C132.325 53.1256 131.612 53.4395 131.089 53.9542C130.567 54.469 130.245 55.1796 130.24 55.963C130.24 56.44 129.846 56.8142 129.376 56.8142C128.904 56.8117 128.527 56.435 128.527 55.9579C128.53 55.1745 128.201 54.4589 127.683 53.9417C127.154 53.4144 126.435 53.0955 125.644 53.093C125.174 53.0905 124.783 52.7139 124.785 52.2368C124.785 51.7698 125.179 51.3956 125.649 51.3981C126.44 51.4007 127.164 51.0767 127.696 50.562C128.218 50.0473 128.55 49.3266 128.555 48.5432C128.555 48.0762 128.937 47.7021 129.409 47.7046C129.879 47.7071 130.27 48.0837 130.268 48.5508C130.265 49.3342 130.584 50.0598 131.102 50.5771C131.622 51.0843 132.33 51.4132 133.101 51.4283C133.121 51.4283 133.131 51.4283 133.141 51.4283C133.621 51.4308 134 51.8074 134 52.2744C133.997 52.749 133.616 53.1256 133.136 53.1231C133.126 53.1181 133.116 53.1181 133.096 53.1181Z" fill="#374D9A"/>
<path d="M59.4628 44.2925H46.4933C45.5716 44.2925 44.8231 45.0407 44.8231 45.9622V90.9828C44.8231 91.9043 45.5716 92.6525 46.4933 92.6525H59.4628C60.3845 92.6525 61.133 91.9043 61.133 90.9828V45.9622C61.133 45.0407 60.382 44.2925 59.4628 44.2925Z" fill="#465DAE"/>
<path d="M87.5165 44.2925H74.5495C73.6278 44.2925 72.8793 45.0407 72.8793 45.9622V90.9828C72.8793 91.9043 73.6278 92.6525 74.5495 92.6525H87.5165C88.4382 92.6525 89.1867 91.9043 89.1867 90.9828V45.9622C89.1867 45.0407 88.4382 44.2925 87.5165 44.2925Z" fill="#465DAE"/>
</g>
<defs>
<clipPath id="clip0">
<rect width="134" height="137" fill="white"/>
</clipPath>
</defs>
</svg>
