<svg width="50" height="50" viewBox="0 0 50 50" fill="none" xmlns="http://www.w3.org/2000/svg">
<path d="M0.31 30.41L8.85 35.29C9.04 35.4 9.27 35.4 9.45 35.29L15.38 31.9C15.67 31.73 15.77 31.36 15.61 31.07C15.44 30.78 15.07 30.67 14.78 30.84L9.76 33.7V25.35L17.08 21.17V27.24C17.08 27.58 17.35 27.85 17.69 27.85C18.03 27.85 18.3 27.58 18.3 27.24V20.12C18.3 19.9 18.18 19.7 17.99 19.59L14.39 17.53L21.06 13.32C21.34 13.14 21.43 12.76 21.25 12.48C21.07 12.19 20.69 12.11 20.41 12.29L13.19 16.85L9.46 14.72C9.27 14.61 9.04 14.61 8.86 14.72L0.31 19.59C0.12 19.7 0 19.9 0 20.12V29.88C0 30.1 0.12 30.3 0.31 30.41ZM9.15 15.95L16.46 20.13L9.15 24.3L1.84 20.12L9.15 15.95ZM1.22 21.17L8.54 25.35V33.7L1.22 29.52V21.17Z" fill="white"/>
<path d="M33.54 13.22C33.88 13.22 34.15 12.95 34.15 12.61V5.49C34.15 5.27 34.03 5.07 33.84 4.96L25.3 0.0799976C25.11 -0.0300024 24.88 -0.0300024 24.7 0.0799976L16.16 4.96C15.97 5.07 15.85 5.27 15.85 5.49V12.61C15.85 12.95 16.12 13.22 16.46 13.22C16.8 13.22 17.07 12.95 17.07 12.61V6.54L24.39 10.72V19.07L19.38 16.2C19.09 16.03 18.72 16.13 18.55 16.43C18.38 16.72 18.48 17.09 18.78 17.26L24.71 20.65C24.9 20.76 25.13 20.76 25.31 20.65L31.24 17.26C31.53 17.09 31.63 16.72 31.47 16.43C31.3 16.14 30.93 16.03 30.64 16.2L25.63 19.07V10.72L32.95 6.54V12.61C32.93 12.95 33.2 13.22 33.54 13.22ZM25 9.66L17.69 5.48L25 1.31L32.31 5.49L25 9.66Z" fill="white"/>
<path d="M37.1 27.11C36.92 26.83 36.55 26.74 36.26 26.92L29.04 31.48L25.3 29.35C25.11 29.24 24.88 29.24 24.7 29.35L20.97 31.48L13.75 26.92C13.47 26.74 13.09 26.82 12.91 27.11C12.73 27.39 12.82 27.77 13.1 27.95L19.78 32.16L16.18 34.22C15.99 34.33 15.87 34.53 15.87 34.75V44.51C15.87 44.73 15.99 44.93 16.18 45.04L24.72 49.92C24.91 50.03 25.14 50.03 25.32 49.92L33.86 45.04C34.05 44.93 34.17 44.73 34.17 44.51V34.75C34.17 34.53 34.05 34.33 33.86 34.22L30.26 32.16L36.94 27.95C37.2 27.78 37.28 27.4 37.1 27.11ZM24.39 48.34L17.07 44.16V35.81L24.39 39.99V48.34ZM32.93 44.16L25.61 48.34V39.99L32.93 35.81V44.16ZM32.31 34.76L25 38.93L17.69 34.76L25 30.58L32.31 34.76Z" fill="white"/>
<path d="M49.69 19.59L41.15 14.71C40.96 14.6 40.73 14.6 40.55 14.71L36.82 16.84L29.6 12.28C29.31 12.1 28.94 12.18 28.76 12.47C28.58 12.75 28.66 13.13 28.95 13.31L35.62 17.52L32.02 19.58C31.83 19.69 31.71 19.89 31.71 20.11V27.23C31.71 27.57 31.98 27.84 32.32 27.84C32.66 27.84 32.93 27.57 32.93 27.23V21.16L40.25 25.34V33.7L35.24 30.83C34.94 30.66 34.58 30.76 34.41 31.06C34.24 31.35 34.34 31.72 34.64 31.89L40.57 35.28C40.76 35.39 40.99 35.39 41.17 35.28L49.71 30.4C49.9 30.29 50.02 30.09 50.02 29.87V20.11C50 19.9 49.88 19.7 49.69 19.59ZM40.85 24.3L33.54 20.12L40.85 15.94L48.16 20.12L40.85 24.3ZM48.78 29.52L41.46 33.7V25.35L48.78 21.17V29.52Z" fill="white"/>
</svg>