<svg width="233" height="136" viewBox="0 0 233 136" fill="none" xmlns="http://www.w3.org/2000/svg">
<path d="M51.4728 14.0436C79.2341 1.90314 107.443 12.6343 126.579 36.0176C145.714 59.4009 185.87 19.8776 207.17 43.2216C221.702 59.1569 215.048 100.113 195.117 117.859C168.03 141.975 85.6483 129.74 67.8289 125.638C47.2969 120.906 32.2904 106.561 26.1902 89.1537C11.4977 47.1975 39.2056 19.4052 51.4728 14.0436Z" fill="#1E3886"/>
<g clip-path="url(#clip0_596:2270)">
<path d="M77.2265 107.025H161.734C163.788 107.025 165.457 108.693 165.459 110.754C165.458 112.811 163.791 114.478 161.732 114.478H77.2265C75.1676 114.478 73.5 112.81 73.5 110.754C73.5 108.693 75.1679 107.025 77.2265 107.025Z" fill="#3377FF" stroke="#3377FF"/>
<path d="M83.4267 95.5375C81.0918 95.5375 79.2002 97.4291 79.2002 99.764C79.2002 102.099 81.0918 103.992 83.4267 103.992H157.37C159.705 103.992 161.597 102.099 161.597 99.764C161.597 97.4291 159.705 95.5375 157.37 95.5375H156.315V57.5072H157.37C158.54 57.5072 159.481 56.5614 159.481 55.3959C159.481 54.2305 158.536 53.2847 157.37 53.2847H83.4267C82.2592 53.2847 81.3154 54.2305 81.3154 55.3959C81.3154 56.5614 82.2612 57.5072 83.4267 57.5072H84.4833V95.5355H83.4267V95.5375ZM147.863 57.5072V95.5355H135.187V57.5072H147.863ZM126.734 57.5072V95.5355H114.059V57.5072H126.734ZM92.9323 57.5072H105.608V95.5355H92.9323V57.5072Z" fill="#3377FF"/>
<path d="M162.961 41.7266L162.94 41.7172L121.012 22.8506L162.961 41.7266ZM162.961 41.7266L162.983 41.7341M162.961 41.7266L162.983 41.7341M162.983 41.7341C164.447 42.2369 165.5 43.6246 165.5 45.2601C165.5 47.319 163.834 48.9866 161.774 48.9866H161.774H161.774H161.774H161.773H161.773H161.773H161.773H161.773H161.773H161.773H161.773H161.773H161.773H161.773H161.773H161.773H161.773H161.772H161.772H161.772H161.772H161.772H161.772H161.772H161.772H161.772H161.772H161.772H161.772H161.772H161.772H161.771H161.771H161.771H161.771H161.771H161.771H161.771H161.771H161.771H161.771H161.771H161.771H161.771H161.771H161.77H161.77H161.77H161.77H161.77H161.77H161.77H161.77H161.77H161.77H161.77H161.77H161.77H161.769H161.769H161.769H161.769H161.769H161.769H161.769H161.769H161.769H161.769H161.769H161.769H161.769H161.769H161.768H161.768H161.768H161.768H161.768H161.768H161.768H161.768H161.768H161.768H161.768H161.768H161.768H161.767H161.767H161.767H161.767H161.767H161.767H161.767H161.767H161.767H161.767H161.767H161.767H161.767H161.766H161.766H161.766H161.766H161.766H161.766H161.766H161.766H161.766H161.766H161.766H161.766H161.766H161.765H161.765H161.765H161.765H161.765H161.765H161.765H161.765H161.765H161.765H161.765H161.765H161.765H161.764H161.764H161.764H161.764H161.764H161.764H161.764H161.764H161.764H161.764H161.764H161.764H161.763H161.763H161.763H161.763H161.763H161.763H161.763H161.763H161.763H161.763H161.763H161.763H161.763H161.762H161.762H161.762H161.762H161.762H161.762H161.762H161.762H161.762H161.762H161.762H161.762H161.761H161.761H161.761H161.761H161.761H161.761H161.761H161.761H161.761H161.761H161.761H161.761H161.76H161.76H161.76H161.76H161.76H161.76H161.76H161.76H161.76H161.76H161.76H161.76H161.76H161.759H161.759H161.759H161.759H161.759H161.759H161.759H161.759H161.759H161.759H161.759H161.759H161.758H161.758H161.758H161.758H161.758H161.758H161.758H161.758H161.758H161.758H161.758H161.758H161.757H161.757H161.757H161.757H161.757H161.757H161.757H161.757H161.757H161.757H161.757H161.757H161.756H161.756H161.756H161.756H161.756H161.756H161.756H161.756H161.756H161.756H161.756H161.756H161.755H161.755H161.755H161.755H161.755H161.755H161.755H161.755H161.755H161.755H161.755H161.755H161.754H161.754H161.754H161.754H161.754H161.754H161.754H161.754H161.754H161.754H161.754H161.754H161.753H161.753H161.753H161.753H161.753H161.753H161.753H161.753H161.753H161.753H161.753H161.753H161.752H161.752H161.752H161.752H161.752H161.752H161.752H161.752H161.752H161.752H161.752H161.752H161.751H161.751H161.751H161.751H161.751H161.751H161.751H161.751H161.751H161.751H161.751H161.751H161.75H161.75H161.75H161.75H161.75H161.75H161.75H161.75H161.75H161.75H161.75H161.749H161.749H161.749H161.749H161.749H161.749H161.749H161.749H161.749H161.749H161.749H161.749H161.748H161.748H161.748H161.748H161.748H161.748H161.748H161.748H161.748H161.748H161.748H161.748H161.747H161.747H161.747H161.747H161.747H161.747H161.747H161.747H161.747H161.747H161.747H161.747H161.746H161.746H161.746H161.746H161.746H161.746H161.746H161.746H161.746H161.746H161.746H161.745H161.745H161.745H161.745H161.745H161.745H161.745H161.745H161.745H161.745H161.745H161.745H161.744H161.744H161.744H161.744H161.744H161.744H161.744H161.744H161.744H161.744H161.744H161.744H161.743H161.743H161.743H161.743H161.743H161.743H161.743H161.743H161.743H161.743H161.743H161.743H161.742H161.742H161.742H161.742H161.742H161.742H161.742H161.742H161.742H161.742H161.742H161.742H161.741H161.741H161.741H161.741H161.741H161.741H161.741H161.741H161.741H161.741H161.741H161.74H161.74H161.74H161.74H161.74H161.74H161.74H161.74H161.74H161.74H161.74H161.74H161.739H161.739H161.739H161.739H161.739H161.739H161.739H161.739H161.739H161.739H161.739H161.739H161.738H161.738H161.738H161.738H161.738H161.738H161.738H161.738H161.738H161.738H161.738H161.738H161.737H161.737H161.737H161.737H161.737H161.737H161.737H161.737H161.737H161.737H161.737H161.737H161.736H161.736H161.736H161.736H161.736H161.736H161.736H161.736H161.736H161.736H161.736H161.736H161.735H161.735H161.735H161.735H161.735H161.735H161.735H161.735H161.735H161.735H161.735H161.735H161.734H161.734H161.734H161.734H161.734H161.734H161.734H161.734H161.734H161.734H161.734H161.734H161.733H161.733H161.733H161.733H161.733H161.733H161.733H161.733H161.733H161.733H161.733H161.733H161.733H161.732H161.732H161.732H161.732H77.2265C75.4696 48.9866 73.952 47.7601 73.5839 46.0437L73.5838 46.0432M162.983 41.7341L73.5838 46.0432M73.5838 46.0432C73.2142 44.3273 74.0945 42.5862 75.6984 41.8636C75.6985 41.8636 75.6985 41.8635 75.6986 41.8635L117.954 22.8507C117.955 22.8506 117.955 22.8505 117.955 22.8504M73.5838 46.0432L117.955 22.8504M117.955 22.8504C118.929 22.4144 120.04 22.4145 121.011 22.8504L117.955 22.8504Z" fill="#3377FF" stroke="#3377FF"/>
<path d="M126.602 34.2805C125.964 33.5333 125.101 33.1601 124.014 33.1601C123.376 33.1601 122.809 33.2965 122.316 33.5686C121.832 33.836 121.445 34.184 121.156 34.6137V33.247H121.14H117.845H117.844V38.476C117.844 39.0323 117.704 39.4692 117.424 39.788C117.144 40.1068 116.763 40.2659 116.281 40.2659C115.811 40.2659 115.433 40.1068 115.147 39.788C114.861 39.4692 114.718 39.0323 114.718 38.476V33.247H111.44V38.9107C111.44 40.1959 111.757 41.2124 112.39 41.9596C113.023 42.7061 113.889 43.0801 114.987 43.0801C115.625 43.0801 116.192 42.9437 116.685 42.6715C117.177 42.4 117.564 42.0438 117.844 41.6034V42.9931H117.845H121.14H121.156V37.4556C121.199 37.0437 121.334 36.7094 121.56 36.4521C121.84 36.134 122.227 35.9742 122.72 35.9742C123.19 35.9742 123.566 36.134 123.846 36.4521C124.126 36.7709 124.266 37.2078 124.266 37.7641V42.9931H127.56V37.3124C127.56 36.0386 127.241 35.0277 126.602 34.2805Z" fill="white"/>
<path d="M161.475 28.9014H162.336C162.336 26.9803 163.904 25.369 165.841 25.369V24.5324C163.935 24.5324 162.336 22.9521 162.336 21H161.506C161.506 22.9211 159.937 24.5324 158 24.5324V25.369C159.907 25.369 161.475 26.9493 161.475 28.9014Z" fill="#1E3886"/>
</g>
<path d="M116.204 14H117.741C117.741 10.5961 120.541 7.74119 124 7.74119V6.25883C120.596 6.25883 117.741 3.45883 117.741 0H116.259C116.259 3.40393 113.459 6.25883 110 6.25883V7.74119C113.404 7.74119 116.204 10.5412 116.204 14Z" fill="#1E3886"/>
<path d="M193.475 53.9014H194.336C194.336 51.9803 195.904 50.369 197.841 50.369V49.5324C195.935 49.5324 194.336 47.9521 194.336 46H193.506C193.506 47.9211 191.937 49.5324 190 49.5324V50.369C191.907 50.369 193.475 51.9493 193.475 53.9014Z" fill="#13296B"/>
<path d="M63.4748 103.901H64.3358C64.3358 101.98 65.9041 100.369 67.8413 100.369V99.5324C65.9348 99.5324 64.3358 97.9521 64.3358 96H63.5055C63.5055 97.9211 61.9373 99.5324 60 99.5324V100.369C61.9065 100.369 63.4748 101.949 63.4748 103.901Z" fill="#13296B"/>
<path d="M45.2119 89.9043C53.4396 87.3 57.9132 78.3162 55.2038 69.8384C52.4945 61.3606 43.6283 56.5992 35.4005 59.2035C27.1728 61.8078 22.6993 70.7916 25.4086 79.2693C28.1179 87.7471 36.9842 92.5085 45.2119 89.9043Z" fill="#3255BF"/>
<path fill-rule="evenodd" clip-rule="evenodd" d="M41.9612 75.8437L41.9623 75.8425C41.8951 75.7845 41.5528 75.4814 40.8327 74.7614C40.2578 74.1865 39.8704 73.7644 39.735 73.6152L39.7333 73.617C37.6188 71.3053 36.3573 69.2631 36.8244 68.7961C37.2908 68.3296 39.333 69.5911 41.6464 71.7038L40.1219 73.2283C40.2561 73.3833 40.6457 73.8225 41.2183 74.3951C41.9054 75.0821 42.2786 75.3977 42.3487 75.4562L43.8726 73.9323C45.9814 76.2406 47.2389 78.2788 46.773 78.7447C46.3059 79.2117 44.2689 77.953 41.9612 75.8437ZM44.0311 73.7737L45.3954 72.4095L48.477 75.4912L50.5574 73.4109L42.1667 65.0202L40.0864 67.1005L43.168 70.1822L41.8044 71.5459C39.1834 69.1578 36.7971 67.7771 36.1952 68.379C35.5932 68.981 36.9745 71.3667 39.362 73.9883L34.9903 78.36L37.2176 80.5873L41.5904 76.2144C44.2074 78.5985 46.5886 79.9752 47.19 79.3739C47.7914 78.7725 46.4146 76.3913 44.0311 73.7737Z" fill="white"/>
<path d="M34.4764 74.1674C40.2773 67.804 39.6132 57.8 32.9932 51.8228C26.3732 45.8456 16.3042 46.1586 10.5033 52.522C4.7025 58.8854 5.36657 68.8894 11.9866 74.8666C18.6066 80.8438 28.6756 80.5307 34.4764 74.1674Z" fill="#3255BF"/>
<path d="M17.4005 54.358L17.061 63.6032L20.2129 59.3431L17.4005 54.358Z" fill="white"/>
<path d="M35.1483 85.5321C40.9492 79.1687 40.2851 69.1647 33.6651 63.1875C27.0451 57.2103 16.976 57.5234 11.1752 63.8868C5.37438 70.2502 6.03844 80.2542 12.6584 86.2314C19.2784 92.2085 29.3475 91.8955 35.1483 85.5321Z" fill="#3377FF"/>
<path d="M31.7241 68.9571L29.8789 69.5331C27.9452 66.9102 24.5844 65.747 20.9821 66.8716L15.0577 68.7209L16.6048 73.6769L14.5471 74.3192L15.1021 76.0973L17.1598 75.4549L17.7419 77.3195L15.6842 77.9618L16.2392 79.7399L18.2969 79.0976L19.8254 83.9941L25.7498 82.1447C29.3107 81.0331 31.3973 78.1872 31.5348 74.9652L33.4163 74.3778L32.8612 72.5997L31.3944 73.0576C31.3328 72.7329 31.2524 72.4021 31.1511 72.0779L31.1376 72.0346C31.0465 71.7428 30.9415 71.4612 30.8279 71.1882L32.2844 70.7336L31.7293 68.9555L31.7241 68.9571ZM17.2107 69.7867L21.4764 68.4551C24.1198 67.6299 26.5077 68.3732 28.0424 70.1005L18.2617 73.1537L17.2107 69.7867ZM25.2504 80.5449L20.9847 81.8765L19.9539 78.5744L29.7242 75.5245C29.4294 77.7873 27.8835 79.723 25.2504 80.5449ZM29.4473 72.6512C29.5451 72.9647 29.6206 73.2792 29.6719 73.5894L19.3988 76.7963L18.8168 74.9318L29.0951 71.7233C29.2224 72.0038 29.3376 72.3 29.4338 72.608L29.4473 72.6512Z" fill="white"/>
<path d="M63.333 72L72.6664 72" stroke="#3377FF" stroke-width="2" stroke-linecap="round" stroke-linejoin="round"/>
<path d="M68 67.3332L72.6667 71.9998L68 76.6665" stroke="#3377FF" stroke-width="2" stroke-linecap="round" stroke-linejoin="round"/>
<path d="M167.334 72L176.667 72" stroke="#3377FF" stroke-width="2" stroke-linecap="round" stroke-linejoin="round"/>
<path d="M172.001 67.3332L176.668 71.9998L172.001 76.6665" stroke="#3377FF" stroke-width="2" stroke-linecap="round" stroke-linejoin="round"/>
<path d="M163.964 125.008C116.856 133.897 71.4295 120.731 85.7092 121.026C104.525 121.414 115.785 125.591 163.964 125.008Z" fill="#13296B"/>
<path d="M33.2138 45.7259C34.8266 28.0716 52.4766 15.5791 49.7745 20.3075C46.2141 26.5378 41.1625 29.444 33.2138 45.7259Z" fill="#13296B"/>
<path d="M67.4597 25H68.5403C68.5403 22.5442 70.5442 20.5403 73 20.5403V19.4597C70.5442 19.4597 68.5403 17.4558 68.5403 15H67.4597C67.4597 17.4558 65.4558 19.4597 63 19.4597V20.5403C65.4558 20.5403 67.4597 22.5442 67.4597 25Z" fill="#13296B"/>
<rect x="184.25" y="60" width="46.2501" height="24" rx="12" fill="#00D395"/>
<rect x="208.496" y="62.0688" width="20" height="19.8621" rx="9.93105" fill="white"/>
<defs>
<clipPath id="clip0_596:2270">
<rect width="93.0001" height="93.0001" fill="white" transform="translate(73 22)"/>
</clipPath>
</defs>
</svg>
