<svg width="71" height="67" viewBox="0 0 71 67" fill="none" xmlns="http://www.w3.org/2000/svg">
<path fill-rule="evenodd" clip-rule="evenodd" d="M64.7108 52.9019C68.1122 51.9783 70.2503 49.8731 71 46.464L70.639 5.2834C69.4589 2.13237 66.4046 0.013582 62.9615 0.013582C44.7186 0.013582 26.4619 0.013582 8.20512 0C4.1928 0 0.944075 2.66207 0.124951 6.51936C0.107765 6.5698 0.079941 6.61503 0.0513558 6.66151C0.0337576 6.69012 0.0158709 6.7192 0 6.75025V46.2739C0.0209601 46.3436 0.043186 46.4133 0.0655311 46.4834L0.0655372 46.4834C0.117194 46.6454 0.169488 46.8095 0.208252 46.9801C1.12456 50.5386 4.40106 53.0513 8.17736 53.0513H33.237H34.0145V64.0799H33.237C31.6332 64.0853 30.0315 64.0864 28.4312 64.0875H28.4302H28.4292C26.0268 64.0891 23.6273 64.0907 21.2278 64.107C20.7697 64.107 20.2282 64.2564 19.895 64.5281C19.0203 65.2208 19.3813 66.5925 20.4503 66.9049C20.728 66.9864 21.0473 67 21.3389 67H49.7167C49.9804 67 50.2304 67 50.4803 66.9457C51.1744 66.7963 51.6187 66.2666 51.6465 65.6011C51.6742 64.9084 51.2438 64.3243 50.5358 64.1614C50.2581 64.0935 49.9388 64.0935 49.6472 64.0935H37.8463H37.0966V53.0513H37.8602C45.0796 53.0513 52.299 53.0513 59.5184 53.0377C60.0182 53.0377 60.3792 53.1735 60.7262 53.5267C62.2876 55.0745 63.8568 56.6071 65.428 58.1416L65.4282 58.1418C65.9525 58.6539 66.477 59.1662 67.0016 59.6793C67.4597 60.1275 67.9734 60.3584 68.6259 60.1411C69.209 59.9509 69.6394 59.5299 69.5978 58.9595C69.5561 58.4977 69.334 57.9408 69.0147 57.6013C67.946 56.4891 66.8215 55.4042 65.7021 54.3243C65.4545 54.0854 65.2071 53.8468 64.9607 53.6082C64.8514 53.5012 64.7269 53.4143 64.5747 53.308L64.5746 53.3079C64.4755 53.2387 64.3647 53.1613 64.2388 53.0649C64.397 53.0133 64.4939 52.9777 64.565 52.9515L64.5651 52.9515C64.6249 52.9296 64.6664 52.9143 64.7108 52.9019ZM52.8423 41.7528L52.8406 41.7511C59.4075 33.8464 57.3389 23.8365 50.6054 18.3765C43.858 12.9166 34.4728 13.2833 28.1419 19.2729C21.9083 25.1811 21.2002 34.4169 26.3926 41.0585C31.7933 47.9445 42.4419 50.498 50.6609 43.8835C51.9279 45.1393 53.1999 46.3853 54.4829 47.6421L54.4834 47.6426L54.4839 47.643L54.4855 47.6446L54.4871 47.6462C55.3397 48.4813 56.1971 49.3213 57.0612 50.172H56.3392H8.31637C7.08074 50.172 5.91453 50.0226 4.88716 49.2892C3.47104 48.2841 2.95736 46.858 2.95736 45.2146V17.9827C2.95736 16.8639 2.95581 15.7467 2.95427 14.6299V14.6298V14.6298C2.95118 12.3979 2.9481 10.1679 2.95736 7.93197C2.97124 5.51438 4.13745 3.78946 6.21997 3.19186C6.81696 3.02887 7.4556 2.96096 8.06647 2.96096C26.4065 2.94738 44.7604 2.94738 63.1005 2.94738C66.2104 2.94738 68.1402 4.83528 68.1402 7.86406C68.1541 20.0743 68.1541 32.2981 68.1402 44.5219C68.1402 45.3096 68.1124 46.1245 67.9042 46.8716C67.3905 48.7459 66.0577 49.8053 64.114 50.0905C63.5247 50.1759 62.9183 50.169 62.3149 50.1621C62.1506 50.1603 61.9866 50.1584 61.8232 50.1584C61.615 50.1584 61.3512 50.0633 61.2123 49.9275C58.4223 47.2117 55.6462 44.4958 52.8423 41.7528ZM39.8873 17.4122C31.9321 17.4258 25.8651 23.3611 25.8651 31.13C25.8651 38.8853 31.9599 44.7935 39.9151 44.8207C47.7731 44.8342 53.9374 38.8038 53.8957 31.0893C53.8402 23.3339 47.7731 17.3986 39.8873 17.4122ZM34.7234 28.1291C35.7506 29.1067 36.7777 30.0844 37.8326 31.1028C36.7354 32.1762 35.6788 33.1701 34.6094 34.1761L34.57 34.2131C33.9452 34.8379 33.973 35.7071 34.57 36.2776C35.1392 36.8209 36.0139 36.8209 36.6386 36.2776C36.852 36.0869 37.0593 35.8781 37.2644 35.6714C37.3662 35.5688 37.4675 35.4667 37.5688 35.3676L37.5699 35.3665C38.3054 34.647 39.0548 33.9139 39.8874 33.0858C39.9432 33.1586 39.993 33.2256 40.0392 33.2877C40.1656 33.4574 40.2652 33.5913 40.3872 33.7106L40.3873 33.7107C41.2619 34.5799 42.1365 35.4491 43.0389 36.2912C43.6498 36.848 44.5522 36.8073 45.1075 36.264C45.6629 35.7071 45.6768 34.8515 45.1214 34.2403C44.9342 34.0368 44.7392 33.8485 44.5422 33.6583C44.4763 33.5947 44.4101 33.5308 44.3439 33.4661C43.5526 32.6919 42.7612 31.9177 41.9838 31.1707C42.0124 31.1147 42.0316 31.0725 42.0462 31.0404C42.067 30.9947 42.0785 30.9694 42.0948 30.9534C42.4489 30.602 42.8048 30.2544 43.1606 29.907C43.7535 29.328 44.3457 28.7498 44.9271 28.1555C45.177 27.9111 45.413 27.5851 45.4963 27.2591C45.6629 26.5936 45.3991 26.0503 44.8021 25.6972C44.2329 25.3577 43.5526 25.4527 43.025 25.9553C42.3237 26.6233 41.6346 27.3034 40.9373 27.9915C40.5857 28.3386 40.2319 28.6877 39.8735 29.0384C39.7725 28.9396 39.6791 28.8555 39.5893 28.7747C39.5061 28.6998 39.426 28.6278 39.3459 28.5494C39.0966 28.3055 38.8473 28.0595 38.5974 27.8127C37.9704 27.1938 37.3394 26.5709 36.6942 25.9688C35.8195 25.1539 34.4589 25.5342 34.1951 26.6615C34.0702 27.2455 34.2923 27.7209 34.7227 28.1284L34.7234 28.1291Z" fill="#6882D4"/>
</svg>
