<svg width="18" height="19" viewBox="0 0 18 19" fill="none" xmlns="http://www.w3.org/2000/svg">
<path fill-rule="evenodd" clip-rule="evenodd" d="M10.125 1.1875C10.125 0.531662 9.62132 0 9 0C8.37868 0 7.875 0.531662 7.875 1.1875V8.3125H1.125C0.50368 8.3125 0 8.84416 0 9.5C0 10.1558 0.50368 10.6875 1.125 10.6875H7.875V17.8125C7.875 18.4683 8.37868 19 9 19C9.62132 19 10.125 18.4683 10.125 17.8125V10.6875H16.875C17.4963 10.6875 18 10.1558 18 9.5C18 8.84416 17.4963 8.3125 16.875 8.3125H10.125V1.1875Z" fill="currentColor"/>
</svg>
