<svg width="22" height="22" viewBox="0 0 22 22" fill="none" xmlns="http://www.w3.org/2000/svg">
<g clip-path="url(#clip0_108:191)">
<path d="M19.2286 6.75056L13.7417 6.24167L11.5622 1.18058C11.4096 0.826199 10.9071 0.826199 10.7546 1.18058L8.57502 6.24163L3.08816 6.75056C2.70395 6.78617 2.54871 7.26404 2.83856 7.51869L6.97841 11.1555L5.76687 16.5311C5.68203 16.9075 6.08856 17.2028 6.42029 17.0058L11.1584 14.1924L15.8965 17.0058C16.2283 17.2028 16.6347 16.9075 16.5499 16.5311L15.3383 11.1555L19.4782 7.51869C19.7681 7.26404 19.6128 6.78617 19.2286 6.75056Z" fill="#FFDC64"/>
<path d="M5.54923 1.00627C5.82895 1.39478 6.61845 3.06331 7.06982 4.03571C7.14079 4.18857 6.949 4.32666 6.82653 4.21085C6.04757 3.47435 4.71567 2.19631 4.43595 1.80775C4.21462 1.50034 4.2844 1.0717 4.59185 0.850369C4.89926 0.629033 5.3279 0.69886 5.54923 1.00627Z" fill="#FFF082"/>
<path d="M16.7674 1.00627C16.4876 1.39478 15.6981 3.06331 15.2468 4.03571C15.1758 4.18857 15.3676 4.32666 15.4901 4.21085C16.269 3.47435 17.6009 2.19627 17.8806 1.80775C18.102 1.50034 18.0322 1.0717 17.7247 0.850369C17.4173 0.629033 16.9887 0.69886 16.7674 1.00627Z" fill="#FFF082"/>
<path d="M21.1867 12.3995C20.7315 12.251 18.902 12.0058 17.8385 11.8713C17.6713 11.8501 17.598 12.0748 17.7455 12.1563C18.6839 12.6746 20.3062 13.5552 20.7613 13.7037C21.1214 13.8211 21.5086 13.6244 21.6261 13.2642C21.7435 12.9041 21.5468 12.5169 21.1867 12.3995Z" fill="#FFF082"/>
<path d="M1.12865 12.3995C1.5838 12.251 3.41335 12.0058 4.47687 11.8713C4.64405 11.8501 4.71732 12.0748 4.56983 12.1563C3.63144 12.6746 2.00915 13.5552 1.55401 13.7037C1.19389 13.8211 0.806723 13.6244 0.689265 13.2642C0.571808 12.9041 0.768528 12.5169 1.12865 12.3995Z" fill="#FFF082"/>
<path d="M10.4932 20.1403C10.4932 19.6616 10.8273 17.8462 11.0292 16.7933C11.0609 16.6278 11.2972 16.6278 11.3289 16.7933C11.5308 17.8462 11.8649 19.6616 11.8649 20.1403C11.8649 20.5191 11.5579 20.8262 11.1791 20.8262C10.8002 20.8262 10.4932 20.5191 10.4932 20.1403Z" fill="#FFF082"/>
<path d="M12.3547 3.02101L11.5622 1.18058C11.4095 0.826199 10.9071 0.826199 10.7545 1.18058L8.57497 6.24163L3.08816 6.75056C2.70395 6.78617 2.54871 7.26404 2.83856 7.51869L6.97841 11.1555L5.76687 16.5311C5.68203 16.9075 6.08855 17.2028 6.42029 17.0058L7.0509 16.6314C8.08471 9.93922 10.9911 5.02668 12.3547 3.02101Z" fill="#FFC850"/>
</g>
<defs>
<clipPath id="clip0_108:191">
<rect width="21.0053" height="21.0053" fill="white" transform="translate(0.655273 0.270996)"/>
</clipPath>
</defs>
</svg>
