<svg
  width="21"
  height="10"
  viewBox="0 0 21 10"
  fill="none"
  xmlns="http://www.w3.org/2000/svg"
>
  <path
    d="M4.45117 0.38916C5.22976 2.0372 8.0328 1.9983 8.2794 0.38916"
    stroke="#506ABC"
  />
  <path
    d="M12.4512 0.38916C13.2298 2.0372 16.0328 1.9983 16.2794 0.38916"
    stroke="#506ABC"
  />
  <path
    d="M6.62695 5.79739C8.1473 9.59339 13.6207 9.50369 14.1022 5.79739"
    stroke="#506ABC"
  />
  <path
    d="M19.1806 6.37381C19.9539 6.37381 20.5809 5.74688 20.5809 4.97351C20.5809 4.20015 19.9539 3.57321 19.1806 3.57321C18.4072 3.57321 17.7803 4.20015 17.7803 4.97351C17.7803 5.74688 18.4072 6.37381 19.1806 6.37381Z"
    fill="#506ABC"
  />
  <path
    d="M2.01163 6.37381C2.78499 6.37381 3.41193 5.74688 3.41193 4.97351C3.41193 4.20015 2.78499 3.57321 2.01163 3.57321C1.23826 3.57321 0.611328 4.20015 0.611328 4.97351C0.611328 5.74688 1.23826 6.37381 2.01163 6.37381Z"
    fill="#506ABC"
  />
</svg>
