<svg width="26" height="24" viewBox="0 0 26 24" fill="none" xmlns="http://www.w3.org/2000/svg">
  <path fill-rule="evenodd" clip-rule="evenodd" d="M6.03855 18.5687H11.5365C11.7532 18.5687 11.9292 18.3927 11.9292 18.1759C11.9292 17.9592 11.7532 17.7832 11.5365 17.7832H6.03855C5.38901 17.7832 4.86043 17.2546 4.86043 16.6051V14.6417H9.96564C11.0487 14.6417 11.9292 13.7605 11.9292 12.6782V10.3219C11.9292 9.23963 11.0487 8.3584 9.96564 8.3584H4.86043V6.39469C4.86043 5.74515 5.38901 5.21657 6.03855 5.21657H20.9615C21.611 5.21657 22.1396 5.74515 22.1396 6.39469V11.1072C22.1396 11.324 22.3155 11.4999 22.5323 11.4999C22.7491 11.4999 22.925 11.324 22.925 11.1072V6.39469C22.925 5.31239 22.0446 4.43115 20.9615 4.43115H6.03855C4.95546 4.43115 4.07501 5.31239 4.07501 6.39469V8.75111V14.249V16.6051C4.07501 17.6874 4.95546 18.5687 6.03855 18.5687ZM19.9513 15.1747L22.0588 15.8306C22.2695 15.8962 22.4542 15.7867 22.5205 15.5568L23.1833 13.2577C23.2496 13.0278 23.1533 12.8308 22.9426 12.7652C22.7318 12.6996 22.5471 12.8092 22.4808 13.0391L22.1083 14.3311L21.0667 13.2009C20.7 12.7609 20.2233 12.4409 19.71 12.2409C18.7933 11.8809 17.8033 11.9209 16.9233 12.4009C16.0433 12.8409 15.3833 13.6809 15.0533 14.6809C14.98 14.8809 15.09 15.1209 15.2733 15.1609C15.4567 15.2409 15.6767 15.1609 15.75 14.9209C16.0067 14.1209 16.52 13.4809 17.2533 13.0809C17.95 12.7209 18.7567 12.6809 19.49 12.9609C19.8933 13.1209 20.26 13.3609 20.59 13.7209L21.7064 14.8858L20.1722 14.4084C19.9615 14.3428 19.7768 14.4523 19.7105 14.6822C19.6442 14.9122 19.7405 15.1092 19.9513 15.1747ZM13.9746 19.0633C13.7703 18.9787 13.6911 18.7736 13.7766 18.5507L14.6319 16.3213C14.7175 16.0983 14.9107 16.0061 15.1151 16.0908L17.1587 16.9371C17.3631 17.0217 17.4423 17.2268 17.3568 17.4497C17.2712 17.6727 17.078 17.7649 16.8736 17.6802L15.4722 17.0999L16.41 18.3209C16.9967 18.8809 17.73 19.2009 18.5 19.2009C19.27 19.2009 20.0033 18.8809 20.59 18.2809C20.8833 17.9609 21.14 17.5209 21.2867 17.0809C21.36 16.8809 21.58 16.7609 21.7633 16.8409C21.9467 16.9209 22.0567 17.1609 21.9833 17.3609C21.8 17.9209 21.5067 18.4409 21.1033 18.8409C20.4067 19.6009 19.49 20.0009 18.5 20.0009C17.51 20.0009 16.5933 19.6009 15.8967 18.8409L14.9496 17.5509L14.4578 18.8328C14.3723 19.0557 14.179 19.148 13.9746 19.0633ZM4.86043 13.8563H9.96564C10.6152 13.8563 11.1438 13.3277 11.1438 12.6782V10.3219C11.1438 9.6724 10.6152 9.14381 9.96564 9.14381H4.86043V13.8563ZM6.43127 11.5C6.43127 12.3663 7.13579 13.0709 8.00211 13.0709C8.86842 13.0709 9.57294 12.3663 9.57294 11.5C9.57294 10.6337 8.86842 9.9292 8.00211 9.9292C7.13579 9.9292 6.43127 10.6337 6.43127 11.5ZM7.21669 11.5C7.21669 11.0673 7.56856 10.7146 8.00211 10.7146C8.43566 10.7146 8.78752 11.0673 8.78752 11.5C8.78752 11.9328 8.43566 12.2854 8.00211 12.2854C7.56856 12.2854 7.21669 11.9328 7.21669 11.5Z" fill="#2C2C2C" />
</svg>
