<svg width="25" height="25" viewBox="0 0 25 25" fill="none" xmlns="http://www.w3.org/2000/svg">
<rect x="0.595703" y="0.5" width="24" height="24" rx="12" fill="#5269B4"/>
<path fill-rule="evenodd" clip-rule="evenodd" d="M9.5 17C9.5 16.7239 9.72386 16.5 10 16.5H15C15.2761 16.5 15.5 16.7239 15.5 17C15.5 17.2761 15.2761 17.5 15 17.5H10C9.72386 17.5 9.5 17.2761 9.5 17Z" fill="#3F58A8"/>
<path fill-rule="evenodd" clip-rule="evenodd" d="M8.56772 11.1107C7.60002 11.1164 6.49286 10.648 5.99908 9.60283L6.90326 9.17567C7.18808 9.77856 7.87174 10.1148 8.56185 10.1107C9.26656 10.1066 9.71491 9.7719 9.78515 9.31352L10.7736 9.46498C10.5973 10.6157 9.52082 11.1051 8.56772 11.1107Z" fill="#3F58A8"/>
<path fill-rule="evenodd" clip-rule="evenodd" d="M16.5677 11.1107C15.6 11.1164 14.4929 10.648 13.9991 9.60283L14.9033 9.17567C15.1881 9.77856 15.8717 10.1148 16.5618 10.1107C17.2666 10.1066 17.7149 9.7719 17.7851 9.31352L18.7736 9.46498C18.5973 10.6157 17.5208 11.1051 16.5677 11.1107Z" fill="#3F58A8"/>
<path d="M22.5809 13.9736C22.5809 14.747 21.9539 15.3739 21.1806 15.3739C20.4072 15.3739 19.7803 14.747 19.7803 13.9736C19.7803 13.2003 20.4072 12.5733 21.1806 12.5733C21.9539 12.5733 22.5809 13.2003 22.5809 13.9736Z" fill="#3F58A8"/>
<path d="M5.41144 13.9736C5.41144 14.747 4.78451 15.3739 4.01114 15.3739C3.23778 15.3739 2.61084 14.747 2.61084 13.9736C2.61084 13.2003 3.23778 12.5733 4.01114 12.5733C4.78451 12.5733 5.41144 13.2003 5.41144 13.9736Z" fill="#3F58A8"/>
</svg>
