<svg width="22" height="22" viewBox="0 0 22 22" fill="none" xmlns="http://www.w3.org/2000/svg">
<g clip-path="url(#clip0_0:289)">
<path d="M17.4023 11.0433C15.9807 11.0433 14.8242 12.1998 14.8242 13.6214C14.8242 15.043 15.9807 16.1995 17.4023 16.1995H21.0546C21.0692 16.1995 21.0834 16.1981 21.0978 16.1973C21.1121 16.198 21.1261 16.1995 21.1406 16.1995C21.6152 16.1995 22 15.8148 22 15.3401V8.59404C22 7.44996 21.4376 6.43525 20.5753 5.8101L17.6517 1.01394C17.5325 0.818343 17.3402 0.678437 17.1173 0.625328C16.8945 0.572133 16.6597 0.61016 16.465 0.730902L14.309 2.06791L13.3367 0.422473C13.2198 0.224645 13.0286 0.0819032 12.8057 0.0260439C12.5829 -0.0298153 12.3468 0.00597757 12.1505 0.125259L3.87186 5.15655H2.57812C2.11144 5.15655 1.73043 4.78263 1.719 4.31866C1.73043 3.85468 2.11144 3.48077 2.57812 3.48077H4.16796C4.64259 3.48077 5.02733 3.09603 5.02733 2.62139C5.02733 2.14676 4.64259 1.76202 4.16796 1.76202H2.57812C1.36219 1.76202 0.340269 2.60825 0.0700389 3.74266C0.0250937 3.8469 0 3.96163 0 4.08233V4.29717V4.34014V18.5628C0 20.4582 1.54206 22.0003 3.43749 22.0003H18.5625C20.0445 22.0003 21.3551 21.0562 21.8238 19.6511C21.974 19.2009 21.7308 18.7141 21.2806 18.564C20.8304 18.4138 20.3436 18.657 20.1934 19.1072C19.9591 19.8096 19.3037 20.2815 18.5625 20.2815H3.43749C2.48978 20.2815 1.71875 19.5105 1.71875 18.5628V6.72787C1.98769 6.82326 2.27691 6.87529 2.57812 6.87529H18.5625C19.5102 6.87529 20.2812 7.64632 20.2812 8.59404V11.0433H17.4023ZM20.2812 14.4807H17.4023C16.9285 14.4808 16.5429 14.0953 16.5429 13.6214C16.5429 13.1475 16.9285 12.762 17.4023 12.762H20.2812V14.4807ZM7.18127 5.15659L12.2997 2.04596L13.2148 3.59459C13.2323 3.63692 13.2525 3.67864 13.2774 3.71886C13.2961 3.74898 13.3168 3.77704 13.3385 3.80402L14.1377 5.15659H7.18127ZM16.1341 5.15655L15.1836 3.54797L16.6349 2.64799L18.1641 5.15655H16.1341Z" fill="currentColor"/>
</g>
<defs>
<clipPath id="clip0_0:289">
<rect width="22" height="22" fill="white"/>
</clipPath>
</defs>
</svg>
