<svg id="_x31__px" height="512" viewBox="0 0 24 24" width="512" xmlns="http://www.w3.org/2000/svg"><path d="m17.5 24c-3.584 0-6.5-2.916-6.5-6.5s2.916-6.5 6.5-6.5 6.5 2.916 6.5 6.5-2.916 6.5-6.5 6.5zm0-12c-3.032 0-5.5 2.467-5.5 5.5s2.468 5.5 5.5 5.5 5.5-2.467 5.5-5.5-2.468-5.5-5.5-5.5z"/><path d="m15.379 20.121c-.128 0-.256-.049-.354-.146-.195-.195-.195-.512 0-.707l4.242-4.242c.195-.195.512-.195.707 0s.195.512 0 .707l-4.242 4.242c-.097.097-.225.146-.353.146z"/><path d="m19.621 20.121c-.128 0-.256-.049-.354-.146l-4.242-4.242c-.195-.195-.195-.512 0-.707s.512-.195.707 0l4.242 4.242c.195.195.195.512 0 .707-.097.097-.225.146-.353.146z"/><path d="m9.5 21h-7c-1.379 0-2.5-1.122-2.5-2.5v-13c0-1.378 1.121-2.5 2.5-2.5h19c1.379 0 2.5 1.122 2.5 2.5v6c0 .276-.224.5-.5.5s-.5-.224-.5-.5v-6c0-.827-.673-1.5-1.5-1.5h-19c-.827 0-1.5.673-1.5 1.5v13c0 .827.673 1.5 1.5 1.5h7c.276 0 .5.224.5.5s-.224.5-.5.5z"/><path d="m7.5 16h-7c-.276 0-.5-.224-.5-.5v-7c0-.276.224-.5.5-.5h7c1.379 0 2.5 1.122 2.5 2.5v3c0 1.378-1.121 2.5-2.5 2.5zm-6.5-1h6.5c.827 0 1.5-.673 1.5-1.5v-3c0-.827-.673-1.5-1.5-1.5h-6.5z"/><path d="m5 14c-1.103 0-2-.897-2-2s.897-2 2-2 2 .897 2 2-.897 2-2 2zm0-3c-.552 0-1 .449-1 1s.448 1 1 1 1-.449 1-1-.448-1-1-1z"/></svg>