<svg width="60" height="60" viewBox="0 0 60 60" fill="none" xmlns="http://www.w3.org/2000/svg">
<path d="M30 60C46.5685 60 60 46.5685 60 30C60 13.4315 46.5685 0 30 0C13.4315 0 0 13.4315 0 30C0 46.5685 13.4315 60 30 60Z" fill="url(#iconlinear302)"/>
<path d="M42.8779 41.4171L32.9447 16.8869C32.3844 15.6187 31.5516 15 30.4538 15H29.5755C28.4777 15 27.6449 15.6187 27.0847 16.8869L22.7616 27.5744H19.4909C18.5142 27.5821 17.7193 28.3864 17.7117 29.3917V29.4149C17.7193 30.4125 18.5142 31.2245 19.4909 31.2323H21.2474L17.1211 41.4171C17.0454 41.6413 17 41.8733 17 42.1131C17 42.6853 17.1741 43.1339 17.4845 43.4819C17.795 43.8299 18.2417 44 18.8019 44C19.1729 43.9923 19.5287 43.8763 19.824 43.652C20.142 43.4277 20.3616 43.1029 20.5357 42.7317L25.0783 31.2245H28.2279C29.2046 31.2168 29.9995 30.4125 30.0071 29.4072V29.3608C29.9995 28.3632 29.2046 27.5512 28.2279 27.5435H26.5471L30.0147 18.7197L39.4634 42.724C39.6375 43.0952 39.8571 43.42 40.175 43.6443C40.4703 43.8685 40.8337 43.9845 41.1971 43.9923C41.7574 43.9923 42.1965 43.8221 42.5145 43.4741C42.8325 43.1261 42.9991 42.6776 42.9991 42.1053C43.0066 41.8733 42.9688 41.6336 42.8779 41.4171Z" fill="white"/>
<defs>
<linearGradient id="iconlinear302" x1="52.3676" y1="11.1794" x2="7.72757" y2="48.7394" gradientUnits="userSpaceOnUse">
<stop stop-color="#B6509E"/>
<stop offset="1" stop-color="#2EBAC6"/>
</linearGradient>
</defs>
</svg>
