<svg width="20" height="12" viewBox="0 0 20 12" fill="none" xmlns="http://www.w3.org/2000/svg">
<path d="M18.7995 1.91658C18.0074 1.07205 16.9381 0.650171 15.5906 0.650171C14.7985 0.650171 14.0964 0.804366 13.485 1.11198C12.8844 1.41418 12.4052 1.80756 12.046 2.29319V0.748448H12.0264H7.94157H7.93992V6.65872C7.93992 7.28753 7.76608 7.78135 7.41926 8.1417C7.07158 8.50205 6.59922 8.6818 6.00221 8.6818C5.4188 8.6818 4.94984 8.50205 4.59538 8.1417C4.24092 7.78135 4.06368 7.28753 4.06368 6.65872V0.748448H0V7.15011C0 8.60273 0.392637 9.75169 1.17705 10.5963C1.96232 11.44 3.03589 11.8627 4.39693 11.8627C5.18899 11.8627 5.89112 11.7085 6.50256 11.4009C7.11313 11.094 7.5931 10.6914 7.93992 10.1936V11.7644H7.94157H12.0264H12.046V5.50533C12.1001 5.03984 12.2673 4.66198 12.5479 4.37114C12.8948 4.0116 13.3739 3.83101 13.9853 3.83101C14.5687 3.83101 15.0343 4.0116 15.382 4.37114C15.7288 4.73152 15.9027 5.22531 15.9027 5.85412V11.7644H19.9875V5.34356C19.9875 3.90372 19.5915 2.76115 18.7995 1.91658Z" fill="white"/>
</svg>
