<svg width="60" height="60" viewBox="0 0 60 60" fill="none" xmlns="http://www.w3.org/2000/svg">
<path d="M30 60C46.5686 60 60 46.5686 60 30C60 13.4314 46.5686 0 30 0C13.4314 0 0 13.4314 0 30C0 46.5686 13.4314 60 30 60Z" fill="url(#iconlinear301)"/>
<path d="M47.9897 25.0856H44.3384C42.3282 19.6956 36.9231 16 29.7948 16H18.0718V25.0856H14V28.3453H18.0718V31.7636H14V35.0234H18.0718V44H29.7948C36.841 44 42.2051 40.334 44.2666 35.0234H47.9897V31.7636H45.0871C45.159 31.189 45.2 30.5945 45.2 30V29.9207C45.2 29.3857 45.1692 28.8606 45.1179 28.3453H48V25.0856H47.9897ZM21.3538 18.903H29.7948C35.0256 18.903 38.9128 21.3899 40.7077 25.0757H21.3538V18.903ZM29.7948 41.0672H21.3538V35.0134H40.6871C38.882 38.6398 35.0051 41.0672 29.7948 41.0672ZM41.8051 30.0693C41.8051 30.644 41.7641 31.2088 41.682 31.7537H21.3538V28.3355H41.6923C41.7641 28.8705 41.8051 29.4253 41.8051 29.9901V30.0693Z" fill="white"/>
<defs>
<linearGradient id="iconlinear301" x1="30" y1="-8.49997" x2="30" y2="66.3" gradientUnits="userSpaceOnUse">
<stop stop-color="#F9A606"/>
<stop offset="1" stop-color="#FBCC5F"/>
</linearGradient>
</defs>
</svg>
