<svg width="60" height="60" viewBox="0 0 60 60" fill="none" xmlns="http://www.w3.org/2000/svg">
<g clip-path="url(#iconclip304)">
<path d="M30 60C46.5686 60 60 46.5686 60 30C60 13.4314 46.5686 0 30 0C13.4314 0 0 13.4314 0 30C0 46.5686 13.4314 60 30 60Z" fill="white"/>
<path d="M45.8497 21.4828C44.4242 19.8286 42.4985 19.0015 40.0728 19.0015C38.7555 18.9754 37.4527 19.2867 36.2819 19.9072C35.2495 20.4564 34.3604 21.2521 33.6894 22.2272V19.1901H26.2961V30.7903C26.2961 32.0227 25.9836 32.9929 25.3587 33.7009C24.7337 34.4089 23.8832 34.7621 22.8072 34.7604C22.3359 34.7809 21.8657 34.6968 21.4288 34.514C20.9919 34.3312 20.5984 34.0539 20.2752 33.7009C19.6309 32.9929 19.3087 32.0227 19.3087 30.7903V19.1901H12V31.7531C12 34.6049 12.7063 36.8596 14.1189 38.5172C15.5315 40.1747 17.4644 41.0018 19.9176 40.9985C21.2348 41.0244 22.5376 40.7132 23.7085 40.0928C24.7526 39.5409 25.643 38.7255 26.2961 37.7232V40.805H33.6894V28.5249C33.7486 27.7 34.0655 26.9167 34.593 26.2917C35.218 25.587 36.0813 25.2338 37.1831 25.2321C37.652 25.2116 38.1196 25.2957 38.5538 25.4786C38.988 25.6615 39.3785 25.9389 39.6983 26.2917C40.3216 26.9997 40.6341 27.9699 40.6357 29.2023V40.8025H48V28.2073C48 25.3835 47.2832 23.142 45.8497 21.4828Z" fill="#042751"/>
</g>
<defs>
<clipPath id="iconclip304">
<rect width="60" height="60" fill="white"/>
</clipPath>
</defs>
</svg>
