<svg width="60" height="60" viewBox="0 0 60 60" fill="none" xmlns="http://www.w3.org/2000/svg">
<path d="M30 60C46.5685 60 60 46.5685 60 30C60 13.4315 46.5685 0 30 0C13.4315 0 0 13.4315 0 30C0 46.5685 13.4315 60 30 60Z" fill="#627EEA"/>
<path d="M30.9343 11V25.0436L42.8041 30.3476L30.9343 11Z" fill="white" fill-opacity="0.602"/>
<path d="M30.9343 11L19.063 30.3476L30.9343 25.0436V11Z" fill="white"/>
<path d="M30.9343 39.4482V48.9906L42.812 32.5578L30.9343 39.4482Z" fill="white" fill-opacity="0.602"/>
<path d="M30.9343 48.9906V39.4466L19.063 32.5578L30.9343 48.9906Z" fill="white"/>
<path d="M30.9343 37.2396L42.8041 30.3476L30.9343 25.0468V37.2396Z" fill="white" fill-opacity="0.2"/>
<path d="M19.063 30.3476L30.9343 37.2396V25.0468L19.063 30.3476Z" fill="white" fill-opacity="0.602"/>
</svg>
