<svg width="60" height="60" viewBox="0 0 60 60" fill="none" xmlns="http://www.w3.org/2000/svg">
<g clip-path="url(#iconclip301)">
<path d="M30 60C46.5686 60 60 46.5686 60 30C60 13.4314 46.5686 0 30 0C13.4314 0 0 13.4314 0 30C0 46.5686 13.4314 60 30 60Z" fill="#2A5ADA"/>
<path d="M30 11L26.6138 12.9518L17.3862 18.2982L14 20.25V38.75L17.3862 40.7018L26.6984 46.0482L30.0847 48L33.4709 46.0482L42.6138 40.7018L46 38.75V20.25L42.6138 18.2982L33.3862 12.9518L30 11ZM20.7725 34.8463V24.1537L30 18.8073L39.2275 24.1537V34.8463L30 40.1927L20.7725 34.8463Z" fill="white"/>
</g>
<defs>
<clipPath id="iconclip301">
<rect width="60" height="60" fill="white"/>
</clipPath>
</defs>
</svg>
