<svg width="60" height="60" viewBox="0 0 60 60" fill="none" xmlns="http://www.w3.org/2000/svg">
<g clip-path="url(#iconclip305)">
<path d="M30 60C46.5686 60 60 46.5686 60 30C60 13.4314 46.5686 0 30 0C13.4314 0 0 13.4314 0 30C0 46.5686 13.4314 60 30 60Z" fill="#8247E5"/>
<path d="M39.7728 24.0861C39.0783 23.6944 38.1854 23.6944 37.3916 24.0861L31.8355 27.3175L28.0653 29.3739L22.6084 32.6053C21.9138 32.997 21.0209 32.997 20.2272 32.6053L15.9608 30.0593C15.2663 29.6677 14.7702 28.8843 14.7702 28.003V23.1068C14.7702 22.3234 15.1671 21.5401 15.9608 21.0504L20.2272 18.6024C20.9217 18.2107 21.8146 18.2107 22.6084 18.6024L26.8747 21.1484C27.5692 21.5401 28.0653 22.3234 28.0653 23.2047V26.4362L31.8355 24.2819V20.9525C31.8355 20.1691 31.4386 19.3858 30.6449 18.8961L22.7076 14.2938C22.0131 13.9021 21.1201 13.9021 20.3264 14.2938L12.1906 18.9941C11.3969 19.3858 11 20.1691 11 20.9525V30.1573C11 30.9407 11.3969 31.724 12.1906 32.2136L20.2272 36.816C20.9217 37.2077 21.8146 37.2077 22.6084 36.816L28.0653 33.6825L31.8355 31.5282L37.2924 28.3947C37.9869 28.003 38.8799 28.003 39.6736 28.3947L43.9399 30.8427C44.6345 31.2344 45.1306 32.0178 45.1306 32.8991V37.7953C45.1306 38.5786 44.7337 39.362 43.9399 39.8516L39.7728 42.2997C39.0783 42.6914 38.1854 42.6914 37.3916 42.2997L33.1253 39.8516C32.4308 39.4599 31.9347 38.6766 31.9347 37.7953V34.6617L28.1645 36.816V40.0475C28.1645 40.8309 28.5614 41.6142 29.3551 42.1039L37.3916 46.7062C38.0862 47.0979 38.9791 47.0979 39.7728 46.7062L47.8094 42.1039C48.5039 41.7122 49 40.9288 49 40.0475V30.7448C49 29.9614 48.6031 29.178 47.8094 28.6884L39.7728 24.0861Z" fill="white"/>
</g>
<defs>
<clipPath id="iconclip305">
<rect width="60" height="60" fill="white"/>
</clipPath>
</defs>
</svg>
