<svg width="60" height="60" viewBox="0 0 60 60" fill="none" xmlns="http://www.w3.org/2000/svg">
<path d="M30 60C46.5686 60 60 46.5686 60 30C60 13.4314 46.5686 0 30 0C13.4314 0 0 13.4314 0 30C0 46.5686 13.4314 60 30 60Z" fill="#2775C9"/>
<path d="M36.7633 33.8724C36.7633 30.0707 34.6122 28.789 30.4514 28.1753C27.3762 27.6973 26.7855 26.9207 26.7855 25.3783C26.7855 23.8359 27.8257 22.8746 29.8152 22.8746C31.6279 22.8746 32.6732 23.5535 33.1024 25.1231C33.1479 25.2948 33.2438 25.4463 33.3757 25.5548C33.5076 25.6634 33.6685 25.7234 33.8346 25.7259H35.4251C35.529 25.7282 35.6321 25.7058 35.7271 25.6605C35.822 25.615 35.9065 25.5477 35.9745 25.4631C36.0425 25.3786 36.0923 25.279 36.1204 25.1714C36.1485 25.0638 36.1542 24.9508 36.1371 24.8406C35.6322 22.3586 34.077 20.8651 31.638 20.398V17.7803C31.638 17.5642 31.5582 17.357 31.4162 17.2043C31.2742 17.0514 31.0815 16.9656 30.8806 16.9656H29.3657C29.1649 16.9656 28.9722 17.0514 28.8302 17.2043C28.6881 17.357 28.6083 17.5642 28.6083 17.7803V20.3057C25.5786 20.7619 23.6648 22.9126 23.6648 25.6716C23.6648 29.2397 25.6847 30.6247 29.906 31.2384C32.7792 31.7435 33.5972 32.4115 33.5972 34.1657C33.5972 35.9199 32.2086 37.0985 30.2494 37.0985C27.6085 37.0985 26.7148 35.8548 26.4168 34.2418C26.3822 34.0567 26.2896 33.8899 26.1546 33.7694C26.0195 33.6488 25.8501 33.5817 25.6746 33.5792H23.9477C23.8446 33.5785 23.7427 33.602 23.649 33.6481C23.5553 33.6942 23.472 33.7618 23.4052 33.8461C23.3383 33.9305 23.2894 34.0295 23.2619 34.1363C23.2343 34.2431 23.2288 34.3551 23.2457 34.4644C23.6851 37.18 25.3059 39.1677 28.6083 39.6456V42.2199C28.6083 42.436 28.6881 42.6432 28.8302 42.796C28.9722 42.9487 29.1649 43.0346 29.3657 43.0346H30.8806C31.0815 43.0346 31.2742 42.9487 31.4162 42.796C31.5582 42.6432 31.638 42.436 31.638 42.2199V39.6456C34.7687 39.1134 36.7633 36.7889 36.7633 33.8724Z" fill="white"/>
<path d="M24.9913 44.7338C21.842 43.6307 19.1224 41.6255 17.2008 38.9901C15.2792 36.3546 14.2486 33.2162 14.2486 30C14.2486 26.7839 15.2792 23.6454 17.2008 21.01C19.1224 18.3744 21.842 16.3693 24.9913 15.2661C25.1932 15.1811 25.3662 15.0434 25.4905 14.8687C25.6148 14.694 25.6854 14.4893 25.6944 14.278V12.814C25.7075 12.6843 25.6848 12.5537 25.6286 12.4351C25.5724 12.3166 25.4847 12.2143 25.3742 12.1385C25.2638 12.0627 25.1345 12.0162 24.9993 12.0035C24.8642 11.9909 24.728 12.0125 24.6043 12.0663C20.6384 13.2789 17.1772 15.6699 14.7211 18.8937C12.2649 22.1175 10.9412 26.007 10.9412 30C10.9412 33.993 12.2649 37.8825 14.7211 41.1064C17.1772 44.3302 20.6384 46.7211 24.6043 47.9337C24.728 47.9875 24.8642 48.0092 24.9993 47.9965C25.1345 47.9838 25.2638 47.9373 25.3742 47.8615C25.4847 47.7858 25.5724 47.6835 25.6286 47.5649C25.6848 47.4463 25.7075 47.3157 25.6944 47.186V45.7221C25.6854 45.5107 25.6148 45.306 25.4905 45.1313C25.3662 44.9566 25.1932 44.8189 24.9913 44.7338Z" fill="white"/>
<path d="M35.3957 12.0663C35.272 12.0125 35.1358 11.9909 35.0007 12.0035C34.8655 12.0162 34.7363 12.0627 34.6258 12.1385C34.5153 12.2143 34.4276 12.3166 34.3714 12.4351C34.3152 12.5537 34.2925 12.6843 34.3056 12.814V14.278C34.3145 14.4893 34.3852 14.694 34.5095 14.8687C34.6338 15.0434 34.8068 15.1811 35.0087 15.2661C38.158 16.3693 40.8777 18.3744 42.7993 21.01C44.7209 23.6454 45.7514 26.7839 45.7514 30C45.7514 33.2162 44.7209 36.3546 42.7993 38.9901C40.8777 41.6255 38.158 43.6307 35.0087 44.7338C34.8002 44.8098 34.621 44.9452 34.4952 45.122C34.3695 45.2987 34.3033 45.5081 34.3056 45.7221V47.186C34.2925 47.3157 34.3152 47.4463 34.3714 47.5649C34.4276 47.6835 34.5153 47.7858 34.6258 47.8615C34.7363 47.9373 34.8655 47.9838 35.0007 47.9965C35.1358 48.0092 35.272 47.9875 35.3957 47.9337C39.3616 46.7211 42.8229 44.3302 45.279 41.1064C47.7351 37.8825 49.0588 33.993 49.0588 30C49.0588 26.007 47.7351 22.1175 45.279 18.8937C42.8229 15.6699 39.3616 13.2789 35.3957 12.0663Z" fill="white"/>
</svg>
