<svg width="60" height="60" viewBox="0 0 60 60" fill="none" xmlns="http://www.w3.org/2000/svg">
<g clip-path="url(#iconclip302)">
<path d="M30 60C46.5685 60 60 46.5686 60 30C60 13.4314 46.5685 0 30 0C13.4314 0 -1.52588e-05 13.4314 -1.52588e-05 30C-1.52588e-05 46.5686 13.4314 60 30 60Z" fill="#50AF95"/>
<path fill-rule="evenodd" clip-rule="evenodd" d="M33.4589 31.2017C33.2657 31.2165 32.2676 31.2773 30.0411 31.2773C28.2701 31.2773 27.0128 31.2231 26.5717 31.2017C19.7279 30.8941 14.6196 29.6768 14.6196 28.2193C14.6196 26.7618 19.7279 25.5462 26.5717 25.2336V29.9893C27.0192 30.0222 28.3007 30.0995 30.0716 30.0995C32.1967 30.0995 33.2609 30.009 33.4525 29.991V25.2369C40.2818 25.5478 45.3788 26.7651 45.3788 28.2193C45.3788 29.6735 40.2834 30.8908 33.4525 31.2L33.4589 31.2017ZM33.4589 24.7451V20.4895H42.9897V14H17.0409V20.4895H26.5701V24.7434C18.8247 25.107 13 26.6747 13 28.5532C13 30.4318 18.8247 31.9978 26.5701 32.363V46H33.4573V32.3581C41.185 31.9946 47 30.4285 47 28.5516C47 26.6747 41.1898 25.1086 33.4573 24.7434L33.4589 24.7451Z" fill="white"/>
</g>
<defs>
<clipPath id="iconclip302">
<rect width="60" height="60" fill="white"/>
</clipPath>
</defs>
</svg>
