<svg width="60" height="60" viewBox="0 0 60 60" fill="none" xmlns="http://www.w3.org/2000/svg">
<g clip-path="url(#iconclip303)">
<path d="M30 58C35.5379 58 40.9514 56.3578 45.556 53.2812C50.1605 50.2044 53.7494 45.8315 55.8686 40.7151C57.9879 35.5988 58.5424 29.969 57.462 24.5375C56.3816 19.106 53.7149 14.1169 49.799 10.201C45.8831 6.28515 40.894 3.61841 35.4625 2.53802C30.031 1.45764 24.4012 2.01213 19.2849 4.13139C14.1685 6.25064 9.79556 9.83947 6.71885 14.444C3.64217 19.0486 2 24.4621 2 30C2 37.4261 4.94999 44.548 10.201 49.799C15.452 55.05 22.5739 58 30 58Z" fill="white"/>
<path d="M37.1146 28.8859C38.6686 28.0687 39.641 26.6297 39.4139 24.2323C39.108 20.956 36.367 19.8574 32.907 19.5445L32.9064 15H30.2255L30.2247 19.425C29.5194 19.425 28.8003 19.4393 28.0845 19.4541L28.0839 15.0006L25.4055 15.0004L25.405 19.5437C24.8245 19.5559 24.2544 19.5676 23.6978 19.5676V19.5541L20 19.5526L20.0005 22.5065C20.0005 22.5065 21.9803 22.4681 21.9477 22.5054C23.0331 22.5062 23.3875 23.1568 23.4895 23.7183L23.4903 28.8954V36.1676C23.4425 36.52 23.2414 37.0831 22.4824 37.0841C22.517 37.1155 20.5323 37.0838 20.5323 37.0838L20.0005 40.3869H23.4887C24.1387 40.3877 24.7773 40.3981 25.4038 40.4033L25.4061 44.9992L28.0839 45L28.0832 40.4522C28.8199 40.4678 29.531 40.4745 30.2256 40.4735L30.2248 45H32.9057L32.9072 40.4117C37.4134 40.1446 40.5682 38.9731 40.9604 34.6054C41.2765 31.0891 39.673 29.5195 37.1146 28.8859ZM28.1486 22.7059C29.6606 22.7059 34.4157 22.209 34.4164 25.4687C34.4157 28.5939 29.662 28.2288 28.1486 28.2288V22.7059ZM28.1474 37.1065L28.1486 31.017C29.9652 31.0165 35.663 30.4775 35.6638 34.0604C35.6645 37.4963 29.9652 37.1051 28.1474 37.1065Z" fill="#F6941A"/>
<path fill-rule="evenodd" clip-rule="evenodd" d="M30 10.3948C19.2724 10.3948 10.4872 19.1237 10.4872 30C10.4872 40.8763 19.2724 49.6052 30 49.6052C40.7276 49.6052 49.5128 40.8763 49.5128 30C49.5128 19.1237 40.7276 10.3948 30 10.3948ZM5 30C5 16.2416 16.1438 5 30 5C43.8562 5 55 16.2416 55 30C55 43.7584 43.8562 55 30 55C16.1438 55 5 43.7584 5 30Z" fill="#657786"/>
<path fill-rule="evenodd" clip-rule="evenodd" d="M30 5.42701C16.5304 5.42701 5.52178 16.3798 5.52178 30C5.52178 43.6202 16.5304 54.573 30 54.573C43.4696 54.573 54.4782 43.6202 54.4782 30C54.4782 16.3798 43.4696 5.42701 30 5.42701ZM0 30C0 13.4804 13.3821 0 30 0C46.6179 0 60 13.4804 60 30C60 46.5196 46.6179 60 30 60C13.3821 60 0 46.5196 0 30Z" fill="#283947"/>
<path fill-rule="evenodd" clip-rule="evenodd" d="M12.8989 11L19.9098 17.7484L16.011 21.66L9 14.9116L12.8989 11ZM52 14.9021L45.0583 21.6504L41.1397 17.7579L48.0814 11.0095L52 14.9021ZM22.9451 43.0765L14.7675 51L10.8555 47.1011L19.0331 39.1776L22.9451 43.0765ZM42.0263 39.1776L50.2039 47.1011L46.2919 51L38.1143 43.0765L42.0263 39.1776Z" fill="white"/>
</g>
<defs>
<clipPath id="iconclip303">
<rect width="60" height="60" fill="white"/>
</clipPath>
</defs>
</svg>
