<svg width="60" height="60" viewBox="0 0 60 60" fill="none" xmlns="http://www.w3.org/2000/svg">
<path d="M30 60C46.5685 60 60 46.5685 60 30C60 13.4315 46.5685 0 30 0C13.4315 0 0 13.4315 0 30C0 46.5685 13.4315 60 30 60Z" fill="url(#iconlinear303)"/>
<path fill-rule="evenodd" clip-rule="evenodd" d="M28.7141 18.1821H31.3563V42.0703H28.7141V18.1821Z" fill="white"/>
<path d="M41.7214 22.926L38.2986 24.031C38.9591 22.3616 39.0312 20.524 39.0312 20.2958V20.2598C39.0312 15.1555 34.8757 11 29.7714 11C24.6671 11 20.5116 15.1555 20.5116 20.2598C20.5116 23.3344 22.0248 26.1928 24.571 27.9223L27.5135 30.0841V26.8053L26.1083 25.7724L26.0723 25.7484C24.2467 24.5114 23.1538 22.4577 23.1538 20.2598C23.1538 16.6087 26.1203 13.6422 29.7714 13.6422C33.4104 13.6422 36.3769 16.5967 36.389 20.2478C36.3649 20.7522 36.2328 22.0974 35.8125 23.1302L34.7316 19.263L32.1854 19.9716L34.4553 28.0544L42.5261 25.4482L41.7214 22.926Z" fill="white"/>
<path d="M34.2503 31.7535L32.5568 30.5045V33.7832L32.7009 33.8913L32.713 33.9033C35.163 35.6568 36.4001 37.7105 36.4001 40.0045C36.4001 43.6555 33.4336 46.622 29.7825 46.622C26.1314 46.622 23.1649 43.6555 23.1649 40.0045C23.1649 38.7914 23.6573 37.4583 24.3299 36.3774L24.9304 40.8692L27.5486 40.5209L26.4437 32.2339L17.9285 33.8313L18.4209 36.4254L21.5075 35.849C20.859 37.134 20.5227 38.5392 20.5227 40.0045C20.5227 45.1088 24.6782 49.2643 29.7825 49.2643C34.8868 49.2643 39.0423 45.1088 39.0423 40.0045C39.0303 36.8578 37.3729 33.9994 34.2503 31.7535V31.7535Z" fill="white"/>
<defs>
<linearGradient id="iconlinear303" x1="11.5" y1="6.5" x2="47" y2="55" gradientUnits="userSpaceOnUse">
<stop stop-color="#0075FC"/>
<stop offset="1" stop-color="#065EB5"/>
</linearGradient>
</defs>
</svg>
