<svg width="1316" height="818" viewBox="0 0 1316 818" fill="none" xmlns="http://www.w3.org/2000/svg">
<g opacity="0.2">
<path d="M154.249 65.3744C154.249 65.3744 147.531 70.585 147.319 73.7537C143.338 73.8446 127.047 78.6796 125.856 87.8424C132.792 92.5894 146.364 81.1754 148.94 77.6785C151.093 79.2077 158.334 76.7781 158.334 76.7781C158.334 76.7781 154.885 74.1827 152.35 73.4048C154.265 69.9095 154.249 65.3744 154.249 65.3744Z" fill="#407BFF"/>
<path d="M141.72 89.7054C141.72 89.7054 132.083 94.1546 130.39 97.9058C126.045 96.916 106.225 98.2712 100.782 109.014C106.114 116.663 125.986 106.602 130.359 103.108C131.992 105.544 140.935 104.6 140.935 104.6C140.935 104.6 138.39 100.501 136.029 98.902C139.666 95.1913 141.72 89.7054 141.72 89.7054Z" fill="#407BFF"/>
<path opacity="0.6" d="M141.72 89.7054C141.72 89.7054 132.083 94.1546 130.39 97.9058C126.045 96.916 106.225 98.2712 100.782 109.014C106.114 116.663 125.986 106.602 130.359 103.108C131.992 105.544 140.935 104.6 140.935 104.6C140.935 104.6 138.39 100.501 136.029 98.902C139.666 95.1913 141.72 89.7054 141.72 89.7054Z" fill="white"/>
<path d="M110.601 82.6353C110.601 82.6353 99.7429 82.6568 96.6725 85.4094C92.9592 82.7063 73.6758 75.7201 64.2634 83.2634C66.2713 92.4497 89.0793 91.4992 94.582 90.1421C95.1602 93.0414 103.986 95.8866 103.986 95.8866C103.986 95.8866 103.206 91.0986 101.597 88.6372C104.888 87.2417 107.955 85.1972 110.601 82.6353Z" fill="#407BFF"/>
<path d="M111.063 37.9325C111.063 37.9325 107.077 41.0281 106.951 42.9029C104.581 42.9583 94.9124 45.8329 94.2103 51.2719C98.3228 54.0878 106.381 47.3099 107.913 45.2386C109.19 46.1478 113.49 44.7039 113.49 44.7039C112.414 43.8828 111.226 43.2107 109.95 42.7018C110.666 41.1656 111.046 39.5342 111.063 37.9325Z" fill="#407BFF"/>
<path d="M129.333 33.9822C129.333 33.9822 124.27 36.2903 123.632 38.0558C121.14 37.757 110.201 39.0431 107.958 44.058C111.491 47.3092 121.826 42.1126 124.001 40.3956C125.083 41.4216 129.997 40.7006 129.997 40.7006C129.071 39.7509 128.009 38.9462 126.838 38.3064C127.978 37.0436 128.835 35.5587 129.333 33.9822Z" fill="#407BFF"/>
<path opacity="0.6" d="M129.333 33.9822C129.333 33.9822 124.27 36.2903 123.632 38.0558C121.14 37.757 110.201 39.0431 107.958 44.058C111.491 47.3092 121.826 42.1126 124.001 40.3956C125.083 41.4216 129.997 40.7006 129.997 40.7006C129.071 39.7509 128.009 38.9462 126.838 38.3064C127.978 37.0436 128.835 35.5587 129.333 33.9822Z" fill="white"/>
<path d="M78.5799 60.9828C78.5799 60.9828 72.3114 60.098 70.3238 61.4826C68.3992 59.5414 57.8833 53.7096 51.8495 57.4394C52.2805 63.0428 65.4571 64.4774 68.7478 64.1183C68.8383 65.9076 73.6924 68.3637 73.6924 68.3637C73.6639 66.7805 73.4015 65.2457 72.9138 63.8092C74.9182 63.2527 76.848 62.29 78.5799 60.9828Z" fill="#407BFF"/>
<path opacity="0.6" d="M78.5799 60.9828C78.5799 60.9828 72.3114 60.098 70.3238 61.4826C68.3992 59.5414 57.8833 53.7096 51.8495 57.4394C52.2805 63.0428 65.4571 64.4774 68.7478 64.1183C68.8383 65.9076 73.6924 68.3637 73.6924 68.3637C73.6639 66.7805 73.4015 65.2457 72.9138 63.8092C74.9182 63.2527 76.848 62.29 78.5799 60.9828Z" fill="white"/>
<path d="M130.774 114.612C130.774 114.612 126.604 117.858 126.482 119.806C124.011 119.863 113.921 122.862 113.187 128.539C117.483 131.473 125.887 124.399 127.493 122.244C128.82 123.186 133.337 121.657 133.337 121.657C132.21 120.802 130.967 120.101 129.635 119.568C130.37 117.97 130.759 116.275 130.774 114.612Z" fill="#407BFF"/>
<path opacity="0.3" d="M130.774 114.612C130.774 114.612 126.604 117.858 126.482 119.806C124.011 119.863 113.921 122.862 113.187 128.539C117.483 131.473 125.887 124.399 127.493 122.244C128.82 123.186 133.337 121.657 133.337 121.657C132.21 120.802 130.967 120.101 129.635 119.568C130.37 117.97 130.759 116.275 130.774 114.612Z" fill="white"/>
<path d="M102.289 119.913C102.289 119.913 97.0254 122.345 96.3408 124.173C93.7411 123.86 82.3264 125.197 79.966 130.456C83.6549 133.846 94.429 128.426 96.707 126.627C97.8396 127.71 102.964 126.955 102.964 126.955C101.998 125.964 100.891 125.123 99.6704 124.453C100.867 123.127 101.766 121.568 102.289 119.913Z" fill="#407BFF"/>
<path d="M103.169 137.587C103.169 137.587 97.0829 139.922 95.8925 142.193C93.2854 141.374 81.1117 141.3 77.2986 147.759C80.2046 152.797 92.8199 147.454 95.6162 145.444C96.5073 147.043 102.01 146.871 102.01 146.871C101.292 145.453 100.367 144.172 99.2617 143.066C100.886 141.48 102.216 139.614 103.169 137.587Z" fill="#407BFF"/>
<path opacity="0.6" d="M103.169 137.587C103.169 137.587 97.0829 139.922 95.8925 142.193C93.2854 141.374 81.1117 141.3 77.2986 147.759C80.2046 152.797 92.8199 147.454 95.6162 145.444C96.5073 147.043 102.01 146.871 102.01 146.871C101.292 145.453 100.367 144.172 99.2617 143.066C100.886 141.48 102.216 139.614 103.169 137.587Z" fill="white"/>
<path d="M71.9571 122.333C71.9571 122.333 69.2878 123.899 69.0453 125.065C67.6243 124.887 61.5649 125.793 60.6306 129.165C62.8509 131.312 68.287 127.804 69.3884 126.65C70.0705 127.341 72.7763 126.831 72.7763 126.831C72.2038 126.217 71.5519 125.685 70.8337 125.246C71.4135 124.343 71.798 123.346 71.9571 122.333Z" fill="#407BFF"/>
<path d="M128.307 57.8285C128.307 57.8285 119.811 61.7399 118.715 64.7C114.514 64.1986 96.0862 66.3566 92.3089 74.7997C98.2588 80.2808 115.664 71.5257 119.336 68.6254C121.168 70.3792 129.444 69.153 129.444 69.153C129.444 69.153 126.549 66.1938 124.123 65.1054C126.037 62.9789 127.474 60.4802 128.307 57.8285Z" fill="#407BFF"/>
<path opacity="0.3" d="M128.307 57.8285C128.307 57.8285 119.811 61.7399 118.715 64.7C114.514 64.1986 96.0862 66.3566 92.3089 74.7997C98.2588 80.2808 115.664 71.5257 119.336 68.6254C121.168 70.3792 129.444 69.153 129.444 69.153C129.444 69.153 126.549 66.1938 124.123 65.1054C126.037 62.9789 127.474 60.4802 128.307 57.8285Z" fill="black"/>
<path d="M113.563 58.7603C113.563 58.7603 107.728 60.9934 106.607 63.1873C104.106 62.405 92.4411 62.3332 88.7914 68.5194C91.5828 73.339 103.652 68.2048 106.367 66.2969C107.214 67.8327 112.491 67.6681 112.491 67.6681C111.803 66.3093 110.917 65.0832 109.858 64.0247C111.403 62.4976 112.665 60.705 113.563 58.7603Z" fill="#407BFF"/>
<path opacity="0.3" d="M113.563 58.7603C113.563 58.7603 107.728 60.9934 106.607 63.1873C104.106 62.405 92.4411 62.3332 88.7914 68.5194C91.5828 73.339 103.652 68.2048 106.367 66.2969C107.214 67.8327 112.491 67.6681 112.491 67.6681C111.803 66.3093 110.917 65.0832 109.858 64.0247C111.403 62.4976 112.665 60.705 113.563 58.7603Z" fill="black"/>
<path d="M74.6122 138.873C74.6122 138.873 67.805 139.866 66.1357 141.756C63.5772 140.457 50.9127 137.946 45.651 143.296C47.7094 148.622 61.8823 146.09 65.225 144.777C65.8259 146.477 71.6019 147.409 71.6019 147.409C71.1342 145.885 70.4331 144.475 69.5219 143.226C71.4487 142.11 73.1826 140.628 74.6122 138.873Z" fill="#407BFF"/>
<path opacity="0.3" d="M74.6122 138.873C74.6122 138.873 67.805 139.866 66.1357 141.756C63.5772 140.457 50.9127 137.946 45.651 143.296C47.7094 148.622 61.8823 146.09 65.225 144.777C65.8259 146.477 71.6019 147.409 71.6019 147.409C71.1342 145.885 70.4331 144.475 69.5219 143.226C71.4487 142.11 73.1826 140.628 74.6122 138.873Z" fill="black"/>
<path d="M79.2482 102.654C79.2482 102.654 75.5848 103.587 74.9132 104.73C73.296 104.167 65.8697 103.526 63.6949 106.742C65.5922 109.531 73.1625 107.337 74.8303 106.422C75.4183 107.308 78.7667 107.489 78.7667 107.489C78.2824 106.69 77.6901 105.973 77.004 105.355C77.9308 104.622 78.7008 103.695 79.2482 102.654Z" fill="#407BFF"/>
<path opacity="0.3" d="M79.2482 102.654C79.2482 102.654 75.5848 103.587 74.9132 104.73C73.296 104.167 65.8697 103.526 63.6949 106.742C65.5922 109.531 73.1625 107.337 74.8303 106.422C75.4183 107.308 78.7667 107.489 78.7667 107.489C78.2824 106.69 77.6901 105.973 77.004 105.355C77.9308 104.622 78.7008 103.695 79.2482 102.654Z" fill="black"/>
<path d="M41.2067 74.3119C41.2067 74.3119 38.139 73.6385 37.1875 74.3337C36.2029 73.1979 30.9621 69.6756 28.1117 71.5556C28.4307 74.7113 34.8752 75.8579 36.4711 75.7504C36.5708 76.7576 38.9732 78.2426 38.9732 78.2426C38.9204 77.3642 38.758 76.5125 38.4898 75.707C39.4622 75.4614 40.3954 74.9822 41.2067 74.3119Z" fill="#407BFF"/>
<path opacity="0.3" d="M41.2067 74.3119C41.2067 74.3119 38.139 73.6385 37.1875 74.3337C36.2029 73.1979 30.9621 69.6756 28.1117 71.5556C28.4307 74.7113 34.8752 75.8579 36.4711 75.7504C36.5708 76.7576 38.9732 78.2426 38.9732 78.2426C38.9204 77.3642 38.758 76.5125 38.4898 75.707C39.4622 75.4614 40.3954 74.9822 41.2067 74.3119Z" fill="black"/>
<path d="M53.8463 116.44C53.8463 116.44 50.156 117.302 49.2786 118.564C47.8453 117.84 40.8633 116.725 38.1459 120.234C39.3897 123.508 47.0938 121.411 48.8752 120.469C49.2513 121.503 52.4262 121.888 52.4262 121.888C52.1345 120.974 51.7132 120.124 51.174 119.363C52.2272 118.558 53.1368 117.563 53.8463 116.44Z" fill="#407BFF"/>
<path opacity="0.6" d="M53.8463 116.44C53.8463 116.44 50.156 117.302 49.2786 118.564C47.8453 117.84 40.8633 116.725 38.1459 120.234C39.3897 123.508 47.0938 121.411 48.8752 120.469C49.2513 121.503 52.4262 121.888 52.4262 121.888C52.1345 120.974 51.7132 120.124 51.174 119.363C52.2272 118.558 53.1368 117.563 53.8463 116.44Z" fill="white"/>
<path d="M51.9304 95.7854C51.9304 95.7854 46.9627 95.7497 45.588 97.0079C43.9102 95.7639 35.171 92.5197 30.8842 95.9283C31.7604 100.105 42.1049 99.7636 44.5973 99.179C44.8147 100.535 48.8543 101.822 48.8543 101.822C48.6667 100.657 48.3068 99.5525 47.7859 98.5426C49.3018 97.906 50.7144 96.9663 51.9304 95.7854Z" fill="#407BFF"/>
</g>
<g opacity="0.2">
<path d="M1223 693.562C1223 693.562 1224.26 700.408 1222.66 702.459C1225.04 704.686 1232.34 716.527 1228.07 722.77C1221.25 721.883 1219.19 707.51 1219.52 703.97C1217.38 703.728 1214.28 698.294 1214.28 698.294C1214.28 698.294 1217.8 698.592 1219.78 699.5C1220.51 696.322 1223 693.562 1223 693.562Z" fill="#407BFF"/>
<path d="M1236.35 732.213C1236.35 732.213 1239.8 740.187 1238.79 743.401C1241.98 745.167 1253.34 756.809 1250.8 766.337C1243.37 768.096 1236.73 751.112 1235.97 746.593C1233.64 747.189 1228.7 741.734 1228.7 741.734C1228.7 741.734 1232.49 740.62 1234.8 740.932C1234.61 736.683 1236.35 732.213 1236.35 732.213Z" fill="#407BFF"/>
<path opacity="0.6" d="M1236.35 732.213C1236.35 732.213 1239.8 740.187 1238.79 743.401C1241.98 745.167 1253.34 756.809 1250.8 766.337C1243.37 768.096 1236.73 751.112 1235.97 746.593C1233.64 747.189 1228.7 741.734 1228.7 741.734C1228.7 741.734 1232.49 740.62 1234.8 740.932C1234.61 736.683 1236.35 732.213 1236.35 732.213Z" fill="white"/>
<path d="M1259.2 744.877C1259.2 744.877 1265.82 750.815 1266.19 754.17C1269.93 754.546 1285.51 760.803 1287.14 770.544C1280.9 775.056 1267.5 762.031 1264.88 758.2C1262.95 759.654 1256.01 756.575 1256.01 756.575C1256.01 756.575 1259.1 754.078 1261.42 753.454C1260.17 750.806 1259.42 747.884 1259.2 744.877Z" fill="#407BFF"/>
<path d="M1264.33 700.374C1264.33 700.374 1265.08 704.439 1264.13 705.652C1265.55 706.979 1269.88 714.01 1267.34 717.713C1263.3 717.188 1262.07 708.653 1262.27 706.553C1260.99 706.412 1259.16 703.184 1259.16 703.184C1260.26 703.27 1261.35 703.508 1262.41 703.893C1262.81 702.565 1263.47 701.361 1264.33 700.374Z" fill="#407BFF"/>
<path d="M1274.31 704.957C1274.31 704.957 1276.14 709.128 1275.57 710.554C1277.25 711.732 1283.23 718.485 1281.86 722.77C1277.93 722.827 1274.46 714.016 1274.07 711.781C1272.85 711.817 1270.24 708.695 1270.24 708.695C1271.32 708.621 1272.41 708.709 1273.48 708.958C1273.47 707.565 1273.76 706.191 1274.31 704.957Z" fill="#407BFF"/>
<path opacity="0.6" d="M1274.31 704.957C1274.31 704.957 1276.14 709.128 1275.57 710.554C1277.25 711.732 1283.23 718.485 1281.86 722.77C1277.93 722.827 1274.46 714.016 1274.07 711.781C1272.85 711.817 1270.24 708.695 1270.24 708.695C1271.32 708.621 1272.41 708.709 1273.48 708.958C1273.47 707.565 1273.76 706.191 1274.31 704.957Z" fill="white"/>
<path d="M1290.56 749.131C1290.56 749.131 1294.87 752.012 1295.33 753.941C1297.56 753.807 1307.16 755.984 1308.81 761.553C1305.49 764.739 1296.66 758.425 1294.85 756.41C1293.82 757.453 1289.52 756.304 1289.52 756.304C1290.4 755.353 1291.4 754.559 1292.48 753.948C1291.56 752.515 1290.9 750.874 1290.56 749.131Z" fill="#407BFF"/>
<path opacity="0.6" d="M1290.56 749.131C1290.56 749.131 1294.87 752.012 1295.33 753.941C1297.56 753.807 1307.16 755.984 1308.81 761.553C1305.49 764.739 1296.66 758.425 1294.85 756.41C1293.82 757.453 1289.52 756.304 1289.52 756.304C1290.4 755.353 1291.4 754.559 1292.48 753.948C1291.56 752.515 1290.9 750.874 1290.56 749.131Z" fill="white"/>
<path d="M1229.44 753.389C1229.44 753.389 1230.21 757.646 1229.22 758.902C1230.7 760.285 1235.22 767.62 1232.58 771.487C1228.35 770.933 1227.08 762.03 1227.28 759.838C1225.95 759.689 1224.03 756.291 1224.03 756.291C1225.18 756.384 1226.33 756.634 1227.43 757.036C1227.85 755.659 1228.54 754.413 1229.44 753.389Z" fill="#407BFF"/>
<path opacity="0.3" d="M1229.44 753.389C1229.44 753.389 1230.21 757.646 1229.22 758.902C1230.7 760.285 1235.22 767.62 1232.58 771.487C1228.35 770.933 1227.08 762.03 1227.28 759.838C1225.95 759.689 1224.03 756.291 1224.03 756.291C1225.18 756.384 1226.33 756.634 1227.43 757.036C1227.85 755.659 1228.54 754.413 1229.44 753.389Z" fill="white"/>
<path d="M1243.93 772.168C1243.93 772.168 1245.82 776.524 1245.24 778.014C1247 779.241 1253.24 786.286 1251.81 790.783C1247.71 790.84 1244.09 781.653 1243.68 779.312C1242.4 779.354 1239.68 776.098 1239.68 776.098C1240.81 776.02 1241.94 776.11 1243.06 776.368C1243.05 774.905 1243.35 773.463 1243.93 772.168Z" fill="#407BFF"/>
<path d="M1233.75 782.476C1233.75 782.476 1236.19 787.222 1235.68 789.258C1237.72 790.18 1245.19 796.778 1243.99 802.801C1239.47 804.291 1234.69 794.146 1234.08 791.393C1232.66 791.883 1229.39 788.776 1229.39 788.776C1230.61 788.302 1231.87 788.025 1233.15 787.953C1233.02 786.098 1233.23 784.234 1233.75 782.476Z" fill="#407BFF"/>
<path opacity="0.6" d="M1233.75 782.476C1233.75 782.476 1236.19 787.222 1235.68 789.258C1237.72 790.18 1245.19 796.778 1243.99 802.801C1239.47 804.291 1234.69 794.146 1234.08 791.393C1232.66 791.883 1229.39 788.776 1229.39 788.776C1230.61 788.302 1231.87 788.025 1233.15 787.953C1233.02 786.098 1233.23 784.234 1233.75 782.476Z" fill="white"/>
<path d="M1261.13 790.195C1261.13 790.195 1261.9 792.607 1261.42 793.451C1262.38 794.118 1265.58 797.978 1264.31 800.546C1261.79 800.645 1260.38 795.537 1260.34 794.232C1259.55 794.281 1258.17 792.494 1258.17 792.494C1258.86 792.431 1259.55 792.462 1260.23 792.586C1260.36 791.719 1260.67 790.9 1261.13 790.195Z" fill="#407BFF"/>
<path d="M1242.95 703.111C1242.95 703.111 1246 710.134 1245.06 712.539C1247.9 714.526 1257.97 725.898 1255.67 733.113C1249.04 733.212 1243.2 718.371 1242.54 714.597C1240.46 714.668 1236.08 709.404 1236.08 709.404C1236.08 709.404 1239.46 709.177 1241.53 709.836C1241.53 707.494 1242.01 705.184 1242.95 703.111Z" fill="#407BFF"/>
<path opacity="0.3" d="M1242.95 703.111C1242.95 703.111 1246 710.134 1245.06 712.539C1247.9 714.526 1257.97 725.898 1255.67 733.113C1249.04 733.212 1243.2 718.371 1242.54 714.597C1240.46 714.668 1236.08 709.404 1236.08 709.404C1236.08 709.404 1239.46 709.177 1241.53 709.836C1241.53 707.494 1242.01 705.184 1242.95 703.111Z" fill="black"/>
<path d="M1270.42 728.687C1270.42 728.687 1272.76 733.234 1272.25 735.185C1274.2 736.072 1281.36 742.393 1280.22 748.16C1275.88 749.579 1271.32 739.86 1270.7 737.214C1269.34 737.689 1266.21 734.71 1266.21 734.71C1267.37 734.255 1268.58 733.99 1269.81 733.922C1269.7 732.147 1269.91 730.364 1270.42 728.687Z" fill="#407BFF"/>
<path opacity="0.3" d="M1270.42 728.687C1270.42 728.687 1272.76 733.234 1272.25 735.185C1274.2 736.072 1281.36 742.393 1280.22 748.16C1275.88 749.579 1271.32 739.86 1270.7 737.214C1269.34 737.689 1266.21 734.71 1266.21 734.71C1267.37 734.255 1268.58 733.99 1269.81 733.922C1269.7 732.147 1269.91 730.364 1270.42 728.687Z" fill="black"/>
<path d="M1250.48 798.843C1250.48 798.843 1254.1 803.163 1254.08 805.228C1256.35 805.831 1265.46 811.208 1265.75 817.345C1261.59 819.473 1254.32 810.194 1252.99 807.569C1251.7 808.278 1247.66 805.696 1247.66 805.696C1248.78 805.021 1249.98 804.543 1251.22 804.277C1250.65 802.545 1250.4 800.694 1250.48 798.843Z" fill="#407BFF"/>
<path opacity="0.3" d="M1250.48 798.843C1250.48 798.843 1254.1 803.163 1254.08 805.228C1256.35 805.831 1265.46 811.208 1265.75 817.345C1261.59 819.473 1254.32 810.194 1252.99 807.569C1251.7 808.278 1247.66 805.696 1247.66 805.696C1248.78 805.021 1249.98 804.543 1251.22 804.277C1250.65 802.545 1250.4 800.694 1250.48 798.843Z" fill="black"/>
<path d="M1267.42 774.204C1267.42 774.204 1269.14 776.772 1268.93 777.837C1270.22 778.376 1275.11 782.036 1274.68 785.186C1272 785.853 1268.58 780.383 1268.06 778.915C1267.21 779.135 1265.07 777.418 1265.07 777.418C1265.8 777.195 1266.56 777.08 1267.31 777.077C1267.15 776.124 1267.18 775.138 1267.42 774.204Z" fill="#407BFF"/>
<path opacity="0.3" d="M1267.42 774.204C1267.42 774.204 1269.14 776.772 1268.93 777.837C1270.22 778.376 1275.11 782.036 1274.68 785.186C1272 785.853 1268.58 780.383 1268.06 778.915C1267.21 779.135 1265.07 777.418 1265.07 777.418C1265.8 777.195 1266.56 777.08 1267.31 777.077C1267.15 776.124 1267.18 775.138 1267.42 774.204Z" fill="black"/>
<path d="M1306.1 777.66C1306.1 777.66 1308.34 778.923 1308.54 779.866C1309.76 779.71 1314.89 780.42 1315.6 783.123C1313.68 784.875 1309.12 782.059 1308.21 781.122C1307.6 781.683 1305.32 781.278 1305.32 781.278C1305.83 780.771 1306.4 780.339 1307 779.994C1306.54 779.314 1306.23 778.512 1306.1 777.66Z" fill="#407BFF"/>
<path opacity="0.3" d="M1306.1 777.66C1306.1 777.66 1308.34 778.923 1308.54 779.866C1309.76 779.71 1314.89 780.42 1315.6 783.123C1313.68 784.875 1309.12 782.059 1308.21 781.122C1307.6 781.683 1305.32 781.278 1305.32 781.278C1305.83 780.771 1306.4 780.339 1307 779.994C1306.54 779.314 1306.23 778.512 1306.1 777.66Z" fill="black"/>
<path d="M1275.4 796.48C1275.4 796.48 1277.18 799.02 1277.03 800.268C1278.3 800.609 1283.17 803.737 1282.91 807.363C1280.37 808.682 1276.81 803.198 1276.24 801.652C1275.44 802.077 1273.29 800.58 1273.29 800.58C1273.97 800.181 1274.69 799.893 1275.44 799.722C1275.23 798.656 1275.22 797.552 1275.4 796.48Z" fill="#407BFF"/>
<path opacity="0.6" d="M1275.4 796.48C1275.4 796.48 1277.18 799.02 1277.03 800.268C1278.3 800.609 1283.17 803.737 1282.91 807.363C1280.37 808.682 1276.81 803.198 1276.24 801.652C1275.44 802.077 1273.29 800.58 1273.29 800.58C1273.97 800.181 1274.69 799.893 1275.44 799.722C1275.23 798.656 1275.22 797.552 1275.4 796.48Z" fill="white"/>
<path d="M1287.84 784.917C1287.84 784.917 1290.89 787.606 1291.04 789.124C1292.75 789.28 1299.85 792.068 1300.61 796.488C1297.79 798.559 1291.67 792.706 1290.46 790.99C1289.59 791.699 1286.42 790.28 1286.42 790.28C1287.17 789.672 1288 789.194 1288.86 788.861C1288.29 787.646 1287.94 786.301 1287.84 784.917Z" fill="#407BFF"/>
</g>
</svg>
