<svg width="713" height="367" viewBox="0 0 713 367" fill="none" xmlns="http://www.w3.org/2000/svg">
<g opacity="0.62">
<path d="M485.018 163.211C548.33 173.422 584.085 128.913 591.648 83.6144C569.163 76.1326 525 52.1649 518.865 5.75157C518.624 3.92463 520.822 2.8885 522.191 4.12502C531.078 12.1537 540.794 17.8079 554.994 20.4166C554.994 20.4166 600.297 15.9864 610.795 29.1651C621.632 13.9435 672.957 18.9626 672.957 18.9626C688.901 16.0337 699.739 9.63628 709.692 0.545882C711.054 -0.698084 713.241 0.330745 712.978 2.15478C705.642 53.1027 643.786 76.0413 618.274 84.5751C610.931 293.236 379.324 316.459 265.093 323.101L205.114 316.449C52.7043 305.384 -2.73315 212.084 0.103333 178.008C0.169861 177.209 2.69153 178.296 2.69153 178.008C2.69153 177.721 0.171387 177.295 0.39093 176.571C1.69385 172.269 4.69281 168.039 8.51416 167.253C38.9966 167.873 67.8461 168.41 95.1512 168.86C105.814 159.889 128.473 160.117 136.162 169.488C290.521 171.651 390.98 170.649 456.708 165.777C475.022 146.812 481.695 157.083 485.018 163.211Z" fill="#1B3080"/>
<mask id="mask0" style="mask-type:alpha" maskUnits="userSpaceOnUse" x="0" y="0" width="713" height="367">
<path d="M485.018 163.211C548.329 173.422 584.085 128.913 591.648 83.6144C569.162 76.1326 524.999 52.1649 518.865 5.75157C518.623 3.92463 520.821 2.8885 522.19 4.12502C531.078 12.1536 540.794 17.8079 554.994 20.4166C554.994 20.4166 600.296 15.9864 610.795 29.1651C621.632 13.9435 672.957 18.9626 672.957 18.9626C688.9 16.0337 699.738 9.63628 709.691 0.545882C711.053 -0.698084 713.241 0.330745 712.978 2.15478C705.642 53.1026 643.786 76.0413 618.273 84.5751C610.931 293.236 379.323 316.459 265.093 323.101C275.463 336.04 279.11 347.638 282.31 357.892C283.634 362.133 280.616 366.622 276.174 366.359C238.475 364.12 213.365 332.922 205.113 316.449C52.7039 305.384 -2.73358 212.084 0.102905 178.008C0.169434 177.209 2.6911 178.296 2.6911 178.008C2.6911 177.721 0.170959 177.295 0.390503 176.571C1.69342 172.269 4.69238 168.039 8.51373 167.253C38.9962 167.873 67.8456 168.41 95.1508 168.86C105.814 159.889 128.473 160.117 136.161 169.488C290.52 171.651 390.979 170.649 456.707 165.777C475.021 146.812 481.694 157.083 485.018 163.211Z" fill="#1B3180"/>
</mask>
<g mask="url(#mask0)">
<path d="M574.389 210.792C310.395 399.728 48.9901 259.104 48.9901 160.754H-12.5508C-4.2111 341.063 167.758 306.171 265.534 323.233C274.966 338.187 475.367 303.582 574.389 284.411V210.792Z" fill="#394E95"/>
</g>
<circle cx="109.669" cy="219.707" r="37.3847" fill="#1B3080"/>
<rect x="84.3628" y="190.949" width="38.535" height="20.1302" rx="10.0651" fill="#394E95"/>
<path d="M367.335 211.079C337.675 211.079 333.735 183.472 335.473 169.669H367.335V211.079Z" fill="#394E95"/>
<path d="M263.233 346.814C211.857 346.814 205.034 295.818 208.044 270.32H263.233V346.814Z" fill="#1B3080"/>
<path d="M335.702 121.356C289.092 121.356 282.902 167.752 285.633 190.949H335.702V121.356Z" fill="#1B3080"/>
</g>
</svg>
