<svg width="194" height="196" viewBox="0 0 194 196" fill="none" xmlns="http://www.w3.org/2000/svg">
<g opacity="0.2">
<path d="M185.336 75.3744C185.336 75.3744 178.618 80.585 178.406 83.7537C174.425 83.8446 158.134 88.6796 156.943 97.8424C163.879 102.589 177.451 91.1754 180.027 87.6785C182.18 89.2077 189.421 86.7781 189.421 86.7781C189.421 86.7781 185.972 84.1827 183.437 83.4048C185.352 79.9095 185.336 75.3744 185.336 75.3744Z" fill="#407BFF"/>
<path d="M141.72 99.7053C141.72 99.7053 132.083 104.155 130.39 107.906C126.045 106.916 106.225 108.271 100.782 119.014C106.115 126.663 125.986 116.602 130.36 113.108C131.992 115.544 140.935 114.6 140.935 114.6C140.935 114.6 138.39 110.501 136.029 108.902C139.666 105.191 141.72 99.7053 141.72 99.7053Z" fill="#407BFF"/>
<path opacity="0.6" d="M141.72 99.7053C141.72 99.7053 132.083 104.155 130.39 107.906C126.045 106.916 106.225 108.271 100.782 119.014C106.115 126.663 125.986 116.602 130.36 113.108C131.992 115.544 140.935 114.6 140.935 114.6C140.935 114.6 138.39 110.501 136.029 108.902C139.666 105.191 141.72 99.7053 141.72 99.7053Z" fill="white"/>
<path d="M110.602 92.6353C110.602 92.6353 99.7431 92.6569 96.6727 95.4095C92.9594 92.7063 73.676 85.7201 64.2635 93.2635C66.2715 102.45 89.0795 101.499 94.5822 100.142C95.1604 103.041 103.986 105.887 103.986 105.887C103.986 105.887 103.206 101.099 101.597 98.6373C104.888 97.2417 107.955 95.1972 110.602 92.6353Z" fill="#407BFF"/>
<path d="M142.15 47.9325C142.15 47.9325 138.163 51.0281 138.038 52.9029C135.668 52.9583 125.999 55.8329 125.297 61.2719C129.41 64.0879 137.468 57.3099 138.999 55.2387C140.277 56.1478 144.577 54.7039 144.577 54.7039C143.501 53.8828 142.313 53.2108 141.037 52.7018C141.753 51.1657 142.133 49.5342 142.15 47.9325Z" fill="#407BFF"/>
<path d="M129.334 43.9823C129.334 43.9823 124.271 46.2904 123.632 48.0559C121.14 47.7571 110.201 49.0432 107.958 54.0581C111.491 57.3094 121.826 52.1128 124.001 50.3958C125.084 51.4217 129.998 50.7007 129.998 50.7007C129.072 49.7511 128.01 48.9464 126.838 48.3065C127.979 47.0437 128.836 45.5589 129.334 43.9823Z" fill="#407BFF"/>
<path opacity="0.6" d="M129.334 43.9823C129.334 43.9823 124.271 46.2904 123.632 48.0559C121.14 47.7571 110.201 49.0432 107.958 54.0581C111.491 57.3094 121.826 52.1128 124.001 50.3958C125.084 51.4217 129.998 50.7007 129.998 50.7007C129.072 49.7511 128.01 48.9464 126.838 48.3065C127.979 47.0437 128.836 45.5589 129.334 43.9823Z" fill="white"/>
<path d="M78.5803 70.9828C78.5803 70.9828 72.3117 70.098 70.3241 71.4826C68.3995 69.5415 57.8836 63.7096 51.8498 67.4394C52.2808 73.0428 65.4574 74.4774 68.7481 74.1183C68.8386 75.9076 73.6927 78.3637 73.6927 78.3637C73.6642 76.7806 73.4018 75.2457 72.9141 73.8093C74.9185 73.2527 76.8483 72.2901 78.5803 70.9828Z" fill="#407BFF"/>
<path opacity="0.6" d="M78.5803 70.9828C78.5803 70.9828 72.3117 70.098 70.3241 71.4826C68.3995 69.5415 57.8836 63.7096 51.8498 67.4394C52.2808 73.0428 65.4574 74.4774 68.7481 74.1183C68.8386 75.9076 73.6927 78.3637 73.6927 78.3637C73.6642 76.7806 73.4018 75.2457 72.9141 73.8093C74.9185 73.2527 76.8483 72.2901 78.5803 70.9828Z" fill="white"/>
<path d="M130.774 124.613C130.774 124.613 126.603 127.858 126.482 129.806C124.011 129.863 113.921 132.862 113.186 138.539C117.483 141.473 125.886 134.399 127.493 132.244C128.82 133.186 133.337 131.657 133.337 131.657C132.21 130.802 130.967 130.101 129.635 129.568C130.369 127.97 130.759 126.275 130.774 124.613Z" fill="#407BFF"/>
<path opacity="0.3" d="M130.774 124.613C130.774 124.613 126.603 127.858 126.482 129.806C124.011 129.863 113.921 132.862 113.186 138.539C117.483 141.473 125.886 134.399 127.493 132.244C128.82 133.186 133.337 131.657 133.337 131.657C132.21 130.802 130.967 130.101 129.635 129.568C130.369 127.97 130.759 126.275 130.774 124.613Z" fill="white"/>
<path d="M102.289 129.913C102.289 129.913 97.0259 132.345 96.3413 134.173C93.7415 133.86 82.3269 135.198 79.9665 140.456C83.6554 143.846 94.4295 138.427 96.7075 136.628C97.8401 137.71 102.964 136.955 102.964 136.955C101.998 135.964 100.892 135.123 99.6709 134.453C100.868 133.127 101.767 131.569 102.289 129.913Z" fill="#407BFF"/>
<path d="M103.17 147.587C103.17 147.587 97.0832 149.922 95.8928 152.193C93.2856 151.373 81.112 151.3 77.2988 157.759C80.2049 162.797 92.8201 157.454 95.6164 155.444C96.5075 157.043 102.01 156.871 102.01 156.871C101.292 155.453 100.367 154.172 99.262 153.066C100.886 151.48 102.217 149.614 103.17 147.587Z" fill="#407BFF"/>
<path opacity="0.6" d="M103.17 147.587C103.17 147.587 97.0832 149.922 95.8928 152.193C93.2856 151.373 81.112 151.3 77.2988 157.759C80.2049 162.797 92.8201 157.454 95.6164 155.444C96.5075 157.043 102.01 156.871 102.01 156.871C101.292 155.453 100.367 154.172 99.262 153.066C100.886 151.48 102.217 149.614 103.17 147.587Z" fill="white"/>
<path d="M71.957 132.333C71.957 132.333 69.2878 133.899 69.0453 135.065C67.6243 134.887 61.5648 135.793 60.6306 139.165C62.8508 141.313 68.2869 137.804 69.3883 136.65C70.0705 137.341 72.7763 136.831 72.7763 136.831C72.2038 136.217 71.5518 135.685 70.8336 135.246C71.4135 134.343 71.798 133.346 71.957 132.333Z" fill="#407BFF"/>
<path d="M159.394 67.8285C159.394 67.8285 150.898 71.7399 149.802 74.7C145.601 74.1986 127.173 76.3567 123.396 84.7997C129.346 90.2808 146.751 81.5257 150.423 78.6254C152.255 80.3793 160.531 79.153 160.531 79.153C160.531 79.153 157.636 76.1938 155.209 75.1054C157.124 72.9789 158.561 70.4802 159.394 67.8285Z" fill="#407BFF"/>
<path opacity="0.3" d="M159.394 67.8285C159.394 67.8285 150.898 71.7399 149.802 74.7C145.601 74.1986 127.173 76.3567 123.396 84.7997C129.346 90.2808 146.751 81.5257 150.423 78.6254C152.255 80.3793 160.531 79.153 160.531 79.153C160.531 79.153 157.636 76.1938 155.209 75.1054C157.124 72.9789 158.561 70.4802 159.394 67.8285Z" fill="black"/>
<path d="M113.564 68.7603C113.564 68.7603 107.728 70.9935 106.607 73.1874C104.106 72.4051 92.4414 72.3333 88.7917 78.5195C91.5831 83.3391 103.652 78.2048 106.367 76.297C107.214 77.8328 112.491 77.6682 112.491 77.6682C111.803 76.3094 110.917 75.0833 109.858 74.0248C111.403 72.4977 112.665 70.7051 113.564 68.7603Z" fill="#407BFF"/>
<path opacity="0.3" d="M113.564 68.7603C113.564 68.7603 107.728 70.9935 106.607 73.1874C104.106 72.4051 92.4414 72.3333 88.7917 78.5195C91.5831 83.3391 103.652 78.2048 106.367 76.297C107.214 77.8328 112.491 77.6682 112.491 77.6682C111.803 76.3094 110.917 75.0833 109.858 74.0248C111.403 72.4977 112.665 70.7051 113.564 68.7603Z" fill="black"/>
<path d="M74.6126 148.874C74.6126 148.874 67.8054 149.867 66.1361 151.756C63.5776 150.457 50.9132 147.946 45.6514 153.296C47.7098 158.622 61.8828 156.09 65.2255 154.778C65.8264 156.477 71.6023 157.409 71.6023 157.409C71.1346 155.885 70.4336 154.475 69.5223 153.226C71.4491 152.11 73.183 150.628 74.6126 148.874Z" fill="#407BFF"/>
<path opacity="0.3" d="M74.6126 148.874C74.6126 148.874 67.8054 149.867 66.1361 151.756C63.5776 150.457 50.9132 147.946 45.6514 153.296C47.7098 158.622 61.8828 156.09 65.2255 154.778C65.8264 156.477 71.6023 157.409 71.6023 157.409C71.1346 155.885 70.4336 154.475 69.5223 153.226C71.4491 152.11 73.183 150.628 74.6126 148.874Z" fill="black"/>
<path d="M79.248 112.654C79.248 112.654 75.5846 113.587 74.913 114.73C73.2958 114.167 65.8695 113.526 63.6947 116.742C65.592 119.531 73.1623 117.337 74.8301 116.422C75.4181 117.308 78.7665 117.489 78.7665 117.489C78.2823 116.69 77.69 115.973 77.0038 115.355C77.9306 114.622 78.7006 113.695 79.248 112.654Z" fill="#407BFF"/>
<path opacity="0.3" d="M79.248 112.654C79.248 112.654 75.5846 113.587 74.913 114.73C73.2958 114.167 65.8695 113.526 63.6947 116.742C65.592 119.531 73.1623 117.337 74.8301 116.422C75.4181 117.308 78.7665 117.489 78.7665 117.489C78.2823 116.69 77.69 115.973 77.0038 115.355C77.9306 114.622 78.7006 113.695 79.248 112.654Z" fill="black"/>
<path d="M41.2062 84.312C41.2062 84.312 38.1385 83.6385 37.187 84.3338C36.2024 83.198 30.9616 79.6756 28.1112 81.5556C28.4302 84.7114 34.8747 85.858 36.4707 85.7505C36.5703 86.7577 38.9727 88.2426 38.9727 88.2426C38.9199 87.3643 38.7575 86.5125 38.4893 85.707C39.4617 85.4614 40.3949 84.9823 41.2062 84.312Z" fill="#407BFF"/>
<path opacity="0.3" d="M41.2062 84.312C41.2062 84.312 38.1385 83.6385 37.187 84.3338C36.2024 83.198 30.9616 79.6756 28.1112 81.5556C28.4302 84.7114 34.8747 85.858 36.4707 85.7505C36.5703 86.7577 38.9727 88.2426 38.9727 88.2426C38.9199 87.3643 38.7575 86.5125 38.4893 85.707C39.4617 85.4614 40.3949 84.9823 41.2062 84.312Z" fill="black"/>
<path d="M53.8462 126.44C53.8462 126.44 50.1559 127.302 49.2786 128.564C47.8453 127.84 40.8632 126.725 38.1459 130.234C39.3896 133.508 47.0938 131.411 48.8751 130.469C49.2512 131.503 52.4261 131.888 52.4261 131.888C52.1345 130.974 51.7131 130.124 51.1739 129.363C52.2271 128.558 53.1368 127.563 53.8462 126.44Z" fill="#407BFF"/>
<path opacity="0.6" d="M53.8462 126.44C53.8462 126.44 50.1559 127.302 49.2786 128.564C47.8453 127.84 40.8632 126.725 38.1459 130.234C39.3896 133.508 47.0938 131.411 48.8751 130.469C49.2512 131.503 52.4261 131.888 52.4261 131.888C52.1345 130.974 51.7131 130.124 51.1739 129.363C52.2271 128.558 53.1368 127.563 53.8462 126.44Z" fill="white"/>
<path d="M51.9301 105.786C51.9301 105.786 46.9624 105.75 45.5877 107.008C43.9099 105.764 35.1707 102.52 30.884 105.928C31.7602 110.105 42.1047 109.764 44.5971 109.179C44.8145 110.536 48.8541 111.822 48.8541 111.822C48.6665 110.657 48.3065 109.553 47.7857 108.543C49.3016 107.906 50.7142 106.966 51.9301 105.786Z" fill="#407BFF"/>
</g>
</svg>
