<svg width="102" height="125" viewBox="0 0 102 125" fill="none" xmlns="http://www.w3.org/2000/svg">
<g opacity="0.2">
<path d="M8.99898 0.562099C8.99898 0.562099 10.2564 7.40809 8.65716 9.45834C11.0376 11.686 18.3439 23.5263 14.0712 29.7693C7.24719 28.8825 5.1902 14.5095 5.52591 10.9694C3.37737 10.7282 0.282736 5.29399 0.282736 5.29399C0.282736 5.29399 3.80464 5.59195 5.77617 6.50002C6.51473 3.32178 8.99898 0.562099 8.99898 0.562099Z" fill="#407BFF"/>
<path d="M22.3472 39.213C22.3472 39.213 25.802 47.187 24.7888 50.4007C27.9811 52.1672 39.3403 63.8089 36.8011 73.3366C29.3727 75.096 22.7318 58.1122 21.9688 53.5932C19.6433 54.1891 14.6992 48.7336 14.6992 48.7336C14.6992 48.7336 18.4896 47.6198 20.803 47.9319C20.6077 43.6824 22.3472 39.213 22.3472 39.213Z" fill="#407BFF"/>
<path opacity="0.6" d="M22.3472 39.213C22.3472 39.213 25.802 47.187 24.7888 50.4007C27.9811 52.1672 39.3403 63.8089 36.8011 73.3366C29.3727 75.096 22.7318 58.1122 21.9688 53.5932C19.6433 54.1891 14.6992 48.7336 14.6992 48.7336C14.6992 48.7336 18.4896 47.6198 20.803 47.9319C20.6077 43.6824 22.3472 39.213 22.3472 39.213Z" fill="white"/>
<path d="M45.2003 51.8765C45.2003 51.8765 51.8168 57.8144 52.1892 61.17C55.9308 61.546 71.5138 67.8032 73.1436 77.5436C66.9055 82.0556 53.5015 69.0305 50.8829 65.1996C48.948 66.6539 42.008 63.575 42.008 63.575C42.008 63.575 45.0965 61.0778 47.4221 60.4535C46.1747 57.806 45.4179 54.8844 45.2003 51.8765Z" fill="#407BFF"/>
<path d="M50.3327 7.3742C50.3327 7.3742 51.0773 11.4392 50.1312 12.6524C51.5473 13.979 55.881 21.0094 53.3418 24.7126C49.295 24.1877 48.0742 15.6532 48.2696 13.5533C46.9939 13.4114 45.1566 10.1835 45.1566 10.1835C46.2614 10.2694 47.3535 10.5076 48.41 10.893C48.8114 9.56487 49.4691 8.36121 50.3327 7.3742Z" fill="#407BFF"/>
<path d="M60.3125 11.9565C60.3125 11.9565 62.1436 16.1279 61.5699 17.5539C63.2545 18.7315 69.2302 25.4853 67.8629 29.7702C63.932 29.827 60.459 21.0159 60.0683 18.7812C58.8476 18.8167 56.2412 15.6952 56.2412 15.6952C57.3248 15.6209 58.4121 15.7091 59.4763 15.9577C59.4691 14.5645 59.7563 13.1906 60.3125 11.9565Z" fill="#407BFF"/>
<path opacity="0.6" d="M60.3125 11.9565C60.3125 11.9565 62.1436 16.1279 61.5699 17.5539C63.2545 18.7315 69.2302 25.4853 67.8629 29.7702C63.932 29.827 60.459 21.0159 60.0683 18.7812C58.8476 18.8167 56.2412 15.6952 56.2412 15.6952C57.3248 15.6209 58.4121 15.7091 59.4763 15.9577C59.4691 14.5645 59.7563 13.1906 60.3125 11.9565Z" fill="white"/>
<path d="M76.5611 56.1313C76.5611 56.1313 80.8704 59.0116 81.3282 60.9413C83.5622 60.8065 93.1635 62.9844 94.8115 68.5534C91.491 71.7388 82.6649 65.4249 80.8521 63.4101C79.8206 64.4529 75.5174 63.3037 75.5174 63.3037C76.3986 62.3528 77.3962 61.5591 78.4777 60.9484C77.5578 59.5149 76.9051 57.8743 76.5611 56.1313Z" fill="#407BFF"/>
<path opacity="0.6" d="M76.5611 56.1313C76.5611 56.1313 80.8704 59.0116 81.3282 60.9413C83.5622 60.8065 93.1635 62.9844 94.8115 68.5534C91.491 71.7388 82.6649 65.4249 80.8521 63.4101C79.8206 64.4529 75.5174 63.3037 75.5174 63.3037C76.3986 62.3528 77.3962 61.5591 78.4777 60.9484C77.5578 59.5149 76.9051 57.8743 76.5611 56.1313Z" fill="white"/>
<path d="M15.4384 60.389C15.4384 60.389 16.2136 64.6456 15.2248 65.9013C16.7019 67.2847 21.2248 74.6202 18.5758 78.4866C14.3519 77.9332 13.0823 69.0299 13.2777 66.8377C11.9531 66.6888 10.0304 63.2906 10.0304 63.2906C11.1848 63.3841 12.3258 63.6341 13.4303 64.0355C13.8537 62.6591 14.5403 61.4123 15.4384 60.389Z" fill="#407BFF"/>
<path opacity="0.3" d="M15.4384 60.389C15.4384 60.389 16.2136 64.6456 15.2248 65.9013C16.7019 67.2847 21.2248 74.6202 18.5758 78.4866C14.3519 77.9332 13.0823 69.0299 13.2777 66.8377C11.9531 66.6888 10.0304 63.2906 10.0304 63.2906C11.1848 63.3841 12.3258 63.6341 13.4303 64.0355C13.8537 62.6591 14.5403 61.4123 15.4384 60.389Z" fill="white"/>
<path d="M29.9349 79.1678C29.9349 79.1678 31.821 83.5237 31.2411 85.0135C32.999 86.2408 39.2371 93.2854 37.8089 97.7832C33.7071 97.8399 30.0875 88.6528 29.6786 86.3117C28.3968 86.3543 25.6806 83.098 25.6806 83.098C26.811 83.0197 27.9454 83.1103 29.056 83.3676C29.0487 81.9051 29.3505 80.463 29.9349 79.1678Z" fill="#407BFF"/>
<path d="M19.7529 89.4758C19.7529 89.4758 22.1944 94.2219 21.6817 96.258C23.7204 97.1802 31.1914 103.778 29.9951 109.801C25.4722 111.291 20.6868 101.146 20.0764 98.3933C18.6603 98.8828 15.3948 95.7755 15.3948 95.7755C16.6075 95.3017 17.8707 95.0248 19.1486 94.9526C19.0227 93.0981 19.2285 91.2334 19.7529 89.4758Z" fill="#407BFF"/>
<path opacity="0.6" d="M19.7529 89.4758C19.7529 89.4758 22.1944 94.2219 21.6817 96.258C23.7204 97.1802 31.1914 103.778 29.9951 109.801C25.4722 111.291 20.6868 101.146 20.0764 98.3933C18.6603 98.8828 15.3948 95.7755 15.3948 95.7755C16.6075 95.3017 17.8707 95.0248 19.1486 94.9526C19.0227 93.0981 19.2285 91.2334 19.7529 89.4758Z" fill="white"/>
<path d="M47.1289 97.1949C47.1289 97.1949 47.9041 99.6069 47.4158 100.451C48.3802 101.118 51.5847 104.977 50.3151 107.545C47.7881 107.645 46.3842 102.537 46.3415 101.232C45.548 101.281 44.1746 99.4934 44.1746 99.4934C44.859 99.4311 45.5473 99.4621 46.2255 99.5857C46.364 98.7184 46.6731 97.9002 47.1289 97.1949Z" fill="#407BFF"/>
<path d="M28.9518 10.1108C28.9518 10.1108 32.0037 17.1341 31.0577 19.5391C33.8959 21.5255 43.9672 32.8976 41.6661 40.1125C35.0434 40.2119 29.196 25.3706 28.5368 21.5965C26.4615 21.6674 22.0789 16.4034 22.0789 16.4034C22.0789 16.4034 25.4605 16.1764 27.5357 16.8362C27.5275 14.4935 28.0137 12.1843 28.9518 10.1108Z" fill="#407BFF"/>
<path opacity="0.3" d="M28.9518 10.1108C28.9518 10.1108 32.0037 17.1341 31.0577 19.5391C33.8959 21.5255 43.9672 32.8976 41.6661 40.1125C35.0434 40.2119 29.196 25.3706 28.5368 21.5965C26.4615 21.6674 22.0789 16.4034 22.0789 16.4034C22.0789 16.4034 25.4605 16.1764 27.5357 16.8362C27.5275 14.4935 28.0137 12.1843 28.9518 10.1108Z" fill="black"/>
<path d="M56.4195 35.6863C56.4195 35.6863 58.7633 40.2337 58.2506 42.1846C60.2038 43.0714 67.3636 49.3924 66.2161 55.1601C61.8824 56.579 57.3167 46.8598 56.7002 44.2136C55.3452 44.6889 52.2139 41.7093 52.2139 41.7093C53.3753 41.2552 54.5852 40.9902 55.8091 40.9219C55.699 39.1464 55.9068 37.3637 56.4195 35.6863Z" fill="#407BFF"/>
<path opacity="0.3" d="M56.4195 35.6863C56.4195 35.6863 58.7633 40.2337 58.2506 42.1846C60.2038 43.0714 67.3636 49.3924 66.2161 55.1601C61.8824 56.579 57.3167 46.8598 56.7002 44.2136C55.3452 44.6889 52.2139 41.7093 52.2139 41.7093C53.3753 41.2552 54.5852 40.9902 55.8091 40.9219C55.699 39.1464 55.9068 37.3637 56.4195 35.6863Z" fill="black"/>
<path d="M36.4834 105.843C36.4834 105.843 40.0968 110.163 40.0846 112.228C42.3553 112.831 51.456 118.208 51.749 124.345C47.5862 126.473 40.3166 117.194 38.9921 114.569C37.698 115.278 33.6634 112.696 33.6634 112.696C34.7805 112.021 35.9777 111.543 37.2158 111.277C36.6483 109.545 36.3988 107.694 36.4834 105.843Z" fill="#407BFF"/>
<path opacity="0.3" d="M36.4834 105.843C36.4834 105.843 40.0968 110.163 40.0846 112.228C42.3553 112.831 51.456 118.208 51.749 124.345C47.5862 126.473 40.3166 117.194 38.9921 114.569C37.698 115.278 33.6634 112.696 33.6634 112.696C34.7805 112.021 35.9777 111.543 37.2158 111.277C36.6483 109.545 36.3988 107.694 36.4834 105.843Z" fill="black"/>
<path d="M53.4161 81.2041C53.4161 81.2041 55.1435 83.7723 54.9299 84.8364C56.2239 85.3756 61.1069 89.0362 60.6797 92.1861C58.0001 92.853 54.5758 87.3833 54.057 85.9147C53.2147 86.1347 51.0723 84.4178 51.0723 84.4178C51.8036 84.1946 52.5563 84.0802 53.3124 84.0773C53.1468 83.1239 53.1824 82.1381 53.4161 81.2041Z" fill="#407BFF"/>
<path opacity="0.3" d="M53.4161 81.2041C53.4161 81.2041 55.1435 83.7723 54.9299 84.8364C56.2239 85.3756 61.1069 89.0362 60.6797 92.1861C58.0001 92.853 54.5758 87.3833 54.057 85.9147C53.2147 86.1347 51.0723 84.4178 51.0723 84.4178C51.8036 84.1946 52.5563 84.0802 53.3124 84.0773C53.1468 83.1239 53.1824 82.1381 53.4161 81.2041Z" fill="black"/>
<path d="M92.1021 84.66C92.1021 84.66 94.3422 85.9227 94.5436 86.8663C95.7644 86.7102 100.885 87.4196 101.6 90.1226C99.683 91.8748 95.1235 89.0584 94.2079 88.122C93.5975 88.6824 91.3208 88.278 91.3208 88.278C91.8323 87.7707 92.3961 87.3394 92.9993 86.994C92.5398 86.3135 92.2316 85.5118 92.1021 84.66Z" fill="#407BFF"/>
<path opacity="0.3" d="M92.1021 84.66C92.1021 84.66 94.3422 85.9227 94.5436 86.8663C95.7644 86.7102 100.885 87.4196 101.6 90.1226C99.683 91.8748 95.1235 89.0584 94.2079 88.122C93.5975 88.6824 91.3208 88.278 91.3208 88.278C91.8323 87.7707 92.3961 87.3394 92.9993 86.994C92.5398 86.3135 92.2316 85.5118 92.1021 84.66Z" fill="black"/>
<path d="M61.4003 103.48C61.4003 103.48 63.1826 106.019 63.03 107.268C64.2996 107.609 69.1704 110.737 68.9141 114.362C66.3688 115.682 62.8103 110.198 62.2365 108.651C61.443 109.077 59.2945 107.58 59.2945 107.58C59.9714 107.181 60.6923 106.892 61.4369 106.722C61.2334 105.655 61.221 104.552 61.4003 103.48Z" fill="#407BFF"/>
<path opacity="0.6" d="M61.4003 103.48C61.4003 103.48 63.1826 106.019 63.03 107.268C64.2996 107.609 69.1704 110.737 68.9141 114.362C66.3688 115.682 62.8103 110.198 62.2365 108.651C61.443 109.077 59.2945 107.58 59.2945 107.58C59.9714 107.181 60.6923 106.892 61.4369 106.722C61.2334 105.655 61.221 104.552 61.4003 103.48Z" fill="white"/>
<path d="M73.8392 91.9168C73.8392 91.9168 76.8911 94.6056 77.0437 96.1238C78.7467 96.2798 85.8515 99.0679 86.6084 103.488C83.7945 105.559 77.6663 99.7064 76.4639 97.9896C75.591 98.699 72.4231 97.2801 72.4231 97.2801C73.1732 96.6715 73.9957 96.1935 74.8647 95.8613C74.2866 94.6456 73.9371 93.3012 73.8392 91.9168Z" fill="#407BFF"/>
</g>
</svg>
