<svg
    viewBox="0 0 252 203"
    fill="none"
    xmlns="http://www.w3.org/2000/svg"
>
    <mask
        id="mask0"
        mask-type="alpha"
        maskUnits="userSpaceOnUse"
        x="-2"
        y="0"
        width="256"
        height="206"
    >
        <path
            d="M38.2831 8.18517C23.0678 15.2874 13.0905 12.3332 0.618896 4.77561V202.724H251.381V8.09408C241.57 0.900762 227.436 5.37571 219.204 9.64206C208.312 15.2874 198.335 12.0094 192.681 9.64206C174.14 -1.55767 162.833 6.91038 157.927 9.64206C153.121 12.3183 142.878 14.468 127.995 7.45674C113.113 0.445533 104.216 5.90881 93.9064 10.6436C85.6585 14.4315 75.2267 12.2219 71.0418 10.6436C57.3231 0.354472 45.4612 4.14841 38.2831 8.18517Z"
            fill="url(#paint0_linear)"
        />
        <path
            d="M38.2831 8.18517C23.0678 15.2874 13.0905 12.3332 0.618896 4.77561V202.724H251.381V8.09408C241.57 0.900762 227.436 5.37571 219.204 9.64206C208.312 15.2874 198.335 12.0094 192.681 9.64206C174.14 -1.55767 162.833 6.91038 157.927 9.64206C153.121 12.3183 142.878 14.468 127.995 7.45674C113.113 0.445533 104.216 5.90881 93.9064 10.6436C85.6585 14.4315 75.2267 12.2219 71.0418 10.6436C57.3231 0.354472 45.4612 4.14841 38.2831 8.18517Z"
            stroke="#A5BBF5"
            stroke-opacity="0.15"
            stroke-width="5"
        />
        <path
            d="M38.2831 8.18517C23.0678 15.2874 13.0905 12.3332 0.618896 4.77561V202.724H251.381V8.09408C241.57 0.900762 227.436 5.37571 219.204 9.64206C208.312 15.2874 198.335 12.0094 192.681 9.64206C174.14 -1.55767 162.833 6.91038 157.927 9.64206C153.121 12.3183 142.878 14.468 127.995 7.45674C113.113 0.445533 104.216 5.90881 93.9064 10.6436C85.6585 14.4315 75.2267 12.2219 71.0418 10.6436C57.3231 0.354472 45.4612 4.14841 38.2831 8.18517Z"
            stroke="url(#paint1_radial)"
            stroke-opacity="0.6"
            stroke-width="5"
        />
    </mask>
    <g mask="url(#mask0)">
        <path
            d="M76.002 44C103.616 44 126.002 21.6142 126.002 -6C126.002 -33.6142 103.616 -56 76.002 -56C48.3877 -56 26.002 -33.6142 26.002 -6C26.002 21.6142 48.3877 44 76.002 44Z"
            fill="url(#paint2_linear)"
        />
        <path
            d="M125.502 -6C125.502 21.3381 103.34 43.5 76.002 43.5C48.6639 43.5 26.502 21.3381 26.502 -6C26.502 -33.3381 48.6639 -55.5 76.002 -55.5C103.34 -55.5 125.502 -33.3381 125.502 -6Z"
            stroke="#A5BBF5"
            stroke-opacity="0.15"
        />
        <path
            d="M125.502 -6C125.502 21.3381 103.34 43.5 76.002 43.5C48.6639 43.5 26.502 21.3381 26.502 -6C26.502 -33.3381 48.6639 -55.5 76.002 -55.5C103.34 -55.5 125.502 -33.3381 125.502 -6Z"
            stroke="url(#paint3_radial)"
            stroke-opacity="0.6"
        />
    </g>
    <defs>
        <linearGradient
            id="paint0_linear"
            x1="126"
            y1="4.41303"
            x2="126"
            y2="190.507"
            gradientUnits="userSpaceOnUse"
        >
            <stop stop-color="#4166DB" />
            <stop offset="0.958333" stop-color="#000F43" />
        </linearGradient>
        <radialGradient
            id="paint1_radial"
            cx="0"
            cy="0"
            r="1"
            gradientUnits="userSpaceOnUse"
            gradientTransform="translate(148.556 53.1443) rotate(133.845) scale(38.0423 79.2017)"
        >
            <stop stop-color="white" stop-opacity="0.8" />
            <stop offset="1" stop-color="white" stop-opacity="0" />
        </radialGradient>
        <linearGradient
            id="paint2_linear"
            x1="76.002"
            y1="-10"
            x2="76.002"
            y2="61"
            gradientUnits="userSpaceOnUse"
        >
            <stop stop-color="#4166DB" />
            <stop offset="0.958333" stop-color="#000F43" />
        </linearGradient>
        <radialGradient
            id="paint3_radial"
            cx="0"
            cy="0"
            r="1"
            gradientUnits="userSpaceOnUse"
            gradientTransform="translate(84.9969 -31.2701) rotate(127.277) scale(17.3509 34.847)"
        >
            <stop stop-color="white" stop-opacity="0.8" />
            <stop offset="1" stop-color="white" stop-opacity="0" />
        </radialGradient>
    </defs>
</svg>