<svg
    viewBox="0 0 86 77"
    fill="none"
    xmlns="http://www.w3.org/2000/svg"
>
    <path
        d="M69.9823 10.2981L72.6405 35.5888L36.8629 39.3492C36.3853 38.8223 35.934 38.2708 35.51 37.6971L33.0383 14.181L69.9823 10.2981Z"
        fill="white"
    />
    <path
        d="M33.2478 16.1733L35.4334 15.9436L37.8822 39.242L35.6966 39.4718L33.2478 16.1733Z"
        fill="#D6EEFD"
    />
    <path
        d="M33.0386 14.181L69.9823 10.2981L70.6517 16.6673L33.708 20.5502L33.0386 14.181Z"
        fill="#D6EEFD"
    />
    <path
        d="M31.6504 10.7816L70.6334 6.68434L71.4653 14.5998L32.4823 18.6971L31.6504 10.7816Z"
        fill="white"
    />
    <path
        d="M31.6504 10.7816L33.6548 10.5709L34.4867 18.4865L32.4823 18.6971L31.6504 10.7816Z"
        fill="#D6EEFD"
    />
    <path
        d="M8.71216 10.2808L11.374 10.001L12.1195 17.0944L9.4577 17.3741L8.71216 10.2808Z"
        fill="#073C4E"
    />
    <path
        d="M13.1279 6.96802L15.7897 6.68825L16.8314 16.5992L14.1696 16.8789L13.1279 6.96802Z"
        fill="#073C4E"
    />
    <path
        d="M22.915 15.0008L23.4572 20.1595L22.7937 24.0444L24.2504 27.7065L25.6902 41.4049L7.82572 43.2825L5.05054 16.8784L22.915 15.0008Z"
        fill="#F9F6F6"
    />
    <path
        d="M5.05029 16.8792L22.9149 15.0015L23.372 19.3506L5.50741 21.2283L5.05029 16.8792Z"
        fill="#DDDAEC"
    />
    <path
        d="M5.05029 16.8792L7.64989 16.6059L10.425 43.0097L7.82544 43.2829L5.05029 16.8792Z"
        fill="#DDDAEC"
    />
    <path
        d="M40.1744 22.7169L45.1895 22.1898L45.5409 25.5332L40.5258 26.0603L40.1744 22.7169Z"
        fill="#073C4E"
    />
    <path
        d="M47.6971 21.9263L52.7122 21.3992L53.0636 24.7425L48.0485 25.2696L47.6971 21.9263Z"
        fill="#073C4E"
    />
    <path
        d="M55.2196 21.1356L60.2346 20.6085L60.586 23.9519L55.571 24.479L55.2196 21.1356Z"
        fill="#073C4E"
    />
    <path
        d="M62.7423 20.345L67.7573 19.8179L68.1087 23.1612L63.0937 23.6883L62.7423 20.345Z"
        fill="#073C4E"
    />
    <path
        d="M40.7894 28.5679L45.8044 28.0408L46.1558 31.3841L41.1408 31.9112L40.7894 28.5679Z"
        fill="#073C4E"
    />
    <path
        d="M48.3121 27.7772L53.3271 27.2501L53.6786 30.5935L48.6635 31.1206L48.3121 27.7772Z"
        fill="#073C4E"
    />
    <path
        d="M55.8346 26.9865L60.8496 26.4594L61.201 29.8027L56.186 30.3298L55.8346 26.9865Z"
        fill="#073C4E"
    />
    <path
        d="M63.3573 26.1958L68.3723 25.6687L68.7237 29.0121L63.7087 29.5392L63.3573 26.1958Z"
        fill="#073C4E"
    />
    <path
        d="M81.0085 24.0416L70.4444 25.1519C67.7136 25.4389 65.5376 27.5647 65.1873 30.2883C64.8369 33.0119 62.661 35.1377 59.9301 35.4247L5.53107 41.1423C4.71416 41.2282 4.14901 41.9991 4.31281 42.8039L7.84428 60.1517L10.2631 61.7215L8.57122 63.7231C9.09872 66.3133 10.5377 68.6285 12.6267 70.2481L19.0175 75.2028L70.0062 69.8436C71.4887 69.6878 72.6282 68.4612 72.6748 66.9713L72.8654 60.8657C72.9079 59.5078 73.2314 58.1905 73.7972 56.9876C73.8177 56.945 73.8381 56.9024 73.8586 56.8613C74.1401 56.2849 71.1963 55.7893 71.5872 55.2762C71.9781 54.7631 73.8376 54.2482 74.3306 53.8161C74.661 53.5264 76.8355 53.1992 77.1198 52.8707C78.5135 51.2696 79.359 49.2503 79.509 47.1111L81.0085 24.0416Z"
        fill="#B71C22"
    />
    <path
        d="M25.5107 74.5197L19.0705 75.1966L12.6359 70.2386C10.5424 68.6255 9.09984 66.3123 8.57246 63.7226L10.2629 61.7216L7.84432 60.1522L4.3128 42.8039C4.14957 41.9985 4.7148 41.2282 5.53186 41.1423L17.2687 39.9087C16.4517 39.9946 15.8863 40.7649 16.0513 41.5702L19.5828 58.9183L20.3091 62.4888L22.2765 72.1504C22.5832 73.6553 23.9817 74.6804 25.5107 74.5197Z"
        fill="#6D1415"
    />
    <path
        d="M77.1199 52.8712C76.8348 53.1999 76.5269 53.5099 76.1975 53.7995C75.2108 54.6648 74.4227 55.7082 73.8591 56.8608L8.57058 63.7229L7.84424 60.1523L77.1199 52.8712Z"
        fill="#073C4E"
    />
    <path
        d="M20.3093 62.4891L8.57238 63.7227L7.84424 60.1523L19.5829 58.9186L20.3093 62.4891Z"
        fill="#062431"
    />
    <path
        d="M4.04925 19.4773L24.4309 17.3351C25.6566 17.2063 26.5457 16.1083 26.4168 14.8826C26.288 13.6569 25.1901 12.7678 23.9644 12.8967L3.58275 15.0388C2.35707 15.1677 1.46795 16.2656 1.59678 17.4913C1.7256 18.717 2.82357 19.6061 4.04925 19.4773Z"
        fill="#B71C22"
        />
    <path
        d="M6.28894 18.5862C6.73275 18.9456 7.31388 19.1354 7.92606 19.071L4.05051 19.4784C3.43668 19.5429 2.85555 19.3531 2.41175 18.9937C1.96777 18.6327 1.66129 18.1037 1.59695 17.4915C1.46826 16.2671 2.35796 15.1685 3.58397 15.0396L7.45953 14.6323C6.23515 14.7609 5.34545 15.8596 5.47414 17.084C5.53849 17.6962 5.84496 18.2252 6.28894 18.5862Z"
        fill="#6D1415"
    />
    <path
        d="M23.4572 20.1595L24.2504 27.7066L13.2914 28.8584C11.8564 29.0092 10.5718 27.9674 10.4211 26.5341L10.1739 24.1817C10.023 22.7467 11.0632 21.4622 12.4982 21.3114L23.4572 20.1595Z"
        fill="#C8ECE8"
    />
    <path
        d="M12.8933 20.8351L14.567 20.6592L15.5393 29.9104L13.8657 30.0863L12.8933 20.8351Z"
        fill="#F9F6F6"
    />
    <path
        d="M18.4163 20.2546L20.0899 20.0787L21.0622 29.33L19.3886 29.5059L18.4163 20.2546Z"
        fill="#F9F6F6"
    />
</svg>