<svg
    viewBox="0 0 132 82"
    fill="none"
    xmlns="http://www.w3.org/2000/svg"
>
    <path
        d="M103.466 6.32872C113.781 9.92436 120.545 8.46858 129 4.64245V105H-41V6.26922C-34.3488 2.62749 -24.7666 4.90639 -19.1863 7.0663C-11.8024 9.92435 -5.03847 8.26482 -1.20558 7.0663C11.3641 1.39626 19.0298 5.68334 22.3554 7.0663C25.6135 8.42119 32.5577 9.50948 42.6472 5.95995C52.7367 2.41041 58.7679 5.17628 65.7573 7.57336C71.3488 9.49102 79.7556 8.73634 85.3419 5.95995C92.3297 2.48693 98.5999 4.28505 103.466 6.32872Z"
        fill="url(#paint0_linear)"
        fill-opacity="0.65"
    />
    <path
        d="M103.466 6.32872C113.781 9.92436 120.545 8.46858 129 4.64245V105H-41V6.26922C-34.3488 2.62749 -24.7666 4.90639 -19.1863 7.0663C-11.8024 9.92435 -5.03847 8.26482 -1.20558 7.0663C11.3641 1.39626 19.0298 5.68334 22.3554 7.0663C25.6135 8.42119 32.5577 9.50948 42.6472 5.95995C52.7367 2.41041 58.7679 5.17628 65.7573 7.57336C71.3488 9.49102 79.7556 8.73634 85.3419 5.95995C92.3297 2.48693 98.5999 4.28505 103.466 6.32872Z"
        fill="url(#paint1_radial)"
    />
    <path
        d="M103.466 6.32872C113.781 9.92436 120.545 8.46858 129 4.64245V105H-41V6.26922C-34.3488 2.62749 -24.7666 4.90639 -19.1863 7.0663C-11.8024 9.92435 -5.03847 8.26482 -1.20558 7.0663C11.3641 1.39626 19.0298 5.68334 22.3554 7.0663C25.6135 8.42119 32.5577 9.50948 42.6472 5.95995C52.7367 2.41041 58.7679 5.17628 65.7573 7.57336C71.3488 9.49102 79.7556 8.73634 85.3419 5.95995C92.3297 2.48693 98.5999 4.28505 103.466 6.32872Z"
        stroke="#A5BBF5"
        stroke-opacity="0.15"
        stroke-width="5"
    />
    <path
        d="M103.466 6.32872C113.781 9.92436 120.545 8.46858 129 4.64245V105H-41V6.26922C-34.3488 2.62749 -24.7666 4.90639 -19.1863 7.0663C-11.8024 9.92435 -5.03847 8.26482 -1.20558 7.0663C11.3641 1.39626 19.0298 5.68334 22.3554 7.0663C25.6135 8.42119 32.5577 9.50948 42.6472 5.95995C52.7367 2.41041 58.7679 5.17628 65.7573 7.57336C71.3488 9.49102 79.7556 8.73634 85.3419 5.95995C92.3297 2.48693 98.5999 4.28505 103.466 6.32872Z"
        stroke="url(#paint2_radial)"
        stroke-opacity="0.6"
        stroke-width="5"
    />
    <defs>
        <linearGradient
            id="paint0_linear"
            x1="44"
            y1="4.20992"
            x2="44"
            y2="98.7906"
            gradientUnits="userSpaceOnUse"
        >
            <stop stop-color="#4166DB" />
            <stop offset="0.958333" stop-color="#000F43" />
        </linearGradient>
        <radialGradient
            id="paint1_radial"
            cx="0"
            cy="0"
            r="1"
            gradientUnits="userSpaceOnUse"
            gradientTransform="translate(44 -0.166665) rotate(82.77) scale(12.2414 41.7542)"
        >
            <stop stop-color="#F9E297" stop-opacity="0.7" />
            <stop offset="1" stop-color="white" stop-opacity="0" />
        </radialGradient>
        <radialGradient
            id="paint2_radial"
            cx="0"
            cy="0"
            r="1"
            gradientUnits="userSpaceOnUse"
            gradientTransform="translate(28.7086 29.09) rotate(37.8658) scale(22.6296 45.6972)"
        >
            <stop stop-color="white" stop-opacity="0.8" />
            <stop offset="1" stop-color="white" stop-opacity="0" />
        </radialGradient>
    </defs>
</svg>