<svg width="184" height="188" viewBox="0 0 184 188" fill="none" xmlns="http://www.w3.org/2000/svg">
<path opacity="0.2" d="M91.7484 187.516C142.42 187.516 183.497 145.539 183.497 93.7582C183.497 41.977 142.42 0 91.7484 0C41.0772 0 0 41.977 0 93.7582C0 145.539 41.0772 187.516 91.7484 187.516Z" fill="#FFE483"/>
<path opacity="0.2" d="M92.6502 171.859C135.358 171.859 169.98 136.479 169.98 92.8359C169.98 49.1925 135.358 13.8125 92.6502 13.8125C49.9424 13.8125 15.3208 49.1925 15.3208 92.8359C15.3208 136.479 49.9424 171.859 92.6502 171.859Z" fill="#FFE483"/>
<path opacity="0.2" d="M92.6503 161.041C129.029 161.041 158.52 130.903 158.52 93.7273C158.52 56.5513 129.029 26.4141 92.6503 26.4141C56.2712 26.4141 26.7801 56.5513 26.7801 93.7273C26.7801 130.903 56.2712 161.041 92.6503 161.041Z" fill="#FFE483"/>
<path d="M91.7484 148.037C121.083 148.037 144.864 123.736 144.864 93.7581C144.864 63.7806 121.083 39.479 91.7484 39.479C62.4135 39.479 38.6329 63.7806 38.6329 93.7581C38.6329 123.736 62.4135 148.037 91.7484 148.037Z" fill="url(#paint0_linear)"/>
<defs>
<linearGradient id="paint0_linear" x1="91.7484" y1="39.479" x2="91.7484" y2="148.037" gradientUnits="userSpaceOnUse">
<stop stop-color="#FFC01E"/>
<stop offset="1" stop-color="#FCFAAF"/>
</linearGradient>
</defs>
</svg>
