<?xml version="1.0" encoding="UTF-8"?>
<svg width="1595px" height="1628px" viewBox="0 0 1595 1628" version="1.1" xmlns="http://www.w3.org/2000/svg" xmlns:xlink="http://www.w3.org/1999/xlink">
    <!-- Generator: Sketch 60.1 (88133) - https://sketch.com -->
    <title>Slice</title>
    <desc>Created with Sketch.</desc>
    <defs>
        <linearGradient x1="50.0000376%" y1="-7.55979609e-07%" x2="42.8075607%" y2="93.773627%" id="linearGradient-1">
            <stop stop-color="#74A2FF" offset="0%"></stop>
            <stop stop-color="#011043" offset="100%"></stop>
        </linearGradient>
        <radialGradient cx="50.0001097%" cy="-1.24573759%" fx="50.0001097%" fy="-1.24573759%" r="22.6248158%" gradientTransform="translate(0.500001,-0.012457),scale(1.000000,0.892359),rotate(90.000000),translate(-0.500001,0.012457)" id="radialGradient-2">
            <stop stop-color="#F9E297" stop-opacity="0.7" offset="0%"></stop>
            <stop stop-color="#FFFFFF" stop-opacity="0" offset="100%"></stop>
        </radialGradient>
        <radialGradient cx="58.9949874%" cy="24.7298577%" fx="58.9949874%" fy="24.7298577%" r="18.7033701%" gradientTransform="translate(0.589950,0.247299),scale(1.000000,0.892359),rotate(124.185433),translate(-0.589950,-0.247299)" id="radialGradient-3">
            <stop stop-color="#FFFFFF" stop-opacity="0.8" offset="0%"></stop>
            <stop stop-color="#FFFFFF" stop-opacity="0" offset="100%"></stop>
        </radialGradient>
        <linearGradient x1="50%" y1="0.207841453%" x2="50%" y2="93.8522633%" id="linearGradient-4">
            <stop stop-color="#4166DB" offset="0%"></stop>
            <stop stop-color="#000F43" offset="95.8333%"></stop>
        </linearGradient>
        <radialGradient cx="50%" cy="-4.1254093%" fx="50%" fy="-4.1254093%" r="13.564624%" gradientTransform="translate(0.500000,-0.041254),scale(1.000000,0.888395),rotate(86.169261),translate(-0.500000,0.041254)" id="radialGradient-5">
            <stop stop-color="#F9E297" stop-opacity="0.7" offset="0%"></stop>
            <stop stop-color="#FFFFFF" stop-opacity="0" offset="100%"></stop>
        </radialGradient>
        <radialGradient cx="41.0050625%" cy="24.8415998%" fx="41.0050625%" fy="24.8415998%" r="18.7104932%" gradientTransform="translate(0.410051,0.248416),scale(1.000000,0.888395),rotate(55.829793),translate(-0.410051,-0.248416)" id="radialGradient-6">
            <stop stop-color="#FFFFFF" stop-opacity="0.8" offset="0%"></stop>
            <stop stop-color="#FFFFFF" stop-opacity="0" offset="100%"></stop>
        </radialGradient>
    </defs>
    <g id="Page-1" stroke="none" stroke-width="1" fill="none" fill-rule="evenodd">
        <g id="waves" transform="translate(-3.000000, -170.000000)">
            <path d="M240.318584,38.7608664 C143.236554,102.841597 79.5756344,76.18623 0,7.99799498 L0,1794 L1600,1794 L1600,37.9389956 C1537.39998,-26.9630058 1447.21995,13.4123351 1394.69994,51.9057009 C1325.19992,102.841597 1261.5399,73.2654445 1225.45989,51.9057009 C1107.15985,-49.1443203 1035.00983,27.2589739 1003.70982,51.9057009 C973.049808,76.0521674 907.692788,95.4475588 812.732759,32.1885992 C717.77173,-31.0703604 661.007712,18.2222938 595.225692,60.9423809 C542.599676,95.1184505 476.038656,75.1824099 449.336648,60.9423809 C361.803621,-31.8919313 286.118598,2.33901304 240.318584,38.7608664 Z" id="Path" fill="url(#linearGradient-1)" fill-rule="nonzero"></path>
            <path d="M240.318584,38.7608664 C143.236554,102.841597 79.5756344,76.18623 0,7.99799498 L0,1794 L1600,1794 L1600,37.9389956 C1537.39998,-26.9630058 1447.21995,13.4123351 1394.69994,51.9057009 C1325.19992,102.841597 1261.5399,73.2654445 1225.45989,51.9057009 C1107.15985,-49.1443203 1035.00983,27.2589739 1003.70982,51.9057009 C973.049808,76.0521674 907.692788,95.4475588 812.732759,32.1885992 C717.77173,-31.0703604 661.007712,18.2222938 595.225692,60.9423809 C542.599676,95.1184505 476.038656,75.1824099 449.336648,60.9423809 C361.803621,-31.8919313 286.118598,2.33901304 240.318584,38.7608664 Z" id="Path" fill="url(#radialGradient-2)" fill-rule="nonzero"></path>
            <path d="M240.318584,38.7608664 C143.236554,102.841597 79.5756344,76.18623 0,7.99799498 L0,1794 L1600,1794 L1600,37.9389956 C1537.39998,-26.9630058 1447.21995,13.4123351 1394.69994,51.9057009 C1325.19992,102.841597 1261.5399,73.2654445 1225.45989,51.9057009 C1107.15985,-49.1443203 1035.00983,27.2589739 1003.70982,51.9057009 C973.049808,76.0521674 907.692788,95.4475588 812.732759,32.1885992 C717.77173,-31.0703604 661.007712,18.2222938 595.225692,60.9423809 C542.599676,95.1184505 476.038656,75.1824099 449.336648,60.9423809 C361.803621,-31.8919313 286.118598,2.33901304 240.318584,38.7608664 Z" id="Path" stroke-opacity="0.15" stroke="#A5BBF5" stroke-width="5"></path>
            <path d="M240.318584,38.7608664 C143.236554,102.841597 79.5756344,76.18623 0,7.99799498 L0,1794 L1600,1794 L1600,37.9389956 C1537.39998,-26.9630058 1447.21995,13.4123351 1394.69994,51.9057009 C1325.19992,102.841597 1261.5399,73.2654445 1225.45989,51.9057009 C1107.15985,-49.1443203 1035.00983,27.2589739 1003.70982,51.9057009 C973.049808,76.0521674 907.692788,95.4475588 812.732759,32.1885992 C717.77173,-31.0703604 661.007712,18.2222938 595.225692,60.9423809 C542.599676,95.1184505 476.038656,75.1824099 449.336648,60.9423809 C361.803621,-31.8919313 286.118598,2.33901304 240.318584,38.7608664 Z" id="Path" stroke="url(#radialGradient-3)" stroke-width="5"></path>
            <path d="M1359.68,41.5250336 C1456.76,105.641334 1520.42,79.6822268 1600,11.4559858 L1600,1801 L0,1801 L0,40.464039 C62.5995,-24.4741892 152.785,16.1624924 205.305,54.6772849 C274.801,105.641334 338.462,76.0489181 374.536,54.6772849 C492.838,-46.4290843 564.987,30.0168387 596.286,54.6772849 C626.951,78.8371922 692.308,98.2432797 787.268,34.949208 C882.228,-28.3449638 938.992,20.9751285 1004.77,63.718895 C1057.4,97.9141884 1136.52,84.4569524 1189.1,34.949108 C1254.87,-26.980485 1313.88,5.0829665 1359.68,41.5250336 Z" id="Path" fill="url(#linearGradient-4)" fill-rule="nonzero"></path>
            <path d="M1359.68,41.5250336 C1456.76,105.641334 1520.42,79.6822268 1600,11.4559858 L1600,1801 L0,1801 L0,40.464039 C62.5995,-24.4741892 152.785,16.1624924 205.305,54.6772849 C274.801,105.641334 338.462,76.0489181 374.536,54.6772849 C492.838,-46.4290843 564.987,30.0168387 596.286,54.6772849 C626.951,78.8371922 692.308,98.2432797 787.268,34.949208 C882.228,-28.3449638 938.992,20.9751285 1004.77,63.718895 C1057.4,97.9141884 1136.52,84.4569524 1189.1,34.949108 C1254.87,-26.980485 1313.88,5.0829665 1359.68,41.5250336 Z" id="Path" fill="url(#radialGradient-5)" fill-rule="nonzero"></path>
            <path d="M1359.68,41.5250336 C1456.76,105.641334 1520.42,79.6822268 1600,11.4559858 L1600,1801 L0,1801 L0,40.464039 C62.5995,-24.4741892 152.785,16.1624924 205.305,54.6772849 C274.801,105.641334 338.462,76.0489181 374.536,54.6772849 C492.838,-46.4290843 564.987,30.0168387 596.286,54.6772849 C626.951,78.8371922 692.308,98.2432797 787.268,34.949208 C882.228,-28.3449638 938.992,20.9751285 1004.77,63.718895 C1057.4,97.9141884 1136.52,84.4569524 1189.1,34.949108 C1254.87,-26.980485 1313.88,5.0829665 1359.68,41.5250336 Z" id="Path" stroke-opacity="0.15" stroke="#A5BBF5" stroke-width="5"></path>
            <path d="M1359.68,41.5250336 C1456.76,105.641334 1520.42,79.6822268 1600,11.4559858 L1600,1801 L0,1801 L0,40.464039 C62.5995,-24.4741892 152.785,16.1624924 205.305,54.6772849 C274.801,105.641334 338.462,76.0489181 374.536,54.6772849 C492.838,-46.4290843 564.987,30.0168387 596.286,54.6772849 C626.951,78.8371922 692.308,98.2432797 787.268,34.949208 C882.228,-28.3449638 938.992,20.9751285 1004.77,63.718895 C1057.4,97.9141884 1136.52,84.4569524 1189.1,34.949108 C1254.87,-26.980485 1313.88,5.0829665 1359.68,41.5250336 Z" id="Path" stroke="url(#radialGradient-6)" stroke-width="5"></path>
        </g>
    </g>
</svg>