<?xml version="1.0" encoding="UTF-8"?>
<svg width="1600px" height="170px" viewBox="0 0 1600 170" version="1.1" xmlns="http://www.w3.org/2000/svg" xmlns:xlink="http://www.w3.org/1999/xlink">
    <!-- Generator: Sketch 60.1 (88133) - https://sketch.com -->
    <title>Slice</title>
    <desc>Created with Sketch.</desc>
    <defs>
        <linearGradient x1="50.0000376%" y1="-7.55979609e-07%" x2="42.8115748%" y2="93.773627%" id="linearGradient-1">
            <stop stop-color="#74A2FF" offset="0%"></stop>
            <stop stop-color="#011043" offset="100%"></stop>
        </linearGradient>
        <radialGradient cx="50.0001097%" cy="-1.24573759%" fx="50.0001097%" fy="-1.24573759%" r="22.6311319%" gradientTransform="translate(0.500001,-0.012457),scale(1.000000,0.892110),rotate(90.000000),translate(-0.500001,0.012457)" id="radialGradient-2">
            <stop stop-color="#F9E297" stop-opacity="0.7" offset="0%"></stop>
            <stop stop-color="#FFFFFF" stop-opacity="0" offset="100%"></stop>
        </radialGradient>
        <radialGradient cx="58.9949874%" cy="24.7298577%" fx="58.9949874%" fy="24.7298577%" r="18.7069432%" gradientTransform="translate(0.589950,0.247299),scale(1.000000,0.892110),rotate(124.178000),translate(-0.589950,-0.247299)" id="radialGradient-3">
            <stop stop-color="#FFFFFF" stop-opacity="0.8" offset="0%"></stop>
            <stop stop-color="#FFFFFF" stop-opacity="0" offset="100%"></stop>
        </radialGradient>
        <linearGradient x1="50%" y1="0.207841453%" x2="50%" y2="93.8522633%" id="linearGradient-4">
            <stop stop-color="#4166DB" offset="0%"></stop>
            <stop stop-color="#000F43" offset="95.8333%"></stop>
        </linearGradient>
        <radialGradient cx="50%" cy="-4.1254093%" fx="50%" fy="-4.1254093%" r="13.560875%" gradientTransform="translate(0.500000,-0.041254),scale(1.000000,0.888642),rotate(86.168200),translate(-0.500000,0.041254)" id="radialGradient-5">
            <stop stop-color="#F9E297" stop-opacity="0.7" offset="0%"></stop>
            <stop stop-color="#FFFFFF" stop-opacity="0" offset="100%"></stop>
        </radialGradient>
        <radialGradient cx="41.0050625%" cy="24.8415998%" fx="41.0050625%" fy="24.8415998%" r="18.7069375%" gradientTransform="translate(0.410051,0.248416),scale(1.000000,0.888642),rotate(55.822400),translate(-0.410051,-0.248416)" id="radialGradient-6">
            <stop stop-color="#FFFFFF" stop-opacity="0.8" offset="0%"></stop>
            <stop stop-color="#FFFFFF" stop-opacity="0" offset="100%"></stop>
        </radialGradient>
    </defs>
    <g id="Page-1" stroke="none" stroke-width="1" fill="none" fill-rule="evenodd">
        <g id="waves">
            <path d="M240.319,38.7714 C143.237,102.87 79.5761,76.2072 0.00049,7.99995 L0.00049,1794.5 L1600,1794.5 L1600,37.9493 C1537.4,-26.9708 1447.22,13.4158 1394.7,51.9199 C1325.2,102.87 1261.54,73.2856 1225.46,51.9199 C1107.16,-49.1583 1035.01,27.2663 1003.71,51.9199 C973.05,76.0731 907.693,95.4739 812.733,32.1973 C717.772,-31.0793 661.008,18.2271 595.226,60.9591 C542.6,95.1447 476.039,75.2031 449.337,60.9591 C361.804,-31.9011 286.119,2.33939 240.319,38.7714 Z" id="Path" fill="url(#linearGradient-1)" fill-rule="nonzero"></path>
            <path d="M240.319,38.7714 C143.237,102.87 79.5761,76.2072 0.00049,7.99995 L0.00049,1794.5 L1600,1794.5 L1600,37.9493 C1537.4,-26.9708 1447.22,13.4158 1394.7,51.9199 C1325.2,102.87 1261.54,73.2856 1225.46,51.9199 C1107.16,-49.1583 1035.01,27.2663 1003.71,51.9199 C973.05,76.0731 907.693,95.4739 812.733,32.1973 C717.772,-31.0793 661.008,18.2271 595.226,60.9591 C542.6,95.1447 476.039,75.2031 449.337,60.9591 C361.804,-31.9011 286.119,2.33939 240.319,38.7714 Z" id="Path" fill="url(#radialGradient-2)" fill-rule="nonzero"></path>
            <path d="M240.319,38.7714 C143.237,102.87 79.5761,76.2072 0.00049,7.99995 L0.00049,1794.5 L1600,1794.5 L1600,37.9493 C1537.4,-26.9708 1447.22,13.4158 1394.7,51.9199 C1325.2,102.87 1261.54,73.2856 1225.46,51.9199 C1107.16,-49.1583 1035.01,27.2663 1003.71,51.9199 C973.05,76.0731 907.693,95.4739 812.733,32.1973 C717.772,-31.0793 661.008,18.2271 595.226,60.9591 C542.6,95.1447 476.039,75.2031 449.337,60.9591 C361.804,-31.9011 286.119,2.33939 240.319,38.7714 Z" id="Path" stroke-opacity="0.15" stroke="#A5BBF5" stroke-width="5"></path>
            <path d="M240.319,38.7714 C143.237,102.87 79.5761,76.2072 0.00049,7.99995 L0.00049,1794.5 L1600,1794.5 L1600,37.9493 C1537.4,-26.9708 1447.22,13.4158 1394.7,51.9199 C1325.2,102.87 1261.54,73.2856 1225.46,51.9199 C1107.16,-49.1583 1035.01,27.2663 1003.71,51.9199 C973.05,76.0731 907.693,95.4739 812.733,32.1973 C717.772,-31.0793 661.008,18.2271 595.226,60.9591 C542.6,95.1447 476.039,75.2031 449.337,60.9591 C361.804,-31.9011 286.119,2.33939 240.319,38.7714 Z" id="Path" stroke="url(#radialGradient-3)" stroke-width="5"></path>
            <path d="M1359.68,42.0135 C1456.76,106.112 1520.42,80.1601 1600,11.9528 L1600,1800.99999 L0,1800.99999 L0,40.9528 C62.5995,-23.9674 152.785,16.658 205.305,55.1621 C274.801,106.112 338.462,76.5278 374.536,55.1621 C492.838,-45.9162 564.987,30.5085 596.286,55.1621 C626.951,79.3153 692.308,98.716 787.268,35.4395 C882.228,-27.8371 938.992,21.4693 1004.77,64.2012 C1057.4,98.387 1136.52,84.9335 1189.1,35.4394 C1254.87,-26.473 1313.88,5.58155 1359.68,42.0135 Z" id="Path" fill="url(#linearGradient-4)" fill-rule="nonzero"></path>
            <path d="M1359.68,42.0135 C1456.76,106.112 1520.42,80.1601 1600,11.9528 L1600,1800.99999 L0,1800.99999 L0,40.9528 C62.5995,-23.9674 152.785,16.658 205.305,55.1621 C274.801,106.112 338.462,76.5278 374.536,55.1621 C492.838,-45.9162 564.987,30.5085 596.286,55.1621 C626.951,79.3153 692.308,98.716 787.268,35.4395 C882.228,-27.8371 938.992,21.4693 1004.77,64.2012 C1057.4,98.387 1136.52,84.9335 1189.1,35.4394 C1254.87,-26.473 1313.88,5.58155 1359.68,42.0135 Z" id="Path" fill="url(#radialGradient-5)" fill-rule="nonzero"></path>
            <path d="M1359.68,42.0135 C1456.76,106.112 1520.42,80.1601 1600,11.9528 L1600,1800.99999 L0,1800.99999 L0,40.9528 C62.5995,-23.9674 152.785,16.658 205.305,55.1621 C274.801,106.112 338.462,76.5278 374.536,55.1621 C492.838,-45.9162 564.987,30.5085 596.286,55.1621 C626.951,79.3153 692.308,98.716 787.268,35.4395 C882.228,-27.8371 938.992,21.4693 1004.77,64.2012 C1057.4,98.387 1136.52,84.9335 1189.1,35.4394 C1254.87,-26.473 1313.88,5.58155 1359.68,42.0135 Z" id="Path" stroke-opacity="0.15" stroke="#A5BBF5" stroke-width="5"></path>
            <path d="M1359.68,42.0135 C1456.76,106.112 1520.42,80.1601 1600,11.9528 L1600,1800.99999 L0,1800.99999 L0,40.9528 C62.5995,-23.9674 152.785,16.658 205.305,55.1621 C274.801,106.112 338.462,76.5278 374.536,55.1621 C492.838,-45.9162 564.987,30.5085 596.286,55.1621 C626.951,79.3153 692.308,98.716 787.268,35.4395 C882.228,-27.8371 938.992,21.4693 1004.77,64.2012 C1057.4,98.387 1136.52,84.9335 1189.1,35.4394 C1254.87,-26.473 1313.88,5.58155 1359.68,42.0135 Z" id="Path" stroke="url(#radialGradient-6)" stroke-width="5"></path>
        </g>
    </g>
</svg>