<svg width="853" height="439" viewBox="0 0 853 439" fill="none" xmlns="http://www.w3.org/2000/svg">
<g opacity="0.2">
<path d="M580.253 195.258C655.996 207.474 698.772 154.225 707.821 100.032C680.92 91.0815 628.085 62.4076 620.746 6.88091C620.457 4.69524 623.087 3.45566 624.724 4.93498C635.357 14.5401 646.981 21.3046 663.969 24.4254C663.969 24.4254 718.167 19.1254 730.727 34.8918C743.692 16.6814 805.095 22.686 805.095 22.686C824.169 19.1819 837.135 11.5284 849.042 0.653068C850.671 -0.835155 853.288 0.395688 852.974 2.57788C844.198 63.5295 770.196 90.9723 739.674 101.182C730.89 350.814 453.805 378.597 317.145 386.543L245.388 378.584C63.053 365.347 -3.26984 253.727 0.123657 212.961C0.203247 212.005 3.22003 213.305 3.22003 212.961C3.22003 212.617 0.205017 212.108 0.467712 211.241C2.02649 206.095 5.61432 201.034 10.186 200.094C46.6537 200.835 81.1679 201.477 113.835 202.016C126.591 191.284 153.699 191.557 162.897 202.767C347.565 205.355 467.75 204.157 546.384 198.328C568.294 175.639 576.277 187.927 580.253 195.258Z" fill="#00023E"/>
<mask id="mask0" mask-type="alpha" maskUnits="userSpaceOnUse" x="0" y="0" width="853" height="439">
<path d="M580.253 195.258C655.996 207.474 698.772 154.225 707.82 100.032C680.919 91.0815 628.085 62.4076 620.746 6.88091C620.457 4.69524 623.086 3.45566 624.724 4.93498C635.356 14.5401 646.981 21.3046 663.969 24.4254C663.969 24.4254 718.167 19.1254 730.727 34.8918C743.691 16.6814 805.094 22.686 805.094 22.686C824.168 19.1819 837.134 11.5284 849.041 0.653068C850.671 -0.835155 853.288 0.395688 852.974 2.57788C844.197 63.5295 770.195 90.9723 739.674 101.182C730.889 350.814 453.805 378.597 317.145 386.543C329.551 402.023 333.914 415.897 337.743 428.166C339.326 433.239 335.716 438.61 330.401 438.294C285.3 435.617 255.26 398.293 245.388 378.584C63.0526 365.347 -3.27032 253.727 0.123169 212.961C0.202759 212.005 3.21954 213.305 3.21954 212.961C3.21954 212.617 0.204529 212.108 0.467224 211.241C2.026 206.095 5.61383 201.034 10.1855 200.094C46.6533 200.835 81.1674 201.477 113.834 202.016C126.591 191.284 153.699 191.557 162.897 202.767C347.565 205.355 467.749 204.157 546.383 198.328C568.293 175.639 576.277 187.927 580.253 195.258Z" fill="white"/>
</mask>
<g mask="url(#mask0)">
<path d="M687.172 252.182C371.342 478.216 58.6095 309.98 58.6095 192.318H-15.0151C-5.03796 408.032 200.698 366.288 317.672 386.701C328.957 404.591 568.707 363.192 687.172 340.256V252.182Z" fill="white" fill-opacity="0.6"/>
</g>
<circle cx="131.203" cy="262.847" r="44.7253" fill="#00023E"/>
<rect x="100.928" y="228.443" width="46.1014" height="24.0828" rx="12.0414" fill="white" fill-opacity="0.6"/>
<path d="M439.463 252.526C403.978 252.526 399.265 219.498 401.345 202.984H439.463V252.526Z" fill="white" fill-opacity="0.6"/>
<path d="M314.92 414.913C253.456 414.913 245.293 353.903 248.894 323.398H314.92V414.913Z" fill="#00023E"/>
<path d="M401.618 145.185C345.857 145.185 338.451 200.69 341.718 228.443H401.618V145.185Z" fill="#00023E"/>
</g>
<path d="M620.022 6.88677C627.353 62.1731 680.822 91.1101 707.691 100.022C707.204 103.198 706.15 109.59 705.826 109.753C716.848 111.452 732.292 110.63 739.336 109.408C739.336 108.679 739.527 104.156 739.679 101.239C769.531 91.3369 843.113 63.9474 851.974 2.60236C852.288 0.42962 849.674 -0.795896 848.047 0.685885C836.153 11.5141 823.203 19.1345 804.152 22.6234C804.152 22.6234 742.822 16.6448 729.872 34.7764C717.327 19.0783 663.194 24.3554 663.194 24.3554C646.226 21.248 634.615 14.5128 623.996 4.94927C622.36 3.47635 619.733 4.71056 620.022 6.88677Z" fill="#00023E"/>
</svg>
