<svg width="797" height="559" viewBox="0 0 797 559" fill="none" xmlns="http://www.w3.org/2000/svg">
<g opacity="0.2">
<path d="M642.977 136.065C642.977 136.065 651.257 134.135 653.851 135.968C656.431 132.935 670.454 123.338 678.318 128.19C677.63 136.567 660.213 139.906 655.875 139.701C655.705 142.336 649.254 146.426 649.254 146.426C649.254 146.426 649.414 142.112 650.408 139.654C646.488 138.936 642.977 136.065 642.977 136.065Z" fill="#407BFF"/>
<path d="M689.361 117.548C689.361 117.548 698.89 112.872 702.869 113.923C704.84 109.926 718.387 95.3955 730.158 97.9431C732.733 106.904 712.396 115.987 706.927 117.179C707.788 119.982 701.418 126.329 701.418 126.329C701.418 126.329 699.84 121.768 700.088 118.928C694.914 119.412 689.361 117.548 689.361 117.548Z" fill="#407BFF"/>
<path opacity="0.6" d="M689.361 117.547C689.361 117.547 698.89 112.872 702.869 113.923C704.84 109.926 718.387 95.3953 730.158 97.943C732.733 106.904 712.396 115.987 706.927 117.179C707.788 119.982 701.418 126.328 701.418 126.328C701.418 126.328 699.84 121.768 700.088 118.928C694.914 119.412 689.361 117.547 689.361 117.547Z" fill="white"/>
<path opacity="0.6" d="M627.671 76.4193C627.671 76.4193 633.926 67.8444 637.937 66.921C637.819 62.4664 643.041 43.2987 654.644 40.0718C661.096 46.8026 647.329 64.3111 643.044 67.9128C645.111 69.992 642.43 78.5753 642.43 78.5753C642.43 78.5753 638.91 75.2746 637.806 72.6459C633.453 75.483 627.671 76.4193 627.671 76.4193Z" fill="white"/>
<path d="M703.491 88.9351C703.491 88.9351 710.353 80.5199 714.426 79.8718C714.668 75.2853 721.402 55.9124 733.192 53.3616C739.057 60.7116 723.94 77.8169 719.417 81.2328C721.303 83.5094 717.948 92.1542 717.948 92.1542C717.948 92.1542 714.723 88.5303 713.827 85.7291C710.669 87.4038 707.148 88.4959 703.491 88.9351Z" fill="#407BFF"/>
<path d="M648.901 85.2426C648.901 85.2426 653.818 84.0994 655.352 85.1836C656.889 83.3793 665.216 77.6861 669.881 80.5701C669.474 85.5376 659.132 87.5198 656.559 87.4028C656.459 88.9674 652.627 91.3952 652.627 91.3952C652.668 90.0424 652.896 88.6963 653.305 87.3851C651.662 86.9721 650.155 86.2392 648.901 85.2426Z" fill="#407BFF"/>
<path d="M653.915 72.8029C653.915 72.8029 658.899 70.328 660.672 70.9456C662.011 68.8223 669.906 61.1419 675.212 62.5626C675.509 67.355 664.96 72.101 662.256 72.7067C662.369 74.194 658.712 77.554 658.712 77.554C658.558 76.2363 658.603 74.9047 658.845 73.592C657.146 73.6812 655.453 73.4102 653.915 72.8029Z" fill="#407BFF"/>
<path opacity="0.6" d="M653.915 72.8029C653.915 72.8029 658.899 70.328 660.672 70.9456C662.011 68.8223 669.906 61.1419 675.212 62.5626C675.509 67.355 664.959 72.101 662.256 72.7067C662.369 74.194 658.712 77.554 658.712 77.554C658.558 76.2363 658.603 74.9047 658.845 73.592C657.146 73.6812 655.453 73.4102 653.915 72.8029Z" fill="white"/>
<path opacity="0.6" d="M739.31 139.41C739.31 139.41 744.697 138.015 746.304 138.984C748.053 137.183 757.361 131.294 762.261 133.778C761.563 138.528 750.262 140.999 747.492 141.034C747.296 142.513 743.025 145.047 743.025 145.047C743.146 143.726 743.465 142.432 743.972 141.198C742.291 140.935 740.69 140.321 739.31 139.41Z" fill="white"/>
<path d="M706.871 50.4282C706.871 50.4282 710.136 45.0044 712.464 44.3345C712.171 41.6168 714.273 29.7773 720.972 27.445C725.05 31.3121 717.857 42.4448 715.503 44.7728C716.835 45.9711 715.682 51.2874 715.682 51.2874C714.471 50.2672 713.445 49.0959 712.637 47.8117C710.942 49.0168 708.978 49.9079 706.871 50.4282Z" fill="#407BFF"/>
<path opacity="0.6" d="M706.871 50.4282C706.871 50.4282 710.136 45.0044 712.464 44.3345C712.171 41.6168 714.273 29.7773 720.972 27.445C725.05 31.3121 717.857 42.4448 715.503 44.7728C716.835 45.9711 715.682 51.2874 715.682 51.2874C714.471 50.2672 713.445 49.0959 712.637 47.8117C710.942 49.0168 708.978 49.9079 706.871 50.4282Z" fill="white"/>
<path d="M715.595 124.754C715.595 124.754 720.744 123.562 722.333 124.696C723.935 122.814 732.623 116.872 737.493 119.881C737.062 125.066 726.273 127.129 723.588 127.018C723.482 128.642 719.448 131.184 719.448 131.184C719.495 129.77 719.734 128.364 720.16 126.993C718.456 126.556 716.896 125.79 715.595 124.754Z" fill="#407BFF"/>
<path opacity="0.3" d="M715.595 124.754C715.595 124.754 720.744 123.562 722.333 124.696C723.935 122.814 732.623 116.873 737.493 119.881C737.062 125.066 726.273 127.129 723.588 127.018C723.482 128.642 719.448 131.184 719.448 131.184C719.495 129.77 719.734 128.364 720.16 126.993C718.456 126.556 716.896 125.79 715.595 124.754Z" fill="white"/>
<path opacity="0.3" d="M691.328 150.523C691.328 150.523 696.476 149.332 698.065 150.466C699.668 148.584 708.356 142.642 713.226 145.651C712.795 150.836 702.006 152.899 699.32 152.787C699.215 154.412 695.18 156.954 695.18 156.954C695.228 155.54 695.467 154.133 695.893 152.763C694.189 152.326 692.628 151.56 691.328 150.523Z" fill="white"/>
<path d="M737.669 105.984C737.669 105.984 742.874 103.431 744.725 104.052C746.121 101.837 754.355 93.8195 759.925 95.3023C760.231 100.303 749.232 105.25 746.399 105.884C746.525 107.445 742.709 110.947 742.709 110.947C742.548 109.572 742.593 108.183 742.843 106.813C741.059 106.907 739.283 106.622 737.669 105.984Z" fill="#407BFF"/>
<path d="M629.796 113.275C629.796 113.275 634.422 109.781 636.357 110.04C637.307 107.599 643.869 98.1644 649.62 98.5628C650.869 103.415 641.009 110.359 638.349 111.52C638.769 113.029 635.687 117.191 635.687 117.191C635.268 115.872 635.049 114.5 635.034 113.108C633.3 113.538 631.501 113.595 629.796 113.275Z" fill="#407BFF"/>
<path d="M750.832 117.81C750.832 117.81 756.482 114.557 758.995 115.065C760.003 112.524 767.621 103.029 775.038 104.14C777.117 109.572 765.016 115.996 761.693 116.9C762.372 118.599 758.77 122.763 758.77 122.763C758.122 121.311 757.711 119.786 757.549 118.231C755.294 118.491 753.007 118.348 750.832 117.81Z" fill="#407BFF"/>
<path opacity="0.6" d="M750.832 117.81C750.832 117.81 756.482 114.557 758.995 115.065C760.003 112.524 767.621 103.029 775.038 104.14C777.117 109.572 765.016 115.996 761.693 116.9C762.372 118.599 758.77 122.763 758.77 122.763C758.122 121.311 757.711 119.786 757.549 118.231C755.294 118.491 753.007 118.348 750.832 117.81Z" fill="white"/>
<path d="M758.669 83.9648C758.669 83.9648 761.567 82.8798 762.625 83.4268C763.383 82.2117 767.906 78.0793 771.113 79.4799C771.38 82.5571 765.229 84.5648 763.639 84.6923C763.746 85.6575 761.644 87.4363 761.644 87.4363C761.528 86.6049 761.526 85.7634 761.638 84.9289C760.572 84.81 759.556 84.4801 758.669 83.9648Z" fill="#407BFF"/>
<path d="M653.475 111.171C653.475 111.171 661.867 107.042 664.856 108.057C667.115 104.48 680.408 91.5357 689.343 93.9265C689.847 102.001 672.078 109.992 667.511 111.014C667.718 113.542 661.549 119.192 661.549 119.192C661.549 119.192 661.076 115.08 661.761 112.51C658.904 112.655 656.058 112.195 653.475 111.171Z" fill="#407BFF"/>
<path opacity="0.3" d="M653.475 111.171C653.475 111.171 661.867 107.042 664.856 108.057C667.115 104.48 680.408 91.5358 689.343 93.9266C689.847 102.001 672.078 109.992 667.511 111.014C667.718 113.542 661.549 119.192 661.549 119.192C661.549 119.192 661.076 115.08 661.761 112.51C658.904 112.655 656.058 112.196 653.475 111.171Z" fill="#4D6BC6"/>
<path d="M708.373 171.149C708.373 171.149 716.765 167.02 719.754 168.036C722.014 164.458 735.306 151.514 744.241 153.905C744.745 161.979 726.976 169.97 722.41 170.992C722.616 173.52 716.447 179.171 716.447 179.171C716.447 179.171 715.975 175.059 716.66 172.489C713.802 172.634 710.957 172.174 708.373 171.149Z" fill="#4D6BC6"/>
<path d="M683.091 76.1827C683.091 76.1827 688.504 73.0605 690.913 73.5734C691.882 71.1392 699.181 62.0391 706.284 63.1061C708.265 68.3113 696.671 74.4428 693.478 75.3477C694.136 76.9734 690.682 80.9657 690.682 80.9657C690.061 79.575 689.668 78.1143 689.514 76.625C687.354 76.8619 685.167 76.7112 683.091 76.1827Z" fill="#4D6BC6"/>
<path d="M769.834 96.4533C769.834 96.4533 774.897 91.7954 777.416 91.6911C778.021 88.886 784.056 77.4724 791.526 76.7606C794.362 81.7164 783.461 91.1213 780.335 92.8888C781.276 94.4266 778.358 99.498 778.358 99.498C777.47 98.1742 776.818 96.7411 776.422 95.2459C774.341 96.0384 772.097 96.4497 769.834 96.4533Z" fill="#407BFF"/>
<path opacity="0.3" d="M769.834 96.4533C769.834 96.4533 774.897 91.7954 777.416 91.6911C778.021 88.886 784.056 77.4724 791.526 76.7606C794.362 81.7164 783.461 91.1213 780.335 92.8888C781.276 94.4266 778.358 99.498 778.358 99.498C777.47 98.1742 776.818 96.7411 776.422 95.2459C774.341 96.0384 772.097 96.4497 769.834 96.4533Z" fill="black"/>
<path d="M738.797 77.2181C738.797 77.2181 741.83 74.9624 743.141 75.1616C743.724 73.5517 747.908 67.383 751.776 67.7223C752.744 70.9529 746.269 75.4464 744.507 76.1642C744.824 77.1792 742.853 79.8921 742.853 79.8921C742.539 79.0128 742.355 78.1011 742.308 77.1788C741.155 77.4358 739.95 77.4493 738.797 77.2181Z" fill="#407BFF"/>
<path opacity="0.3" d="M738.797 77.2181C738.797 77.2181 741.83 74.9624 743.141 75.1616C743.724 73.5517 747.908 67.383 751.776 67.7223C752.744 70.9529 746.269 75.4464 744.507 76.1642C744.824 77.1792 742.853 79.8921 742.853 79.8921C742.539 79.0128 742.355 78.1011 742.308 77.1788C741.155 77.4358 739.95 77.4493 738.797 77.2181Z" fill="black"/>
<path d="M740.779 29.8208C740.779 29.8208 742.19 27.0149 743.33 26.7147C743.069 25.2343 743.639 18.9455 746.895 17.9182C749.144 20.1553 745.971 25.8806 744.881 27.0517C745.6 27.764 745.238 30.565 745.238 30.565C744.59 29.9703 744.031 29.3073 743.575 28.5913C742.771 29.1913 741.811 29.6135 740.779 29.8208Z" fill="#407BFF"/>
<path opacity="0.3" d="M740.779 29.8208C740.779 29.8208 742.19 27.0149 743.33 26.7147C743.069 25.2343 743.639 18.9455 746.895 17.9182C749.144 20.1553 745.971 25.8806 744.881 27.0517C745.6 27.764 745.238 30.565 745.238 30.565C744.59 29.9703 744.031 29.3073 743.575 28.5913C742.771 29.1913 741.811 29.6135 740.779 29.8208Z" fill="black"/>
<path d="M765.513 66.1915C765.513 66.1915 768.508 63.8703 770.04 63.9844C770.382 62.4158 773.918 56.2926 778.356 56.3961C780.112 59.4252 773.628 64.0833 771.774 64.8726C772.339 65.8161 770.637 68.5238 770.637 68.5238C770.111 67.721 769.717 66.8582 769.466 65.9596C768.177 66.2694 766.831 66.3483 765.513 66.1915Z" fill="#407BFF"/>
<path opacity="0.6" d="M765.513 66.1913C765.513 66.1913 768.508 63.8702 770.04 63.9843C770.382 62.4157 773.918 56.2925 778.356 56.3959C780.113 59.425 773.628 64.0832 771.774 64.8725C772.339 65.816 770.637 68.5237 770.637 68.5237C770.111 67.7209 769.717 66.858 769.466 65.9594C768.177 66.2692 766.831 66.3482 765.513 66.1913Z" fill="white"/>
<path opacity="0.6" d="M682.541 46.2458C682.541 46.2458 685.536 43.9247 687.069 44.0388C687.411 42.4702 690.946 36.347 695.384 36.4504C697.141 39.4795 690.656 44.1377 688.802 44.927C689.367 45.8705 687.665 48.5782 687.665 48.5782C687.139 47.7754 686.745 46.9126 686.494 46.0139C685.205 46.3237 683.859 46.4027 682.541 46.2458Z" fill="white"/>
<path d="M750.687 51.6826C750.687 51.6826 753.791 47.8039 755.635 47.5301C755.727 45.4434 758.718 36.6144 764.066 35.4358C766.756 38.7491 759.97 46.5636 757.944 48.1298C758.86 49.1537 757.312 53.1005 757.312 53.1005C756.526 52.2205 755.896 51.2447 755.44 50.2037C753.99 50.9791 752.37 51.4832 750.687 51.6826Z" fill="#407BFF"/>
<path d="M703.149 19.6429C703.149 19.6429 706.253 15.7642 708.096 15.4904C708.188 13.4037 711.179 4.57471 716.528 3.39609C719.218 6.70942 712.431 14.5239 710.406 16.0901C711.322 17.114 709.774 21.0608 709.774 21.0608C708.988 20.1809 708.357 19.205 707.902 18.164C706.452 18.9394 704.832 19.4435 703.149 19.6429Z" fill="#407BFF"/>
</g>
<g opacity="0.2">
<path d="M80.2225 445.633C123.207 436.112 216.291 411.85 275.501 369.811C304.758 349.028 335.913 321.603 365.644 292.691C366.277 277.065 346.983 259.541 337.21 252.17C326.361 243.978 302.576 245.275 295.712 246.508C288.849 247.742 280.91 249.64 286.603 243.06C292.296 236.481 324.495 206.019 369.092 197.257C398.444 191.5 434.786 200.515 449.145 204.69C464.928 186.818 478.56 170.654 488.998 157.843C514.776 126.243 547.544 93.1868 588.092 101.221C622.03 107.959 682.505 156.641 701.356 198.332C720.239 240.024 705.69 269.189 635.441 327.36C622.125 338.4 605.172 351.085 585.657 364.433C592.331 398.659 586.384 445.633 559.025 476.158C516.294 523.828 466.668 529.364 456.989 530.123C447.311 530.882 448.038 528.162 455.534 524.556C465.308 519.874 476.441 508.202 482.419 497.858C491.781 481.694 493.932 455.186 489.473 440.414C487.606 434.214 485.898 429.248 484.222 425.294C415.27 461.323 338.633 490.614 276.735 491.468C184.884 492.734 112.294 474.514 75.4781 462.841C58.9999 462.841 64.4999 435.75 80.2225 445.633Z" fill="#00023E"/>
<path d="M6.85113 558.228C62.1375 550.897 91.0744 497.428 99.9866 470.559C103.162 471.045 109.555 472.099 109.717 472.424C111.417 461.402 110.594 445.957 109.372 438.914C108.643 438.914 104.121 438.723 101.203 438.57C91.3013 408.718 63.9117 335.136 2.56673 326.275C0.393986 325.962 -0.83153 328.575 0.650251 330.203C11.4785 342.096 19.0989 355.046 22.5878 374.098C22.5878 374.098 16.6091 435.428 34.7408 448.377C19.0426 460.922 24.3197 515.056 24.3197 515.056C21.2124 532.024 14.4771 543.634 4.91362 554.254C3.44071 555.89 4.67492 558.516 6.85113 558.228Z" fill="#00023E"/>
<path d="M598.561 104.353C633.29 117.322 684.276 160.69 701.325 198.364C701.862 199.598 702.4 200.8 702.906 202.002C664.983 172.331 634.049 139.307 609.378 115.456C605.709 111.913 602.104 108.181 598.561 104.353Z" fill="#999AB2"/>
<path d="M514.143 286.333C514.143 286.333 481.185 300.599 464.327 317.459C447.469 334.351 433.742 352.634 433.742 352.634C433.742 352.634 493.457 320.275 514.143 286.333Z" fill="#999AB2"/>
<path d="M323.23 413.78C323.23 413.78 283.661 422.637 264.747 432.411C245.833 442.154 238.843 447.911 238.843 447.911C238.843 447.911 286.73 447.689 323.23 413.78Z" fill="#999AB2"/>
<path d="M479.737 171.853L478.487 172.048L483.343 203.21L484.593 203.015L479.737 171.853Z" fill="#070707"/>
<path d="M475.83 175.025L474.579 175.22L479.439 206.382L480.689 206.187L475.83 175.025Z" fill="#070707"/>
<path d="M472.823 180.5L471.573 180.695L476.432 211.857L477.682 211.662L472.823 180.5Z" fill="#070707"/>
<path d="M581.636 333.314L581.206 334.504L610.867 345.211L611.297 344.021L581.636 333.314Z" fill="#070707"/>
<path d="M586.645 330.124L586.215 331.314L615.877 342.021L616.306 340.831L586.645 330.124Z" fill="#070707"/>
<path d="M590.527 326.905L590.097 328.095L619.758 338.799L620.188 337.609L590.527 326.905Z" fill="#070707"/>
</g>
</svg>
