<svg width="19" height="20" viewBox="0 0 19 20" fill="none" xmlns="http://www.w3.org/2000/svg">
  <path d="M2.47522 17.6633H14.3133L13.7479 15.8258L15.1004 16.9908L16.3399 18.1058L18.5981 20V2.0625C18.5416 0.9475 17.5852 0 16.3997 0L2.47937 0.0025C1.29465 0.0025 0.333252 0.951667 0.333252 2.06667V15.6C0.333252 16.7758 1.29299 17.6633 2.47522 17.6633ZM11.2324 4.73583L11.205 4.74583L11.2149 4.73583H11.2324ZM4.89697 5.79333C6.41877 4.68167 7.82931 4.735 7.82931 4.735L7.94305 4.8475C6.08087 5.29333 5.23653 6.12833 5.23653 6.12833C5.23653 6.12833 5.46235 6.0175 5.85671 5.84833C8.3648 4.85833 11.1037 4.93 13.6392 6.18333C13.6392 6.18333 12.7932 5.4025 11.0456 4.9025L11.2 4.75C11.4416 4.75083 12.7201 4.79583 14.0883 5.8C14.0883 5.8 15.6193 8.425 15.6193 11.65C15.5686 11.5883 14.6695 13.0383 12.3557 13.0883C12.3557 13.0883 11.9638 12.6433 11.6849 12.255C13.0381 11.865 13.5445 11.085 13.5445 11.085C13.1004 11.3658 12.6952 11.5325 12.3665 11.6992C11.8609 11.9225 11.3544 12.0325 10.8488 12.145C8.45446 12.535 7.11034 11.8825 5.8401 11.365L5.4059 11.1433C5.4059 11.1433 5.9115 11.9233 7.21079 12.3133C6.86957 12.7042 6.53167 13.1483 6.53167 13.1483C4.21868 13.0933 3.37518 11.6433 3.37518 11.6433C3.37518 8.41333 4.89697 5.79333 4.89697 5.79333Z" fill="currentColor" />
  <path d="M11.382 10.6425C11.9723 10.6425 12.453 10.1425 12.453 9.52583C12.453 8.91333 11.9748 8.41333 11.382 8.41333V8.41583C10.7942 8.41583 10.3127 8.91416 10.311 9.53083C10.311 10.1425 10.7917 10.6425 11.382 10.6425Z" fill="currentColor" />
  <path d="M7.54779 10.6425C8.13808 10.6425 8.61877 10.1425 8.61877 9.52583C8.61877 8.91333 8.1414 8.41333 7.55111 8.41333L7.54779 8.41583C6.9575 8.41583 6.47681 8.91416 6.47681 9.53083C6.47681 10.1425 6.9575 10.6425 7.54779 10.6425Z" fill="currentColor" />
</svg>
