<svg width="164" height="45" viewBox="0 0 164 45" fill="none" xmlns="http://www.w3.org/2000/svg">
<path d="M24.0924 18.9249C22.8066 18.9249 21.7915 20.0267 21.7915 21.3982C21.7915 22.7698 22.8291 23.8716 24.0924 23.8716C25.3783 23.8716 26.3934 22.7698 26.3934 21.3982C26.3934 20.0267 25.3557 18.9249 24.0924 18.9249ZM15.8586 18.9249C14.5727 18.9249 13.5576 20.0267 13.5576 21.3982C13.5576 22.7698 14.5953 23.8716 15.8586 23.8716C17.1444 23.8716 18.1595 22.7698 18.1595 21.3982C18.1821 20.0267 17.1444 18.9249 15.8586 18.9249Z" fill="#7289DA"/>
<path d="M35.056 0.217773H4.82761C2.2785 0.217773 0.203125 2.28637 0.203125 4.82714V34.9567C0.203125 37.4974 2.2785 39.566 4.82761 39.566H30.4089L29.2133 35.4513L32.1008 38.1045L34.8304 40.6003L39.703 44.805V4.82714C39.6804 2.28637 37.6051 0.217773 35.056 0.217773ZM26.3484 29.3355C26.3484 29.3355 25.5363 28.3686 24.8595 27.5367C27.8147 26.7048 28.9426 24.8835 28.9426 24.8835C28.0177 25.4906 27.1379 25.9178 26.3484 26.2101C25.2205 26.6823 24.1377 26.9746 23.0774 27.1769C20.9118 27.5817 18.9266 27.4692 17.2348 27.1545C15.9489 26.9071 14.8436 26.5699 13.9187 26.1876C13.3998 25.9853 12.8359 25.7379 12.2719 25.4231C12.2042 25.3782 12.1366 25.3557 12.0689 25.3107C12.0238 25.2882 12.0012 25.2657 11.9786 25.2657C11.5726 25.0409 11.347 24.8835 11.347 24.8835C11.347 24.8835 12.4298 26.6598 15.2947 27.5142C14.618 28.3686 13.7833 29.358 13.7833 29.358C8.7979 29.2006 6.90299 25.9628 6.90299 25.9628C6.90299 18.7901 10.1514 12.9666 10.1514 12.9666C13.3998 10.5607 16.4678 10.6282 16.4678 10.6282L16.6934 10.898C12.6328 12.0447 10.783 13.821 10.783 13.821C10.783 13.821 11.2793 13.5512 12.114 13.1915C14.5277 12.1347 16.4452 11.8649 17.2348 11.7749C17.3701 11.7524 17.4829 11.7299 17.6183 11.7299C18.9943 11.5501 20.5509 11.5051 22.1751 11.685C24.3181 11.9323 26.6191 12.5619 28.9652 13.821C28.9652 13.821 27.183 12.1347 23.3481 10.988L23.6639 10.6282C23.6639 10.6282 26.7544 10.5607 29.9803 12.9666C29.9803 12.9666 33.2287 18.7901 33.2287 25.9628C33.2287 25.9403 31.3338 29.1781 26.3484 29.3355ZM60.4117 9.84123H52.9223V18.228L57.9077 22.7025V14.563H60.5696C62.2615 14.563 63.0961 15.3725 63.0961 16.6766V22.9048C63.0961 24.209 62.3066 25.0859 60.5696 25.0859H52.8997V29.8301H60.3891C64.4045 29.8526 68.1718 27.8515 68.1718 23.2646V16.5642C68.1943 11.8873 64.4271 9.84123 60.4117 9.84123ZM99.6634 23.2646V16.3843C99.6634 13.911 104.13 13.3488 105.483 15.8222L109.612 14.1583C107.987 10.6057 105.032 9.57141 102.573 9.57141C98.558 9.57141 94.5877 11.8873 94.5877 16.3843V23.2646C94.5877 27.8065 98.558 30.0775 102.483 30.0775C105.01 30.0775 108.033 28.8408 109.702 25.603L105.28 23.5794C104.198 26.345 99.6634 25.6705 99.6634 23.2646ZM86.0155 17.3286C84.459 16.9914 83.4213 16.4293 83.3536 15.4624C83.4439 13.1465 87.0306 13.0565 89.1286 15.2825L92.4447 12.7418C90.3693 10.2235 88.0232 9.54893 85.6095 9.54893C81.9324 9.54893 78.3682 11.6175 78.3682 15.5299C78.3682 19.3298 81.3008 21.3759 84.5267 21.8706C86.1734 22.0954 88.0007 22.7475 87.9555 23.8717C87.8202 26.0077 83.3987 25.8953 81.391 23.467L78.1877 26.4574C80.0601 28.8633 82.6092 30.0775 85.0004 30.0775C88.6774 30.0775 92.7605 27.9639 92.9184 24.0965C93.144 19.2174 89.5798 17.9807 86.0155 17.3286ZM70.9013 29.8077H75.9544V9.84123H70.9013V29.8077ZM156.105 9.84123H148.615V18.228L153.601 22.7025V14.563H156.263C157.954 14.563 158.789 15.3725 158.789 16.6766V22.9048C158.789 24.209 158 25.0859 156.263 25.0859H148.593V29.8301H156.105C160.12 29.8526 163.887 27.8515 163.887 23.2646V16.5642C163.887 11.8873 160.12 9.84123 156.105 9.84123ZM119.357 9.57141C115.206 9.57141 111.078 11.8199 111.078 16.4293V23.2421C111.078 27.8065 115.229 30.1 119.402 30.1C123.553 30.1 127.681 27.8065 127.681 23.2421V16.4293C127.681 11.8424 123.508 9.57141 119.357 9.57141ZM122.605 23.2421C122.605 24.6811 120.981 25.4231 119.379 25.4231C117.755 25.4231 116.131 24.7261 116.131 23.2421V16.4293C116.131 14.9677 117.71 14.1808 119.289 14.1808C120.936 14.1808 122.605 14.8778 122.605 16.4293V23.2421ZM145.818 16.4293C145.705 11.7524 142.502 9.86371 138.374 9.86371H130.365V29.8301H135.486V23.4895H136.389L141.036 29.8301H147.352L141.893 22.9723C144.307 22.2078 145.818 20.1167 145.818 16.4293ZM138.464 19.1274H135.486V14.563H138.464C141.645 14.563 141.645 19.1274 138.464 19.1274Z" fill="#7289DA"/>
</svg>
