<svg width="21" height="20" viewBox="0 0 21 20" fill="none" xmlns="http://www.w3.org/2000/svg">
  <path d="M20.5183 20.0001V19.9993H20.5233V12.6643C20.5233 9.07593 19.7537 6.31177 15.5743 6.31177C13.5652 6.31177 12.2169 7.41843 11.6665 8.4676H11.6084V6.64677H7.64575V19.9993H11.7719V13.3876C11.7719 11.6468 12.1007 9.96343 14.2485 9.96343C16.3647 9.96343 16.3963 11.9501 16.3963 13.4993V20.0001H20.5183Z" fill="currentColor" />
  <path d="M0.926758 6.64746H5.05793V19.9999H0.926758V6.64746Z" fill="currentColor" />
  <path d="M2.99084 0C1.66996 0 0.598145 1.07583 0.598145 2.40166C0.598145 3.7275 1.66996 4.82583 2.99084 4.82583C4.31171 4.82583 5.38353 3.7275 5.38353 2.40166C5.3827 1.07583 4.31088 0 2.99084 0V0Z" fill="currentColor" />
</svg>
