<svg width="21" height="18" viewBox="0 0 21 18" fill="none" xmlns="http://www.w3.org/2000/svg">
  <path d="M20.3374 2.79875C19.5964 3.125 18.8069 3.34125 17.9837 3.44625C18.8305 2.93875 19.4769 2.14125 19.7807 1.18C18.9912 1.6525 18.1195 1.98625 17.1904 2.1725C16.4408 1.37125 15.3723 0.875 14.2066 0.875C11.9451 0.875 10.1244 2.7175 10.1244 4.97625C10.1244 5.30125 10.1518 5.61375 10.2191 5.91125C6.82307 5.745 3.81809 4.11125 1.79941 1.6225C1.44698 2.23625 1.24025 2.93875 1.24025 3.695C1.24025 5.115 1.96877 6.37375 3.0547 7.1025C2.39841 7.09 1.75458 6.89875 1.20912 6.5975C1.20912 6.61 1.20912 6.62625 1.20912 6.6425C1.20912 8.635 2.62506 10.29 4.48185 10.6712C4.14934 10.7625 3.78695 10.8062 3.41086 10.8062C3.14934 10.8062 2.88533 10.7913 2.63751 10.7362C3.16678 12.36 4.66865 13.5538 6.45445 13.5925C5.06466 14.6838 3.30003 15.3412 1.38969 15.3412C1.0547 15.3412 0.733404 15.3263 0.412109 15.285C2.22157 16.4563 4.36603 17.125 6.67861 17.125C14.1954 17.125 18.305 10.875 18.305 5.4575C18.305 5.27625 18.2988 5.10125 18.2901 4.9275C19.1008 4.35 19.782 3.62875 20.3374 2.79875Z" fill="currentColor" />
</svg>
