<svg width="164" height="36" viewBox="0 0 164 36" fill="none" xmlns="http://www.w3.org/2000/svg">
<g clip-path="url(#clip0)">
<path d="M51.2183 5.63736C50.6137 3.42857 48.8337 1.68132 46.5834 1.08791C42.5195 0 26.1632 0 26.1632 0C26.1632 0 9.80685 0.0329671 5.74295 1.12088C3.49269 1.71429 1.71264 3.46154 1.10809 5.67033C-0.134585 12.7582 -0.604787 23.5714 1.14168 30.3626C1.74623 32.5714 3.52628 34.3187 5.77654 34.9121C9.84043 36 26.1968 36 26.1968 36C26.1968 36 42.5531 36 46.617 34.9121C48.8673 34.3187 50.6473 32.5714 51.2519 30.3626C52.5281 23.2747 52.9312 12.4615 51.2183 5.63736Z" fill="#FF0000"/>
<path d="M20.958 25.7142L34.5267 17.9999L20.958 10.2856V25.7142Z" fill="white"/>
<path d="M75.9377 32.7364C74.8965 32.0441 74.1576 30.9891 73.721 29.5386C73.2844 28.088 73.0829 26.1759 73.0829 23.7693V20.5056C73.0829 18.099 73.318 16.121 73.8218 14.6704C74.3256 13.1869 75.098 12.132 76.1728 11.4726C77.2475 10.8133 78.6246 10.4507 80.3374 10.4507C82.0167 10.4507 83.3938 10.7803 84.4013 11.4726C85.4089 12.1649 86.1814 13.2199 86.6516 14.6704C87.1218 16.121 87.3569 18.066 87.3569 20.4726V23.7364C87.3569 26.143 87.1218 28.055 86.6516 29.5056C86.1814 30.9561 85.4425 32.0111 84.4013 32.7034C83.3602 33.3627 81.9496 33.7254 80.2031 33.7254C78.3895 33.7583 76.9789 33.3957 75.9377 32.7364ZM81.7481 29.2089C82.0503 28.4836 82.1847 27.2638 82.1847 25.6155V18.5935C82.1847 16.9781 82.0503 15.7913 81.7481 15.066C81.4458 14.3078 80.942 13.9452 80.2367 13.9452C79.5314 13.9452 79.0612 14.3078 78.7589 15.066C78.4566 15.8243 78.3223 16.9781 78.3223 18.5935V25.6155C78.3223 27.2638 78.4566 28.4836 78.7253 29.2089C78.994 29.9342 79.4978 30.2968 80.2367 30.2968C80.942 30.2968 81.4458 29.9342 81.7481 29.2089ZM155.368 23.8353V24.9891L155.503 28.2529C155.603 28.9781 155.771 29.5056 156.04 29.8353C156.309 30.1649 156.745 30.3298 157.316 30.3298C158.089 30.3298 158.626 30.0331 158.895 29.4397C159.197 28.8463 159.332 27.8572 159.365 26.5056L163.832 26.7693C163.866 26.9671 163.866 27.2309 163.866 27.5605C163.866 29.6375 163.295 31.1869 162.119 32.2089C160.944 33.2309 159.332 33.7583 157.216 33.7583C154.663 33.7583 152.883 32.9671 151.875 31.4177C150.868 29.8682 150.33 27.4287 150.33 24.1649V20.1759C150.431 14.5715 151.439 10.4836 157.35 10.4507C159.13 10.4507 160.473 10.7803 161.414 11.4067C162.354 12.0331 163.026 13.0221 163.429 14.3737C163.832 15.7254 164 17.5715 164 19.9452V23.8023L155.368 23.8353ZM156.04 14.3408C155.771 14.6704 155.603 15.1649 155.503 15.8902C155.402 16.6155 155.368 19.1869 155.368 19.1869V20.8023H159.13V19.1869C159.13 20.8023 159.096 16.6485 158.996 15.8902C158.895 15.132 158.727 14.6045 158.458 14.3078C158.19 14.0111 157.787 13.8463 157.249 13.8463C156.678 13.8792 156.275 14.0441 156.04 14.3408ZM63.3766 23.4067L57.499 2.57153H62.6377C62.6377 2.57153 65.0223 13.0221 65.8619 17.9342H65.9963C66.9367 12.7254 69.2877 2.57153 69.2877 2.57153H74.4263L68.4816 23.3737V33.3627H63.4101V23.4067H63.3766Z" fill="#fff"/>
<path d="M104.015 10.8792V33.3956H99.985L99.5484 30.6264H99.4476C98.3393 32.7033 96.6936 33.7583 94.5105 33.7583C90.5473 33.7583 90.1107 30.4616 90.0771 27.6923V10.8792H95.2494V27.3956C95.2494 28.3846 95.3501 29.1099 95.5852 29.5385C96.0554 30.4616 97.2981 30.2308 97.9698 29.7693C98.3729 29.5055 98.6751 29.1759 98.8767 28.7473V10.8792H104.015Z" fill="#fff"/>
<path d="M118.054 6.65948H112.916V33.3957H107.878V6.65948H102.739V2.57157H118.021L118.054 6.65948ZM147.576 14.4727C147.274 13.0551 146.77 12.0331 146.065 11.3738C145.36 10.7474 144.419 10.4177 143.177 10.4177C142.236 10.4177 141.296 10.6815 140.523 11.2089C139.684 11.7364 139.079 12.4287 138.609 13.2859H138.575V1.41772H133.605V33.3628H137.87L138.408 31.2199H138.508C138.911 31.9782 139.549 32.6045 140.288 33.0331C141.094 33.4617 141.968 33.6924 142.942 33.6924C144.688 33.6924 145.964 32.9012 146.804 31.3188C147.61 29.7364 148.047 27.2639 148.047 23.9342V20.3738C148.047 17.8683 147.879 15.8903 147.576 14.4727ZM142.841 23.6705C142.841 25.3188 142.774 26.6045 142.639 27.5276C142.505 28.4507 142.27 29.11 141.934 29.5056C141.598 29.9012 141.162 30.099 140.624 30.099C139.583 30.0661 138.978 29.6045 138.575 28.9122V16.121C138.743 15.4946 139.046 15.0001 139.482 14.6045C140.221 13.7804 141.497 13.7804 142.068 14.6045C142.371 15.0001 142.539 15.6925 142.673 16.6485C142.774 17.6045 142.841 18.9562 142.841 20.7364V23.6705Z" fill="#fff"/>
<path d="M130.514 10.8792V33.3956H126.484L126.047 30.6264H125.947C124.838 32.7033 123.193 33.7583 121.01 33.7583C117.046 33.7583 116.61 30.4616 116.576 27.6923V10.8792H121.748V27.3956C121.748 28.3846 121.849 29.1099 122.084 29.5385C122.554 30.4616 123.797 30.2308 124.469 29.7693C124.872 29.5055 125.174 29.1759 125.376 28.7473V10.8792H130.514Z" fill="#fff"/>
</g>
<defs>
<clipPath id="clip0">
<rect width="164" height="36" fill="white"/>
</clipPath>
</defs>
</svg>
