<svg width="20" height="20" viewBox="0 0 20 20" fill="none" xmlns="http://www.w3.org/2000/svg">
  <path d="M8.46289 11.8735L11.6073 10.0001L8.46289 8.12659V11.8735Z" fill="currentColor" />
  <path d="M17.939 0.00012207H1.39433C0.624227 0.00012207 0 0.645874 0 1.44254V18.5577C0 19.3544 0.624227 20.0001 1.39433 20.0001H17.939C18.7091 20.0001 19.3333 19.3544 19.3333 18.5577V1.44254C19.3333 0.645874 18.7091 0.00012207 17.939 0.00012207V0.00012207ZM15.7069 10.0103C15.7069 10.0103 15.7069 12.0384 15.4582 13.0163C15.3188 13.5516 14.9108 13.9737 14.3934 14.1177C13.448 14.3751 9.66667 14.3751 9.66667 14.3751C9.66667 14.3751 5.8952 14.3751 4.93998 14.1075C4.42254 13.9634 4.01455 13.5412 3.87516 13.006C3.62633 12.0384 3.62633 10.0001 3.62633 10.0001C3.62633 10.0001 3.62633 7.97223 3.87516 6.99429C4.0144 6.45901 4.43242 6.02658 4.93998 5.88254C5.88531 5.62512 9.66667 5.62512 9.66667 5.62512C9.66667 5.62512 13.448 5.62512 14.3934 5.89276C14.9108 6.0368 15.3188 6.45901 15.4582 6.99429C15.7169 7.97223 15.7069 10.0103 15.7069 10.0103Z" fill="currentColor" />
  <defs>
    <clipPath id="clip0">
      <rect width="19.3333" height="20" fill="currentColor" transform="translate(0 0.00012207)" />
    </clipPath>
  </defs>
</svg>
